<svg xmlns="http://www.w3.org/2000/svg" width="1280" height="720" fill="none"><path fill="#8E8D92" d="M122.043 186.096c0 2.789 1.328 5.528 3.719 6.574l-1.113 1.477c-1.701-.83-2.897-2.423-3.536-4.382-.655 2.067-1.876 3.785-3.602 4.665l-1.162-1.494c2.44-1.146 3.801-4.035 3.818-6.84v-2.391h1.876zm7.039-3.603v15.025h-1.826v-8.683h-3.154v-1.494h3.154v-4.848zm14.423 0v15.025h-1.86v-15.025zm-9.845 1.229v3.752h3.636v-3.752h1.826v10.259h-7.305v-10.259zm0 8.749h3.636v-3.553h-3.636zm19.636-7.919c0 2.324 2.274 4.648 5.412 5.196l-.83 1.544c-2.515-.531-4.574-2.05-5.545-4.067-.996 2-3.055 3.527-5.562 4.067l-.813-1.544c3.104-.564 5.362-2.889 5.379-5.196v-1.113h1.959zm5.96 9.512v1.528h-13.713v-1.528zM123.255 243.873c3.254.017 5.312 1.046 5.329 2.822-.017 1.743-2.075 2.789-5.329 2.789-3.237 0-5.313-1.046-5.313-2.789 0-1.776 2.076-2.805 5.313-2.822m0 1.395c-2.158 0-3.47.514-3.453 1.427-.017.88 1.295 1.362 3.453 1.362 2.175 0 3.486-.482 3.503-1.362-.017-.913-1.328-1.427-3.503-1.427m5.229-10.061v1.245c0 1.179 0 2.441-.415 3.985l-1.826-.166c.374-1.461.399-2.516.399-3.603h-8.55v-1.461zm1.661 6.093v1.494h-13.614V241.3h5.28v-2.723h1.826v2.723zm5.707-2.54c0 2.457 1.444 5.047 3.868 6.059l-1.013 1.461c-1.776-.763-3.071-2.341-3.752-4.25-.697 2.059-2.009 3.785-3.768 4.616l-1.063-1.445c2.374-1.096 3.852-3.885 3.852-6.441v-1.262h-3.304v-1.527h8.467v1.527h-3.287zm6.823-4.267v15.008h-1.86v-15.008zm6.57 3.603c-.016 2.673 1.328 5.395 3.652 6.508l-1.128 1.477c-1.627-.822-2.798-2.407-3.437-4.316-.656 2.042-1.884 3.735-3.603 4.598l-1.128-1.477c2.407-1.146 3.785-4.018 3.801-6.79v-2.391h1.843zm6.392-3.603v5.877h2.307v1.577h-2.307v7.554h-1.843v-15.008zm13.775 0v3.951h2.092v1.544h-2.092v4.084h-1.843v-9.579zm-4.848 9.712c3.072 0 5.014.98 5.014 2.64 0 1.643-1.942 2.639-5.014 2.639-3.121 0-5.03-.996-5.013-2.639-.017-1.66 1.892-2.64 5.013-2.64m0 1.411c-2.058 0-3.204.399-3.187 1.229-.017.797 1.129 1.245 3.187 1.245 2.026 0 3.171-.448 3.171-1.245 0-.83-1.145-1.229-3.171-1.229m1.926-9.595v1.444h-8.898v-1.444h3.536v-1.627h1.843v1.627zm-4.449 2.041c2.175 0 3.652 1.08 3.669 2.69-.017 1.61-1.494 2.673-3.669 2.673-2.191 0-3.686-1.063-3.686-2.673s1.495-2.69 3.686-2.69m0 1.362c-1.145 0-1.893.498-1.893 1.328 0 .813.748 1.278 1.893 1.278s1.909-.465 1.909-1.278c0-.83-.763-1.328-1.909-1.328M121.877 282.76c0 2.324 1.378 4.964 3.752 6.059l-1.029 1.461c-1.694-.797-2.947-2.407-3.62-4.283-.68 2.059-1.992 3.818-3.718 4.649l-1.079-1.445c2.39-1.129 3.835-3.951 3.851-6.441v-1.262h-3.27v-1.527h8.251v1.527h-3.138zm6.375-4.267v5.844h2.308v1.544h-2.308v7.62h-1.843v-15.008zm15.618 8.367v1.494h-5.96v5.13h-1.826v-5.13h-5.894v-1.494zm-1.262-7.52v1.461h-4.499c.108 1.643 2.084 3.22 5.047 3.602l-.664 1.445c-2.556-.357-4.549-1.528-5.462-3.155-.913 1.627-2.905 2.798-5.428 3.155l-.698-1.445c2.947-.382 4.923-1.959 5.064-3.602h-4.516v-1.461zm16.528 12.501v1.477h-10.592v-5.013h4.283v-1.478h-5.91v-1.477h13.68v1.477h-5.944v1.478h4.333v1.477h-8.583v2.059zm-.282-12.817v5.13h-10.21v-5.13zm-8.417 1.478v2.191h6.59v-2.191zm22.325 2.241v1.461h-10.393v-5.163h1.826v3.702zm1.544 3.204v1.461h-13.713v-1.461zm-1.445 5.711v1.494h-10.625v-4.416h1.843v2.922zm16.943-13.165v7.736h-1.826v-7.736zm.033 8.367v3.869h-8.118v1.211h8.566v1.428h-10.376v-3.984h8.085v-1.113h-8.118v-1.411zm-3.652-7.62v1.494h-3.138c.075 1.661 1.345 3.229 3.669 3.869l-.897 1.427c-1.751-.506-3.005-1.577-3.685-2.938-.673 1.502-1.984 2.698-3.835 3.254l-.847-1.461c2.324-.689 3.619-2.374 3.719-4.151h-3.237v-1.494zm18.54 6.757v1.478h-5.794v2.755h-1.827v-2.755h-6.092v-1.478zm-1.76-6.823v5.429h-10.21v-5.429zm-8.417 1.444v2.54h6.591v-2.54zm8.666 11.09v1.494h-10.542v-4.349h1.843v2.855zM363.86 186.096c-.016 2.673 1.328 5.395 3.653 6.508l-1.129 1.477c-1.627-.822-2.798-2.407-3.437-4.316-.655 2.042-1.884 3.735-3.602 4.598l-1.129-1.477c2.407-1.146 3.785-4.018 3.802-6.79v-2.391h1.842zm6.392-3.603v5.877h2.308v1.577h-2.308v7.554h-1.843v-15.008zm15.618 7.222v1.477h-13.68v-1.477h3.188v-1.909c-1.129-.473-1.776-1.229-1.776-2.208 0-1.793 2.108-2.856 5.412-2.856s5.395 1.063 5.412 2.856c-.009.987-.656 1.743-1.793 2.208v1.909zm-6.856 2.39c3.237-.016 5.179.947 5.196 2.673-.017 1.743-1.959 2.69-5.196 2.69-3.271 0-5.23-.947-5.23-2.69 0-1.726 1.959-2.689 5.23-2.673m0 1.395c-2.192 0-3.37.432-3.354 1.278-.016.847 1.162 1.295 3.354 1.295 2.141 0 3.337-.448 3.353-1.295-.016-.846-1.212-1.278-3.353-1.278m0-9.33c-2.225 0-3.503.498-3.487 1.428-.016.913 1.262 1.394 3.487 1.394 2.208 0 3.503-.481 3.503-1.394 0-.93-1.295-1.428-3.503-1.428m-1.777 5.545h3.553v-1.428c-.54.075-1.137.116-1.776.116s-1.237-.041-1.777-.116zm11.169-6.442v2.042h3.354v-2.042h1.826v2.74h3.021v-3.52h1.843v8.201h-1.843v-3.154h-3.021v2.689h-7.023v-6.956zm0 5.462h3.354v-1.992h-3.354zm1.992 2.623v1.528h6.209v-1.528h1.843v5.927h-9.894v-5.927zm0 4.433h6.209v-1.478h-6.209zM369.837 242.014c0 3.884-2.358 6.175-5.512 6.175s-5.512-2.307-5.512-6.175c0-3.885 2.358-6.176 5.512-6.176s5.512 2.291 5.512 6.176m-2.175 0c0-2.74-1.378-4.234-3.337-4.234s-3.337 1.494-3.337 4.234c0 2.739 1.378 4.233 3.337 4.233s3.337-1.494 3.337-4.233m13.825 0c0 3.884-2.357 6.175-5.511 6.175s-5.512-2.307-5.512-6.175c0-3.885 2.357-6.176 5.512-6.176s5.511 2.291 5.511 6.176m-2.175 0c0-2.74-1.377-4.234-3.336-4.234s-3.337 1.494-3.337 4.234c0 2.739 1.378 4.233 3.337 4.233s3.336-1.494 3.336-4.233m11.066-3.918c0 2.789 1.328 5.528 3.719 6.574l-1.113 1.477c-1.701-.83-2.897-2.423-3.536-4.382-.656 2.067-1.876 3.785-3.602 4.665l-1.162-1.494c2.44-1.146 3.801-4.035 3.818-6.84v-2.391h1.876zm7.039-3.603v15.025h-1.826v-8.683h-3.154v-1.494h3.154v-4.848zm13.593 0v15.025h-1.86v-15.025zm-9.845 1.229v3.752h3.636v-3.752h1.826v10.259h-7.305v-10.259zm0 8.749h3.636v-3.553h-3.636zm18.806-7.919c0 2.324 2.274 4.648 5.412 5.196l-.83 1.544c-2.515-.531-4.574-2.05-5.545-4.067-.996 2-3.055 3.527-5.562 4.067l-.813-1.544c3.104-.564 5.362-2.889 5.379-5.196v-1.113h1.959zm5.96 9.512v1.528h-13.713v-1.528zm8.376-7.968c-.017 2.673 1.328 5.395 3.652 6.508l-1.129 1.477c-1.627-.822-2.797-2.407-3.436-4.316-.656 2.042-1.885 3.735-3.603 4.598l-1.129-1.477c2.407-1.146 3.785-4.018 3.802-6.79v-2.391h1.843zm6.391-3.603v5.877h2.308v1.577h-2.308v7.554h-1.843v-15.008zm15.618 7.222v1.477h-13.679v-1.477h3.187v-1.909c-1.129-.473-1.776-1.229-1.776-2.208 0-1.793 2.108-2.856 5.412-2.856s5.395 1.063 5.412 2.856c-.008.987-.656 1.743-1.793 2.208v1.909zm-6.856 2.39c3.237-.016 5.18.947 5.196 2.673-.016 1.743-1.959 2.69-5.196 2.69-3.271 0-5.23-.947-5.23-2.69 0-1.726 1.959-2.689 5.23-2.673m0 1.395c-2.191 0-3.37.432-3.354 1.278-.016.847 1.163 1.295 3.354 1.295 2.142 0 3.337-.448 3.353-1.295-.016-.846-1.211-1.278-3.353-1.278m0-9.33c-2.225 0-3.503.498-3.486 1.428-.017.913 1.261 1.394 3.486 1.394 2.208 0 3.503-.481 3.503-1.394 0-.93-1.295-1.428-3.503-1.428m-1.776 5.545h3.552v-1.428c-.539.075-1.137.116-1.776.116s-1.237-.041-1.776-.116zm11.169-6.442v2.042h3.353v-2.042h1.826v2.74h3.022v-3.52h1.842v8.201h-1.842v-3.154h-3.022v2.689h-7.022v-6.956zm0 5.462h3.353v-1.992h-3.353zm1.992 2.623v1.528h6.209v-1.528h1.842v5.927h-9.894v-5.927zm0 4.433h6.209v-1.478h-6.209zm17.59-11.787v12.019h-2.175v-9.911h-.067l-2.805 1.793v-1.975l2.971-1.926zM369.837 286.014c0 3.884-2.358 6.175-5.512 6.175s-5.512-2.307-5.512-6.175c0-3.885 2.358-6.176 5.512-6.176s5.512 2.291 5.512 6.176m-2.175 0c0-2.74-1.378-4.234-3.337-4.234s-3.337 1.494-3.337 4.234c0 2.739 1.378 4.233 3.337 4.233s3.337-1.494 3.337-4.233m13.825 0c0 3.884-2.357 6.175-5.511 6.175s-5.512-2.307-5.512-6.175c0-3.885 2.357-6.176 5.512-6.176s5.511 2.291 5.511 6.176m-2.175 0c0-2.74-1.377-4.234-3.336-4.234s-3.337 1.494-3.337 4.234c0 2.739 1.378 4.233 3.337 4.233s3.336-1.494 3.336-4.233m11.066-3.918c0 2.789 1.328 5.528 3.719 6.574l-1.113 1.477c-1.701-.83-2.897-2.423-3.536-4.382-.656 2.067-1.876 3.785-3.602 4.665l-1.162-1.494c2.44-1.146 3.801-4.035 3.818-6.84v-2.391h1.876zm7.039-3.603v15.025h-1.826v-8.683h-3.154v-1.494h3.154v-4.848zm13.593 0v15.025h-1.86v-15.025zm-9.845 1.229v3.752h3.636v-3.752h1.826v10.259h-7.305v-10.259zm0 8.749h3.636v-3.553h-3.636zm18.806-7.919c0 2.324 2.274 4.648 5.412 5.196l-.83 1.544c-2.515-.531-4.574-2.05-5.545-4.067-.996 2-3.055 3.527-5.562 4.067l-.813-1.544c3.104-.564 5.362-2.889 5.379-5.196v-1.113h1.959zm5.96 9.512v1.528h-13.713v-1.528zm8.376-7.968c-.017 2.673 1.328 5.395 3.652 6.508l-1.129 1.477c-1.627-.822-2.797-2.407-3.436-4.316-.656 2.042-1.885 3.735-3.603 4.598l-1.129-1.477c2.407-1.146 3.785-4.018 3.802-6.79v-2.391h1.843zm6.391-3.603v5.877h2.308v1.577h-2.308v7.554h-1.843v-15.008zm15.618 7.222v1.477h-13.679v-1.477h3.187v-1.909c-1.129-.473-1.776-1.229-1.776-2.208 0-1.793 2.108-2.856 5.412-2.856s5.395 1.063 5.412 2.856c-.008.987-.656 1.743-1.793 2.208v1.909zm-6.856 2.39c3.237-.016 5.18.947 5.196 2.673-.016 1.743-1.959 2.69-5.196 2.69-3.271 0-5.23-.947-5.23-2.69 0-1.726 1.959-2.689 5.23-2.673m0 1.395c-2.191 0-3.37.432-3.354 1.278-.016.847 1.163 1.295 3.354 1.295 2.142 0 3.337-.448 3.353-1.295-.016-.846-1.211-1.278-3.353-1.278m0-9.33c-2.225 0-3.503.498-3.486 1.428-.017.913 1.261 1.394 3.486 1.394 2.208 0 3.503-.481 3.503-1.394 0-.93-1.295-1.428-3.503-1.428m-1.776 5.545h3.552v-1.428c-.539.075-1.137.116-1.776.116s-1.237-.041-1.776-.116zm11.169-6.442v2.042h3.353v-2.042h1.826v2.74h3.022v-3.52h1.842v8.201h-1.842v-3.154h-3.022v2.689h-7.022v-6.956zm0 5.462h3.353v-1.992h-3.353zm1.992 2.623v1.528h6.209v-1.528h1.842v5.927h-9.894v-5.927zm0 4.433h6.209v-1.478h-6.209zm12.709.232v-1.56l4.25-4.101c1.212-1.212 1.842-1.925 1.842-2.938 0-1.112-.879-1.826-2.058-1.826-1.245 0-2.042.78-2.026 1.992h-2.058c-.017-2.275 1.693-3.752 4.1-3.752 2.458 0 4.118 1.461 4.118 3.486 0 1.362-.664 2.457-3.022 4.682l-2.141 2.125v.083h5.345v1.809zM369.837 330.014c0 3.884-2.358 6.175-5.512 6.175s-5.512-2.307-5.512-6.175c0-3.885 2.358-6.176 5.512-6.176s5.512 2.291 5.512 6.176m-2.175 0c0-2.74-1.378-4.234-3.337-4.234s-3.337 1.494-3.337 4.234c0 2.739 1.378 4.233 3.337 4.233s3.337-1.494 3.337-4.233m13.825 0c0 3.884-2.357 6.175-5.511 6.175s-5.512-2.307-5.512-6.175c0-3.885 2.357-6.176 5.512-6.176s5.511 2.291 5.511 6.176m-2.175 0c0-2.74-1.377-4.234-3.336-4.234s-3.337 1.494-3.337 4.234c0 2.739 1.378 4.233 3.337 4.233s3.336-1.494 3.336-4.233m11.066-3.918c0 2.789 1.328 5.528 3.719 6.574l-1.113 1.477c-1.701-.83-2.897-2.423-3.536-4.382-.656 2.067-1.876 3.785-3.602 4.665l-1.162-1.494c2.44-1.146 3.801-4.035 3.818-6.84v-2.391h1.876zm7.039-3.603v15.025h-1.826v-8.683h-3.154v-1.494h3.154v-4.848zm13.593 0v15.025h-1.86v-15.025zm-9.845 1.229v3.752h3.636v-3.752h1.826v10.259h-7.305v-10.259zm0 8.749h3.636v-3.553h-3.636zm18.806-7.919c0 2.324 2.274 4.648 5.412 5.196l-.83 1.544c-2.515-.531-4.574-2.05-5.545-4.067-.996 2-3.055 3.527-5.562 4.067l-.813-1.544c3.104-.564 5.362-2.889 5.379-5.196v-1.113h1.959zm5.96 9.512v1.528h-13.713v-1.528zm8.376-7.968c-.017 2.673 1.328 5.395 3.652 6.508l-1.129 1.477c-1.627-.822-2.797-2.407-3.436-4.316-.656 2.042-1.885 3.735-3.603 4.598l-1.129-1.477c2.407-1.146 3.785-4.018 3.802-6.79v-2.391h1.843zm6.391-3.603v5.877h2.308v1.577h-2.308v7.554h-1.843v-15.008zm15.618 7.222v1.477h-13.679v-1.477h3.187v-1.909c-1.129-.473-1.776-1.229-1.776-2.208 0-1.793 2.108-2.856 5.412-2.856s5.395 1.063 5.412 2.856c-.008.987-.656 1.743-1.793 2.208v1.909zm-6.856 2.39c3.237-.016 5.18.947 5.196 2.673-.016 1.743-1.959 2.69-5.196 2.69-3.271 0-5.23-.947-5.23-2.69 0-1.726 1.959-2.689 5.23-2.673m0 1.395c-2.191 0-3.37.432-3.354 1.278-.016.847 1.163 1.295 3.354 1.295 2.142 0 3.337-.448 3.353-1.295-.016-.846-1.211-1.278-3.353-1.278m0-9.33c-2.225 0-3.503.498-3.486 1.428-.017.913 1.261 1.394 3.486 1.394 2.208 0 3.503-.481 3.503-1.394 0-.93-1.295-1.428-3.503-1.428m-1.776 5.545h3.552v-1.428c-.539.075-1.137.116-1.776.116s-1.237-.041-1.776-.116zm11.169-6.442v2.042h3.353v-2.042h1.826v2.74h3.022v-3.52h1.842v8.201h-1.842v-3.154h-3.022v2.689h-7.022v-6.956zm0 5.462h3.353v-1.992h-3.353zm1.992 2.623v1.528h6.209v-1.528h1.842v5.927h-9.894v-5.927zm0 4.433h6.209v-1.478h-6.209zm17.075.398c-2.573 0-4.399-1.394-4.449-3.419h2.175c.066.962 1.029 1.593 2.274 1.593 1.328 0 2.274-.73 2.274-1.793 0-1.079-.929-1.859-2.49-1.859h-1.079v-1.66h1.079c1.278 0 2.175-.714 2.158-1.76.017-1.013-.747-1.693-1.925-1.693-1.129 0-2.109.631-2.142 1.643h-2.075c.05-2.025 1.876-3.403 4.233-3.403 2.441 0 4.018 1.494 4.001 3.337.017 1.345-.88 2.324-2.191 2.59v.099c1.693.233 2.656 1.312 2.639 2.823.017 2.025-1.876 3.502-4.482 3.502M667.194 189.997v1.478H661.4v2.755h-1.826v-2.755h-6.093v-1.478zm-1.759-6.823v5.429h-10.21v-5.429zm-8.417 1.444v2.54h6.59v-2.54zm8.666 11.09v1.494h-10.542v-4.349h1.842v2.855zm6.371-12.169c2.374-.017 4.117 1.494 4.133 3.619-.016 2.142-1.759 3.636-4.133 3.636-2.358 0-4.117-1.494-4.117-3.636 0-2.125 1.759-3.636 4.117-3.619m0 1.594c-1.312 0-2.291.78-2.291 2.025 0 1.262.979 2.026 2.291 2.026 1.328 0 2.324-.764 2.324-2.026 0-1.245-.996-2.025-2.324-2.025m7.636-2.64v15.025h-1.842v-15.025zm-12.434 10.376c2.706 0 6.458-.033 9.695-.498l.15 1.345c-3.371.647-6.973.664-9.613.664zM658.86 238.096c-.016 2.673 1.328 5.395 3.653 6.508l-1.129 1.477c-1.627-.822-2.798-2.407-3.437-4.316-.655 2.042-1.884 3.735-3.602 4.598l-1.129-1.477c2.407-1.146 3.785-4.018 3.802-6.79v-2.391h1.842zm6.392-3.603v5.877h2.308v1.577h-2.308v7.554h-1.843v-15.008zm6.105.664c1.943-.016 3.47 1.104 3.852 2.756h2.706v-3.42h1.843v8.052h-1.843v-3.138h-2.689c-.374 1.685-1.918 2.822-3.869 2.822-2.307 0-3.967-1.477-3.967-3.552 0-2.042 1.66-3.536 3.967-3.52m0 1.544c-1.295 0-2.208.764-2.208 1.976 0 1.195.913 1.992 2.208 1.992 1.262 0 2.159-.797 2.175-1.992-.016-1.212-.913-1.976-2.175-1.976m.332 6.541v1.594h6.226v-1.594h1.843v6.076h-9.895v-6.076zm0 4.582h6.226v-1.56h-6.226zm25.144-13.331v15.008h-1.76v-15.008zm-3.055.282v13.996h-1.743v-7.554h-2.158v-1.494h2.158v-4.948zm-5.229 3.819c0 2.54.913 5.08 3.055 6.308l-1.096 1.362c-1.386-.83-2.308-2.258-2.822-3.968-.532 1.851-1.486 3.428-2.906 4.316l-1.129-1.378c2.175-1.311 3.121-4.034 3.121-6.64v-.996h-2.606v-1.494h6.807v1.494h-2.424zm21.993-2.54v1.461H698.29v-1.461h5.23v-1.594h1.826v1.594zm.78 8.035v1.494h-3.32v3.935h-1.859v-3.935h-3.371v3.935h-1.842v-3.935h-3.321v-1.494zm-6.889-5.894c3.171 0 5.08.897 5.08 2.54 0 1.627-1.909 2.54-5.08 2.54s-5.08-.913-5.08-2.54c0-1.643 1.909-2.54 5.08-2.54m0 1.395c-2.076 0-3.171.382-3.155 1.145-.016.747 1.079 1.146 3.155 1.129 2.075.017 3.171-.382 3.171-1.129 0-.763-1.096-1.145-3.171-1.145M666.414 278.493v15.008h-1.76v-15.008zm-3.055.282v13.996h-1.743v-7.554h-2.158v-1.494h2.158v-4.948zm-5.229 3.819c0 2.54.913 5.08 3.055 6.308l-1.096 1.362c-1.386-.83-2.308-2.258-2.822-3.968-.532 1.851-1.486 3.428-2.906 4.316l-1.129-1.378c2.175-1.311 3.122-4.034 3.122-6.64v-.996h-2.607v-1.494h6.807v1.494h-2.424zm22.74 3.005v1.477h-5.943v1.445h4.283v4.797h-10.409v-4.797h4.3v-1.445h-5.911v-1.477zm-1.262-6.658v1.478h-2.058v2.573h1.975v1.494h-11.023v-1.494h1.976v-2.573h-2.059v-1.478zm-8.981 11.007v1.876h6.79v-1.876zm1.693-6.956h3.37v-2.573h-3.37zm25.293 3.005v1.478h-5.794v2.755h-1.826v-2.755H683.9v-1.478zm-1.759-6.823v5.429h-10.21v-5.429zm-8.417 1.444v2.54h6.59v-2.54zm8.666 11.09v1.494h-10.542v-4.349h1.842v2.855zm6.371-12.169c2.374-.017 4.117 1.494 4.133 3.619-.016 2.142-1.759 3.636-4.133 3.636-2.358 0-4.118-1.494-4.118-3.636 0-2.125 1.76-3.636 4.118-3.619m0 1.594c-1.312 0-2.291.78-2.291 2.025 0 1.262.979 2.026 2.291 2.026 1.328 0 2.324-.764 2.324-2.026 0-1.245-.996-2.025-2.324-2.025m7.636-2.64v15.025h-1.842v-15.025zm-12.434 10.376c2.706 0 6.458-.033 9.695-.498l.15 1.345c-3.371.647-6.973.664-9.613.664zM661.882 323.356v.93c0 .963 0 2.308-.365 3.985l-1.81-.15c.266-1.353.324-2.399.349-3.254h-5.827v-1.511zm-3.785 3.321v2.706c1.56-.058 3.146-.158 4.598-.332l.1 1.295c-3.121.531-6.591.614-9.297.614l-.166-1.494c.905 0 1.901-.008 2.939-.033v-2.756zm7.371-4.184v3.835h1.942v1.544h-1.942v3.852h-1.893v-9.231zm-5.03 9.397c3.17.016 5.146 1.046 5.146 2.756 0 1.776-1.976 2.805-5.146 2.805s-5.147-1.029-5.147-2.805c0-1.71 1.976-2.74 5.147-2.756m0 1.427c-2.076 0-3.271.482-3.271 1.329 0 .913 1.195 1.361 3.271 1.361 2.058 0 3.237-.448 3.253-1.361-.016-.847-1.195-1.329-3.253-1.329m19.004-9.446v1.444c-.016 1.86-.016 3.952-.597 7.089l-1.86-.199c.581-2.922.581-5.055.598-6.856h-8.965v-1.478zm1.428 10.177v1.511h-13.68v-1.511h5.047v-5.213h1.826v5.213zm16.743-4.051v1.478h-5.794v2.755h-1.826v-2.755H683.9v-1.478zm-1.759-6.823v5.429h-10.21v-5.429zm-8.417 1.444v2.54h6.59v-2.54zm8.666 11.09v1.494h-10.542v-4.349h1.842v2.855zm6.371-12.169c2.374-.017 4.117 1.494 4.133 3.619-.016 2.142-1.759 3.636-4.133 3.636-2.358 0-4.118-1.494-4.118-3.636 0-2.125 1.76-3.636 4.118-3.619m0 1.594c-1.312 0-2.291.78-2.291 2.025 0 1.262.979 2.026 2.291 2.026 1.328 0 2.324-.764 2.324-2.026 0-1.245-.996-2.025-2.324-2.025m7.636-2.64v15.025h-1.842v-15.025zm-12.434 10.376c2.706 0 6.458-.033 9.695-.498l.15 1.345c-3.371.647-6.973.664-9.613.664zM869.75 183.871v1.444c-.017 1.86-.017 3.952-.598 7.089l-1.859-.199c.581-2.922.581-5.055.598-6.856h-8.965v-1.478zm1.428 10.177v1.511h-13.68v-1.511h5.047v-5.213h1.826v5.213zm12.845-11.538v8.799h-1.759v-3.736h-1.577v3.669h-1.744v-8.45h1.744v3.27h1.577v-3.552zm0 9.413v5.578h-1.842v-4.084h-8.5v-1.494zm-6.292-8.367c.017 3.718-1.876 6.308-5.744 7.885l-.88-1.378c2.922-1.112 4.45-2.813 4.748-5.013h-4.067v-1.494zm19.985-1.063v11.239h-1.76v-11.239zm-3.005.266v10.525h-1.76v-5.711h-2.009v-1.511h2.009v-3.303zm3.42 12.949v1.494h-10.459v-4.814h1.843v3.32zm-8.616-10.144c0 1.744.863 3.503 2.772 4.35l-1.029 1.428c-1.262-.581-2.125-1.594-2.623-2.822-.531 1.377-1.469 2.54-2.839 3.187l-1.013-1.395c1.992-.962 2.939-2.971 2.939-4.748v-2.042h1.793zm21.644-3.071v15.025h-1.826v-8.102h-2.822v-1.494h2.822v-5.429zm-4.881 1.295v1.511h-5.163v2.689h4.566v1.461h-4.566v3.088c2.283-.008 3.993-.083 5.927-.398l.183 1.494c-2.192.332-4.101.415-6.79.431h-1.179v-10.276zM870.065 234.51v10.957h-1.842v-5.495h-2.657v-1.494h2.657v-3.968zm.382 13.198v1.494h-10.226v-4.698h1.842v3.204zm-7.437-10.21c0 1.81 1.212 3.669 3.536 4.433l-.93 1.477c-1.677-.573-2.864-1.71-3.519-3.137-.664 1.585-1.918 2.838-3.686 3.453l-.946-1.495c2.39-.78 3.669-2.755 3.669-4.748v-.398h-3.121v-1.494h8.101v1.494h-3.104zm20.051-3.005v6.193h2.108v1.543h-2.108v7.272h-1.86v-15.008zm-12.053 10.841c1.137 0 2.457 0 3.835-.033v-1.411c-1.635-.274-2.706-1.304-2.69-2.706-.016-1.694 1.478-2.823 3.636-2.823 2.125 0 3.636 1.129 3.652 2.823-.016 1.411-1.104 2.44-2.739 2.706v1.344a43 43 0 0 0 3.702-.332l.117 1.345c-3.221.581-6.691.614-9.248.614zm9.23-9.114v1.461h-8.948v-1.461h3.553v-1.66h1.859v1.66zm-4.449 3.552c-1.145.017-1.893.532-1.893 1.412 0 .863.748 1.378 1.893 1.361 1.129.017 1.876-.498 1.876-1.361 0-.88-.747-1.395-1.876-1.412m10.92 6.757a1.297 1.297 0 0 1-1.295-1.295c0-.697.581-1.278 1.295-1.278a1.3 1.3 0 0 1 1.278 1.278c0 .714-.597 1.295-1.278 1.295m0-6.441a1.297 1.297 0 0 1-1.295-1.295c0-.697.581-1.278 1.295-1.278a1.3 1.3 0 0 1 1.278 1.278c0 .714-.597 1.295-1.278 1.295m10.219-4.084v12.019h-2.175v-9.911h-.066l-2.806 1.793v-1.975l2.972-1.926zm6.188 12.185c-2.407 0-4.167-1.427-4.233-3.419h2.108c.067.979.98 1.676 2.125 1.676 1.345 0 2.308-.979 2.308-2.307 0-1.378-.996-2.358-2.374-2.358-.93-.016-1.611.316-1.992 1.03h-2.009l.73-6.807h7.106v1.809h-5.329l-.366 3.188h.117c.464-.531 1.344-.913 2.324-.913 2.241 0 3.885 1.677 3.885 3.984 0 2.407-1.81 4.117-4.4 4.117m5.674-.166 5.213-10.127v-.083h-6.043v-1.809h8.284v1.843l-5.213 10.176zm8.978 0 5.212-10.127v-.083h-6.042v-1.809h8.284v1.843l-5.213 10.176zm13.675-6.873v1.744h-5.412v-1.744zm5.492 7.039c-2.889 0-4.616-2.241-4.616-6.175 0-3.918 1.727-6.176 4.616-6.176 2.872 0 4.615 2.258 4.615 6.176 0 3.934-1.727 6.175-4.615 6.175m0-1.809c1.51 0 2.44-1.478 2.44-4.366 0-2.872-.946-4.383-2.44-4.383-1.495 0-2.441 1.511-2.441 4.383 0 2.888.93 4.366 2.441 4.366m9.857 1.809c-2.889 0-4.615-2.241-4.615-6.175 0-3.918 1.726-6.176 4.615-6.176 2.872 0 4.615 2.258 4.615 6.176 0 3.934-1.726 6.175-4.615 6.175m0-1.809c1.511 0 2.44-1.478 2.44-4.366 0-2.872-.946-4.383-2.44-4.383s-2.44 1.511-2.44 4.383c0 2.888.929 4.366 2.44 4.366m9.857 1.809c-2.888 0-4.615-2.241-4.615-6.175 0-3.918 1.727-6.176 4.615-6.176 2.872 0 4.616 2.258 4.616 6.176 0 3.934-1.727 6.175-4.616 6.175m0-1.809c1.511 0 2.441-1.478 2.441-4.366 0-2.872-.946-4.383-2.441-4.383s-2.44 1.511-2.44 4.383c0 2.888.93 4.366 2.44 4.366m9.858 1.809c-2.889 0-4.615-2.241-4.615-6.175 0-3.918 1.726-6.176 4.615-6.176 2.872 0 4.615 2.258 4.615 6.176 0 3.934-1.726 6.175-4.615 6.175m0-1.809c1.511 0 2.44-1.478 2.44-4.366 0-2.872-.946-4.383-2.44-4.383s-2.441 1.511-2.441 4.383c0 2.888.93 4.366 2.441 4.366m8.857-2.939c0-3.121.93-5.727 2.49-7.952h1.993c-1.146 1.644-2.291 4.981-2.291 7.952s1.145 6.309 2.291 7.969h-1.993c-1.56-2.241-2.49-4.831-2.49-7.969m4.96 4.582v-1.56l4.25-4.101c1.212-1.212 1.843-1.925 1.843-2.938 0-1.112-.88-1.826-2.059-1.826-1.245 0-2.042.78-2.025 1.992h-2.059c-.016-2.275 1.694-3.752 4.101-3.752 2.457 0 4.117 1.461 4.117 3.486 0 1.362-.664 2.457-3.021 4.682l-2.142 2.125v.083h5.346v1.809zm8.762-2.241v-1.726l5.196-8.052h2.69v8.002h1.577v1.776h-1.577v2.241h-2.059v-2.241zm2.208-1.776h3.652v-5.545h-.133l-3.519 5.462zm13.166-5.91c-.02 2.756 1.42 5.511 3.86 6.557l-1.09 1.478c-1.73-.797-3-2.391-3.69-4.35-.69 2.117-1.97 3.844-3.8 4.698l-1.129-1.543c2.509-1.08 3.969-3.952 3.969-6.84v-2.391h1.88zm6.8-3.603v15.025h-1.86v-15.025zm13.05 0v4.317h2.09v1.544h-2.09v4.963h-1.88v-10.824zm-4.09 1.146c0 3.984-2.59 6.823-7.04 8.118l-.76-1.461c3.43-.988 5.47-2.856 5.79-5.147h-5.16v-1.51zm4.65 12.069v1.494h-10.21v-4.997h1.88v3.503zm16.89-13.198v11.007h-1.84v-3.719h-3.57c-.72.805-1.78 1.295-2.99 1.295-2.25 0-3.96-1.627-3.96-3.835 0-2.241 1.71-3.852 3.96-3.852 1.2 0 2.25.482 2.97 1.279h3.59v-2.175zm.39 13.198v1.494h-10.23v-4.814h1.84v3.32zm-8.79-10.658c-1.29 0-2.2.863-2.2 2.208 0 1.328.91 2.191 2.2 2.191 1.23 0 2.16-.863 2.18-2.191-.02-1.345-.95-2.208-2.18-2.208m3.79 1.129c.09.34.15.697.15 1.079 0 .365-.05.714-.13 1.046h2.75v-2.125zm19.42 3.204v1.494h-5.95v1.245c2.69.183 4.27 1.112 4.29 2.673-.02 1.726-1.96 2.689-5.2 2.689-3.27 0-5.23-.963-5.23-2.689 0-1.561 1.6-2.499 4.32-2.673v-1.245h-5.91v-1.494zm-6.86 4.134c-2.19.016-3.37.448-3.35 1.278-.02.83 1.16 1.278 3.35 1.278 2.14 0 3.34-.448 3.36-1.278-.02-.83-1.22-1.262-3.36-1.278m5.63-10.36v1.478h-4.32c.29 1.237 2.09 2.349 4.9 2.606l-.65 1.461c-2.72-.274-4.74-1.361-5.56-2.889-.81 1.52-2.8 2.615-5.53 2.889l-.63-1.461c2.76-.257 4.55-1.386 4.87-2.606h-4.29v-1.478zm14.94 7.836v1.494h-5.98v4.997h-1.83v-4.997h-5.91v-1.494zm-1.68-7.736v5.976h-10.36v-5.976zm-8.55 1.477v3.055h6.71v-3.055zm23.16-.68v1.461h-12.26v-1.461h5.23v-1.594h1.83v1.594zm.78 8.035v1.494h-3.32v3.935h-1.86v-3.935h-3.37v3.935h-1.85v-3.935h-3.32v-1.494zm-6.89-5.894c3.17 0 5.08.897 5.08 2.54 0 1.627-1.91 2.54-5.08 2.54s-5.08-.913-5.08-2.54c0-1.643 1.91-2.54 5.08-2.54m0 1.395c-2.08 0-3.17.382-3.16 1.145-.01.747 1.08 1.146 3.16 1.129 2.07.017 3.17-.382 3.17-1.129 0-.763-1.1-1.145-3.17-1.145m11.33 3.851c0 3.138-.93 5.728-2.49 7.969h-1.99c1.14-1.66 2.29-4.997 2.29-7.969 0-2.971-1.15-6.308-2.29-7.952h1.99c1.56 2.225 2.49 4.831 2.49 7.952M869.982 278.493v15.025h-1.859v-15.025zm-8.085 1.096c2.258 0 3.902 2.058 3.918 5.296-.016 3.27-1.66 5.312-3.918 5.312-2.274 0-3.918-2.042-3.918-5.312 0-3.238 1.644-5.296 3.918-5.296m0 1.66c-1.278 0-2.141 1.345-2.141 3.636 0 2.307.863 3.652 2.141 3.652 1.262 0 2.125-1.345 2.125-3.652 0-2.291-.863-3.636-2.125-3.636m15.652-1.129v3.901h1.743v-5.262h1.76v14.012h-1.76v-7.255h-1.743v4.117h-5.894v-9.513zm-4.167 1.461v6.591h2.44v-6.591zm10.758-3.088v15.008h-1.777v-15.008zm4.993.482c2.274 0 3.968 1.411 3.984 3.386-.016 1.993-1.71 3.387-3.984 3.387-2.291 0-3.985-1.394-3.985-3.387 0-1.975 1.694-3.386 3.985-3.386m0 1.527c-1.262 0-2.192.714-2.192 1.859 0 1.162.93 1.893 2.192 1.893s2.191-.731 2.191-1.893c0-1.145-.929-1.859-2.191-1.859m8.251-2.009v7.587h-1.86v-7.587zm0 8.235v3.918h-8.118v1.211h8.566v1.461h-10.376v-4.034h8.085v-1.112h-8.118v-1.444zm3.017 3.801a1.297 1.297 0 0 1-1.295-1.295c0-.697.582-1.278 1.295-1.278.681 0 1.279.581 1.279 1.278 0 .714-.598 1.295-1.279 1.295m0-6.441a1.297 1.297 0 0 1-1.295-1.295c0-.697.582-1.278 1.295-1.278.681 0 1.279.581 1.279 1.278 0 .714-.598 1.295-1.279 1.295m4.94 5.395c0-2.025 1.677-2.623 3.353-2.722.623-.042 1.918-.116 2.308-.133v-.714c0-.896-.581-1.411-1.627-1.411-.946 0-1.527.432-1.693 1.079h-2.042c.149-1.527 1.527-2.689 3.785-2.689 1.71 0 3.685.697 3.685 3.104v6.026h-2.025v-1.245h-.066c-.399.764-1.246 1.428-2.657 1.428-1.726 0-3.021-.946-3.021-2.723m2.042-.016c0 .78.631 1.179 1.527 1.179 1.278 0 2.109-.847 2.109-1.86v-.747l-1.993.133c-1.012.083-1.643.498-1.643 1.295m6.305.016c0-2.025 1.676-2.623 3.353-2.722.623-.042 1.917-.116 2.308-.133v-.714c0-.896-.581-1.411-1.627-1.411-.947 0-1.528.432-1.694 1.079h-2.042c.15-1.527 1.528-2.689 3.785-2.689 1.71 0 3.686.697 3.686 3.104v6.026h-2.025v-1.245h-.067c-.398.764-1.245 1.428-2.656 1.428-1.727 0-3.021-.946-3.021-2.723m2.041-.016c0 .78.631 1.179 1.528 1.179 1.278 0 2.108-.847 2.108-1.86v-.747l-1.992.133c-1.013.083-1.644.498-1.644 1.295m6.305.016c0-2.025 1.677-2.623 3.354-2.722.622-.042 1.917-.116 2.307-.133v-.714c0-.896-.581-1.411-1.627-1.411-.946 0-1.527.432-1.693 1.079h-2.042c.149-1.527 1.527-2.689 3.785-2.689 1.71 0 3.686.697 3.686 3.104v6.026h-2.026v-1.245h-.066c-.399.764-1.245 1.428-2.656 1.428-1.727 0-3.022-.946-3.022-2.723m2.042-.016c0 .78.631 1.179 1.528 1.179 1.278 0 2.108-.847 2.108-1.86v-.747l-1.992.133c-1.013.083-1.644.498-1.644 1.295m6.305.016c0-2.025 1.677-2.623 3.353-2.722.623-.042 1.918-.116 2.308-.133v-.714c0-.896-.581-1.411-1.627-1.411-.946 0-1.527.432-1.693 1.079h-2.042c.149-1.527 1.527-2.689 3.785-2.689 1.71 0 3.685.697 3.685 3.104v6.026h-2.025v-1.245h-.066c-.399.764-1.246 1.428-2.657 1.428-1.726 0-3.021-.946-3.021-2.723m2.042-.016c0 .78.631 1.179 1.527 1.179 1.279 0 2.109-.847 2.109-1.86v-.747l-1.993.133c-1.012.083-1.643.498-1.643 1.295m12.597.88c-1.544 0-2.723-1.212-2.723-3.404 0-2.224 1.228-3.386 2.723-3.386 1.079 0 1.61.647 1.826 1.112h.083v-.963h1.61v4.433c.017.564.249.83.697.83.847 0 1.395-.98 1.395-2.457.016-2.889-2.026-4.782-5.047-4.782-3.088 0-5.063 2.242-5.063 5.213 0 3.221 1.726 5.246 5.013 5.23 1.179 0 2.059-.1 3.005-.349v1.528c-.88.249-1.909.398-3.005.398-4.167 0-6.591-2.656-6.591-6.807-.016-3.934 2.74-6.79 6.641-6.79 3.918 0 6.641 2.673 6.641 6.309 0 2.523-1.279 3.968-3.138 3.968-1.104 0-1.934-.532-2.092-1.279h-.083c-.216.465-.764 1.196-1.892 1.196m.498-1.528c.946.017 1.444-.73 1.444-1.876s-.498-1.876-1.444-1.876c-.914 0-1.428.781-1.412 1.876-.016 1.096.515 1.876 1.412 1.876m7.101.664c0-2.025 1.677-2.623 3.354-2.722.622-.042 1.917-.116 2.307-.133v-.714c0-.896-.581-1.411-1.627-1.411-.946 0-1.527.432-1.693 1.079h-2.042c.149-1.527 1.527-2.689 3.785-2.689 1.71 0 3.686.697 3.686 3.104v6.026h-2.026v-1.245h-.066c-.399.764-1.245 1.428-2.656 1.428-1.727 0-3.022-.946-3.022-2.723m2.042-.016c0 .78.631 1.179 1.527 1.179 1.279 0 2.109-.847 2.109-1.86v-.747l-1.992.133c-1.013.083-1.644.498-1.644 1.295m6.305.016c0-2.025 1.677-2.623 3.353-2.722.623-.042 1.918-.116 2.308-.133v-.714c0-.896-.581-1.411-1.627-1.411-.946 0-1.527.432-1.693 1.079h-2.042c.149-1.527 1.527-2.689 3.785-2.689 1.71 0 3.685.697 3.685 3.104v6.026h-2.025v-1.245h-.066c-.399.764-1.246 1.428-2.657 1.428-1.726 0-3.021-.946-3.021-2.723m2.042-.016c0 .78.631 1.179 1.527 1.179 1.278 0 2.109-.847 2.109-1.86v-.747l-1.993.133c-1.012.083-1.643.498-1.643 1.295m6.304.016c0-2.025 1.677-2.623 3.354-2.722.623-.042 1.917-.116 2.308-.133v-.714c0-.896-.581-1.411-1.627-1.411-.947 0-1.528.432-1.694 1.079h-2.042c.15-1.527 1.528-2.689 3.785-2.689 1.71 0 3.686.697 3.686 3.104v6.026h-2.025v-1.245h-.067c-.398.764-1.245 1.428-2.656 1.428-1.727 0-3.022-.946-3.022-2.723m2.042-.016c0 .78.631 1.179 1.528 1.179 1.278 0 2.108-.847 2.108-1.86v-.747l-1.992.133c-1.013.083-1.644.498-1.644 1.295m8.032 2.689a1.297 1.297 0 0 1-1.295-1.295c0-.697.581-1.278 1.295-1.278a1.3 1.3 0 0 1 1.278 1.278c0 .714-.598 1.295-1.278 1.295m1.905-2.673c0-2.025 1.677-2.623 3.354-2.722.622-.042 1.917-.116 2.307-.133v-.714c0-.896-.581-1.411-1.627-1.411-.946 0-1.527.432-1.693 1.079h-2.042c.149-1.527 1.527-2.689 3.785-2.689 1.71 0 3.686.697 3.686 3.104v6.026h-2.026v-1.245h-.066c-.399.764-1.245 1.428-2.657 1.428-1.726 0-3.021-.946-3.021-2.723m2.042-.016c0 .78.631 1.179 1.527 1.179 1.279 0 2.109-.847 2.109-1.86v-.747l-1.992.133c-1.013.083-1.644.498-1.644 1.295m6.305.016c0-2.025 1.676-2.623 3.353-2.722.623-.042 1.918-.116 2.308-.133v-.714c0-.896-.581-1.411-1.627-1.411-.946 0-1.527.432-1.693 1.079h-2.042c.149-1.527 1.527-2.689 3.785-2.689 1.71 0 3.685.697 3.685 3.104v6.026h-2.025v-1.245h-.067c-.398.764-1.245 1.428-2.656 1.428-1.726 0-3.021-.946-3.021-2.723m2.042-.016c0 .78.631 1.179 1.527 1.179 1.278 0 2.108-.847 2.108-1.86v-.747l-1.992.133c-1.012.083-1.643.498-1.643 1.295m6.304.016c0-2.025 1.677-2.623 3.356-2.722.62-.042 1.92-.116 2.31-.133v-.714c0-.896-.59-1.411-1.63-1.411-.95 0-1.53.432-1.69 1.079h-2.047c.15-1.527 1.528-2.689 3.787-2.689 1.71 0 3.68.697 3.68 3.104v6.026h-2.02v-1.245h-.07c-.4.764-1.24 1.428-2.65 1.428-1.731 0-3.026-.946-3.026-2.723m2.046-.016c0 .78.63 1.179 1.52 1.179 1.28 0 2.11-.847 2.11-1.86v-.747l-1.99.133c-1.01.083-1.64.498-1.64 1.295M128.617 416.341v1.494h-10.426v-5.628h1.843v4.134zm1.561 3.337v1.494h-3.287v5.329h-1.86v-5.329h-3.386v5.329h-1.843v-5.329h-3.304v-1.494zm7.367-7.156v4.649h-4.914v1.892c2.482-.008 4.142-.091 6.01-.398l.149 1.511c-2.075.315-3.901.382-6.79.382h-1.229v-4.815h4.931V414h-4.947v-1.478zm5.213-1.012v11.04h-1.843v-5.778h-2.557v-1.56h2.557v-3.702zm.398 13.198v1.494H132.83v-4.532h1.843v3.038zm14.44-1.561v1.495h-13.713v-1.495h5.877v-3.469h1.826v3.469zm-5.96-9.645c0 2.274 2.274 4.516 5.428 5.014l-.796 1.527c-2.54-.481-4.616-1.934-5.612-3.901-.996 1.959-3.054 3.436-5.578 3.901l-.797-1.527c3.138-.498 5.379-2.756 5.396-5.014v-1.096h1.959zm19.652 9.645v1.544h-13.713v-1.544zm-1.195-10.259v1.477h-2.192v4.781h2.142v1.461h-11.289v-1.461h2.108v-4.781h-2.158v-1.477zm-7.388 6.258h3.37v-4.781h-3.37zm20.765.216v1.461h-10.526v-8.151h10.393v1.494h-8.517v1.81h8.168v1.444h-8.168v1.942zm1.51 3.802v1.511h-13.712v-1.511zM121.86 459.096c-.016 2.673 1.328 5.395 3.653 6.508l-1.129 1.477c-1.627-.822-2.798-2.407-3.437-4.316-.655 2.042-1.884 3.735-3.602 4.598l-1.129-1.477c2.407-1.146 3.785-4.018 3.802-6.79v-2.391h1.842zm6.392-3.603v5.877h2.308v1.577h-2.308v7.554h-1.843v-15.008zm6.105.664c1.943-.016 3.47 1.104 3.852 2.756h2.706v-3.42h1.843v8.052h-1.843v-3.138h-2.689c-.374 1.685-1.918 2.822-3.869 2.822-2.307 0-3.967-1.477-3.967-3.552 0-2.042 1.66-3.536 3.967-3.52m0 1.544c-1.295 0-2.208.764-2.208 1.976 0 1.195.913 1.992 2.208 1.992 1.262 0 2.159-.797 2.175-1.992-.016-1.212-.913-1.976-2.175-1.976m.332 6.541v1.594h6.226v-1.594h1.843v6.076h-9.895v-6.076zm0 4.582h6.226v-1.56h-6.226zm14.573-9.064c0 2.324 1.378 4.964 3.752 6.059l-1.03 1.461c-1.693-.797-2.946-2.407-3.619-4.283-.68 2.059-1.992 3.818-3.719 4.649l-1.079-1.445c2.391-1.129 3.835-3.951 3.852-6.441v-1.262h-3.271v-1.527h8.251v1.527h-3.137zm6.375-4.267v5.844h2.307v1.544h-2.307v7.62h-1.843v-15.008zm18.669 6.956v1.511h-13.697v-1.511zm-1.577-2.656v1.478h-10.443v-5.296h10.36v1.494h-8.517v2.324zm-5.296 5.213c3.237-.017 5.179.979 5.196 2.723-.017 1.759-1.959 2.755-5.196 2.755-3.271 0-5.23-.996-5.23-2.755 0-1.744 1.959-2.74 5.23-2.723m0 1.411c-2.192 0-3.371.465-3.354 1.312-.017.879 1.162 1.328 3.354 1.328 2.141 0 3.337-.449 3.353-1.328-.016-.847-1.212-1.312-3.353-1.312m20.565-2.806v1.494h-13.713v-1.494h5.944v-1.245h-4.201v-3.984h8.434v-1.112h-8.483v-1.445h10.326v3.902h-8.451v1.195h8.75v1.444h-4.549v1.245zm-1.61 2.441v4.349h-1.86v-2.888h-8.716v-1.461zm14.174-10.542v11.073h-1.843v-5.528h-3.022v3.088h-7.022v-7.654h1.843v2.424h3.353v-2.424h1.826v3.072h3.022v-4.051zm.332 13.198v1.494h-10.227v-4.715h1.876v3.221zm-10.376-6.026h3.353v-2.341h-3.353zm24.184-5.18v1.494h-12.401v-1.494h5.296v-1.81h1.826v1.81zm.697 9.894v1.495h-13.712v-1.495h5.91v-1.842c-2.598-.208-4.167-1.245-4.151-2.906-.016-1.809 1.926-2.888 5.064-2.888 3.088 0 5.047 1.079 5.047 2.888 0 1.652-1.578 2.69-4.134 2.889v1.859zm-6.889-6.192c-2.042.017-3.188.498-3.171 1.444-.017.963 1.129 1.445 3.171 1.461 2.009-.016 3.154-.498 3.154-1.461 0-.946-1.145-1.427-3.154-1.444m11.729 6.325a1.297 1.297 0 0 1-1.295-1.295c0-.697.581-1.278 1.295-1.278.681 0 1.279.581 1.279 1.278 0 .714-.598 1.295-1.279 1.295m0-6.441a1.297 1.297 0 0 1-1.295-1.295c0-.697.581-1.278 1.295-1.278.681 0 1.279.581 1.279 1.278 0 .714-.598 1.295-1.279 1.295m9.605 8.101c-2.407 0-4.167-1.427-4.234-3.419h2.109c.066.979.979 1.676 2.125 1.676 1.344 0 2.307-.979 2.307-2.307 0-1.378-.996-2.358-2.374-2.358-.929-.016-1.61.316-1.992 1.03h-2.009l.731-6.807h7.105v1.809h-5.329l-.365 3.188h.116c.465-.531 1.345-.913 2.324-.913 2.242 0 3.885 1.677 3.885 3.984 0 2.407-1.809 4.117-4.399 4.117m9.492 0c-2.407 0-4.167-1.427-4.233-3.419h2.108c.066.979.979 1.676 2.125 1.676 1.345 0 2.308-.979 2.308-2.307 0-1.378-.997-2.358-2.374-2.358-.93-.016-1.611.316-1.993 1.03h-2.008l.73-6.807h7.105v1.809h-5.329l-.365 3.188h.116c.465-.531 1.345-.913 2.325-.913 2.241 0 3.884 1.677 3.884 3.984 0 2.407-1.809 4.117-4.399 4.117m9.492 0c-2.407 0-4.167-1.427-4.233-3.419h2.108c.067.979.98 1.676 2.125 1.676 1.345 0 2.308-.979 2.308-2.307 0-1.378-.996-2.358-2.374-2.358-.93-.016-1.611.316-1.992 1.03h-2.009l.73-6.807h7.106v1.809h-5.329l-.366 3.188h.117c.464-.531 1.344-.913 2.324-.913 2.241 0 3.885 1.677 3.885 3.984 0 2.407-1.81 4.117-4.4 4.117m10.704-7.039v1.744h-5.412v-1.744zm5.558 7.039c-2.341-.016-4.698-1.411-4.682-5.843 0-4.117 1.876-6.508 4.815-6.508 2.324 0 3.918 1.461 4.183 3.403h-2.141c-.216-.913-.947-1.527-2.042-1.527-1.744 0-2.723 1.544-2.723 4.067h.116c.614-1.029 1.777-1.643 3.088-1.643 2.158 0 3.818 1.627 3.818 3.901 0 2.391-1.776 4.167-4.432 4.15m0-1.743c1.345 0 2.341-1.046 2.341-2.357 0-1.278-.98-2.308-2.308-2.308a2.37 2.37 0 0 0-2.391 2.324c.017 1.262.997 2.341 2.358 2.341m9.625 1.743c-2.673 0-4.566-1.427-4.566-3.386 0-1.528 1.129-2.773 2.574-3.005v-.067c-1.262-.265-2.125-1.361-2.125-2.672 0-1.86 1.743-3.221 4.117-3.221 2.357 0 4.1 1.361 4.1 3.221 0 1.311-.879 2.407-2.125 2.672v.067c1.445.232 2.59 1.477 2.59 3.005 0 1.959-1.909 3.386-4.565 3.386m0-1.71c1.411 0 2.341-.763 2.341-1.875 0-1.129-.996-1.959-2.341-1.959-1.361 0-2.358.83-2.341 1.959-.017 1.112.913 1.875 2.341 1.875m0-5.445c1.162 0 1.992-.73 1.992-1.776 0-1.013-.813-1.727-1.992-1.727-1.195 0-2.009.698-2.009 1.727 0 1.046.83 1.776 2.009 1.776m10.837.116v1.744h-5.412v-1.744zm5.491 7.039c-2.889 0-4.615-2.241-4.615-6.175 0-3.918 1.726-6.176 4.615-6.176 2.872 0 4.615 2.258 4.615 6.176 0 3.934-1.726 6.175-4.615 6.175m0-1.809c1.511 0 2.44-1.478 2.44-4.366 0-2.872-.946-4.383-2.44-4.383s-2.44 1.511-2.44 4.383c0 2.888.929 4.366 2.44 4.366m9.857 1.809c-2.888 0-4.615-2.241-4.615-6.175 0-3.918 1.727-6.176 4.615-6.176 2.872 0 4.616 2.258 4.616 6.176 0 3.934-1.727 6.175-4.616 6.175m0-1.809c1.511 0 2.441-1.478 2.441-4.366 0-2.872-.946-4.383-2.441-4.383s-2.44 1.511-2.44 4.383c0 2.888.93 4.366 2.44 4.366m5.209-.598v-1.726l5.197-8.052h2.689v8.002h1.577v1.776h-1.577v2.241h-2.058v-2.241zm2.208-1.776h3.653v-5.545h-.133l-3.52 5.462zm8.43 4.017 5.213-10.127v-.083h-6.043v-1.809h8.284v1.843l-5.213 10.176zm12.298.166c-2.407 0-4.167-1.427-4.233-3.419h2.108c.066.979.979 1.676 2.125 1.676 1.345 0 2.308-.979 2.308-2.307 0-1.378-.997-2.358-2.374-2.358-.93-.016-1.611.316-1.993 1.03h-2.008l.73-6.807h7.105v1.809h-5.329l-.365 3.188h.116c.465-.531 1.345-.913 2.325-.913 2.241 0 3.884 1.677 3.884 3.984 0 2.407-1.809 4.117-4.399 4.117m11.132-13.878v15.406h-1.976v-15.406zm17.341.182v15.008h-1.76v-7.653h-1.694v6.889h-1.693v-13.962h1.693v5.595h1.694v-5.877zm-6.84 1.777v1.494h-3.752v6.674c1.635-.017 2.98-.1 4.499-.382l.133 1.51c-1.81.366-3.387.415-5.479.432h-1.013v-9.728zm21.329 10.01v1.494h-13.713v-1.494h3.553v-3.088h-2.374v-1.494h2.108v-4.449h-2.158v-1.478h11.389v1.478h-2.192v4.449h2.142v1.494h-2.374v3.088zm-8.583-4.582h3.37v-4.449h-3.37zm.265 4.582h2.856v-3.088h-2.856zm13.158.249a1.297 1.297 0 0 1-1.295-1.295c0-.697.581-1.278 1.295-1.278a1.3 1.3 0 0 1 1.278 1.278c0 .714-.598 1.295-1.278 1.295m0-6.441a1.297 1.297 0 0 1-1.295-1.295c0-.697.581-1.278 1.295-1.278a1.3 1.3 0 0 1 1.278 1.278c0 .714-.598 1.295-1.278 1.295m10.75 2.44v2.424a41 41 0 0 0 3.851-.365l.15 1.361c-3.37.614-6.973.648-9.613.648l-.232-1.494c1.17-.009 2.548-.017 4.001-.067v-2.507zm3.237-6.192v1.494h-3.204c.083 1.602 1.353 3.046 3.619 3.619l-.847 1.445c-1.776-.482-3.046-1.519-3.718-2.856-.664 1.411-1.918 2.49-3.703 2.972l-.879-1.395c2.266-.622 3.511-2.1 3.619-3.785h-3.171v-1.494h3.204v-1.71h1.843v1.71zm3.354-1.843v15.025h-1.843v-15.025zm5.358.847c1.212 0 2.258.448 2.972 1.195h3.586v-2.042h1.842v8.832h-1.842v-1.909h-3.586c-.714.747-1.768 1.187-2.972 1.179-2.258.016-3.968-1.511-3.968-3.619 0-2.125 1.71-3.636 3.968-3.636m0 1.577c-1.295 0-2.208.797-2.208 2.059 0 1.228.913 2.058 2.208 2.058 1.245 0 2.158-.83 2.175-2.058-.017-1.262-.93-2.059-2.175-2.059m3.32 6.724c3.155 0 5.13 1.079 5.13 2.921 0 1.843-1.975 2.922-5.13 2.922-3.137 0-5.113-1.079-5.096-2.922-.017-1.842 1.959-2.921 5.096-2.921m0 1.411c-2.092 0-3.304.531-3.287 1.51-.017.947 1.195 1.478 3.287 1.478 2.125 0 3.321-.531 3.321-1.478 0-.979-1.196-1.51-3.321-1.51m.482-7.039c.083.307.132.622.132.963 0 .332-.049.647-.116.946h2.74v-1.909zm18.739-3.52v15.008h-1.76v-7.604h-1.544v6.874h-1.743v-14.012h1.743v5.611h1.544v-5.877zm-8.351 3.835c0 2.673.897 5.13 3.121 6.276l-1.079 1.411c-1.427-.764-2.365-2.084-2.888-3.719-.515 1.868-1.453 3.37-2.939 4.25l-1.129-1.411c2.225-1.262 3.121-3.885 3.121-6.807v-.714h-2.672v-1.477h6.922v1.477h-2.457zM122.043 503.096c0 2.789 1.328 5.528 3.719 6.574l-1.113 1.477c-1.701-.83-2.897-2.423-3.536-4.382-.655 2.067-1.876 3.785-3.602 4.665l-1.162-1.494c2.44-1.146 3.801-4.035 3.818-6.84v-2.391h1.876zm7.039-3.603v15.025h-1.826v-8.683h-3.154v-1.494h3.154v-4.848zm7.932.15c3.42 0 5.395.913 5.412 2.573-.017 1.677-1.992 2.573-5.412 2.59-3.42-.017-5.412-.913-5.412-2.59 0-1.66 1.992-2.573 5.412-2.573m0 1.378c-2.291 0-3.487.415-3.47 1.195-.017.83 1.179 1.212 3.47 1.228 2.324-.016 3.503-.398 3.503-1.228 0-.78-1.179-1.195-3.503-1.195m6.856 4.565v1.444h-5.943v1.146h4.233v3.669h-8.533v1.112h8.948v1.411h-10.758v-3.835h8.534v-.996h-8.55v-1.361h4.283v-1.146h-5.894v-1.444zm13.692 1.76v1.444H143.85v-1.444zm-1.726 2.59v4.565h-1.859v-3.088h-8.583v-1.477zm.199-5.114v1.411h-10.426v-6.375h10.31v1.445h-8.467v1.029h8.102v1.378h-8.102v1.112zm14.108-5.329v7.753H168.3v-1.627h-3.022v1.146h-7.022v-6.608h1.843v1.893h3.353v-1.893h1.826v1.328h3.022v-1.992zm0 8.367v3.852h-8.036v1.145h8.517v1.461h-10.359v-3.967h8.035v-1.046h-8.052v-1.445zm-10.044-2.556h3.353v-1.843h-3.353zm5.179-1.096h3.022v-1.328h-3.022zm11.667-1.112c-.016 2.756 1.428 5.511 3.868 6.557l-1.095 1.478c-1.727-.797-2.997-2.391-3.686-4.35-.689 2.117-1.975 3.844-3.802 4.698l-1.128-1.543c2.506-1.08 3.967-3.952 3.967-6.84v-2.391h1.876zm6.807-3.603v15.025h-1.859v-15.025zm9.787 3.603c0 2.789 1.328 5.528 3.719 6.574l-1.112 1.477c-1.702-.83-2.897-2.423-3.537-4.382-.655 2.067-1.876 3.785-3.602 4.665l-1.162-1.494c2.44-1.146 3.801-4.035 3.818-6.84v-2.391h1.876zm7.039-3.603v15.025h-1.826v-8.683h-3.154v-1.494h3.154v-4.848zm14.025 0v15.008h-1.76v-7.653h-1.694v6.889h-1.693v-13.962h1.693v5.595h1.694v-5.877zm-6.84 1.777v1.494h-3.752v6.674c1.635-.017 2.98-.1 4.499-.382l.133 1.51c-1.81.366-3.387.415-5.479.432h-1.013v-9.728zm21.312 5.727v1.478h-5.794v2.755h-1.826v-2.755h-6.093v-1.478zm-1.76-6.823v5.429h-10.21v-5.429zm-8.417 1.444v2.54h6.591v-2.54zm8.666 11.09v1.494h-10.542v-4.349h1.843v2.855zm13.51-12.302v1.345c0 1.403 0 2.938-.398 5.063h2.075v1.495h-5.96v6.209h-1.859v-6.209h-5.861v-1.495h9.729c.415-2.042.431-3.569.431-4.914h-8.549v-1.494zm17.225-.896v10.957h-1.86V499.51zm.415 13.198v1.494h-10.343v-4.781h1.859v3.287zm-7.321-10.907c0 2.092 1.228 4.067 3.602 4.864l-.946 1.461c-1.71-.598-2.93-1.793-3.586-3.32-.681 1.635-1.918 2.946-3.686 3.586l-.963-1.461c2.441-.864 3.669-2.972 3.669-5.13v-1.461h1.91zm21.777 5.827v1.494h-13.68v-1.494h5.91v-1.743h1.827v1.743zm-5.943-8.118v1.527h4.598v1.444h-4.466c.208 1.337 1.993 2.457 5.114 2.74l-.598 1.427c-2.648-.257-4.624-1.153-5.562-2.523-.938 1.37-2.913 2.266-5.561 2.523l-.598-1.427c3.105-.283 4.889-1.403 5.114-2.74h-4.433v-1.444h4.565v-1.527zm4.399 13.198v1.494h-10.442v-4.117h1.842v2.623zm14.124-3.636v5.429h-1.843v-3.968h-8.384v-1.461zm0-9.579v8.865h-1.843v-1.992h-3.519c-.714.797-1.793 1.279-3.038 1.279-2.258 0-3.968-1.528-3.968-3.686 0-2.125 1.71-3.652 3.968-3.636 1.236-.008 2.316.457 3.021 1.245h3.536v-2.075zm-8.4 2.391c-1.295 0-2.208.83-2.208 2.075 0 1.295.913 2.108 2.208 2.125 1.228-.017 2.158-.83 2.174-2.125-.016-1.245-.946-2.075-2.174-2.075m3.818 2.988h2.739v-1.793h-2.722c.058.282.099.573.099.88 0 .315-.041.623-.116.913m19.42 6.358v1.528h-13.713v-1.528h5.91v-2.44h-4.283v-4.914h8.633v-1.859h-8.666v-1.495h10.492v4.815h-8.616v1.942h8.965v1.511h-4.699v2.44zm7.878 1.959c-2.573 0-4.4-1.394-4.449-3.419h2.174c.067.962 1.03 1.593 2.275 1.593 1.328 0 2.274-.73 2.274-1.793 0-1.079-.929-1.859-2.49-1.859h-1.079v-1.66h1.079c1.278 0 2.175-.714 2.158-1.76.017-1.013-.747-1.693-1.926-1.693-1.128 0-2.108.631-2.141 1.643h-2.075c.049-2.025 1.876-3.403 4.233-3.403 2.44 0 4.018 1.494 4.001 3.337.017 1.345-.88 2.324-2.191 2.59v.099c1.693.233 2.656 1.312 2.639 2.823.017 2.025-1.876 3.502-4.482 3.502m9.807 0c-2.888 0-4.615-2.241-4.615-6.175 0-3.918 1.727-6.176 4.615-6.176 2.873 0 4.616 2.258 4.616 6.176 0 3.934-1.727 6.175-4.616 6.175m0-1.809c1.511 0 2.441-1.478 2.441-4.366 0-2.872-.946-4.383-2.441-4.383s-2.44 1.511-2.44 4.383c0 2.888.93 4.366 2.44 4.366m7.368.465-1.395 4.648h-1.577l.863-4.648zm3.943 1.178v-1.56l4.25-4.101c1.212-1.212 1.843-1.925 1.843-2.938 0-1.112-.88-1.826-2.059-1.826-1.245 0-2.042.78-2.025 1.992h-2.059c-.016-2.275 1.694-3.752 4.101-3.752 2.457 0 4.117 1.461 4.117 3.486 0 1.362-.664 2.457-3.022 4.682l-2.141 2.125v.083h5.346v1.809zm22.425-6.059v1.494h-13.68v-1.494zm-5.944-7.438v1.362h4.599v1.461h-4.449c.224 1.228 1.992 2.257 5.113 2.473l-.564 1.411c-2.69-.207-4.674-1.045-5.612-2.34-.938 1.295-2.938 2.133-5.611 2.34l-.564-1.411c3.104-.216 4.872-1.245 5.113-2.473h-4.416v-1.461h4.565v-1.362zm-.913 9.895c3.271 0 5.18.896 5.197 2.54-.017 1.627-1.926 2.523-5.197 2.523-3.287 0-5.229-.896-5.229-2.523 0-1.644 1.942-2.54 5.229-2.54m0 1.378c-2.208 0-3.37.382-3.353 1.162-.017.764 1.145 1.145 3.353 1.145 2.159 0 3.337-.381 3.354-1.145-.017-.78-1.195-1.162-3.354-1.162m14.768 2.39c-2.573 0-4.399-1.394-4.449-3.419h2.175c.066.962 1.029 1.593 2.274 1.593 1.328 0 2.274-.73 2.274-1.793 0-1.079-.929-1.859-2.49-1.859h-1.079v-1.66h1.079c1.278 0 2.175-.714 2.158-1.76.017-1.013-.747-1.693-1.925-1.693-1.129 0-2.109.631-2.142 1.643h-2.075c.05-2.025 1.876-3.403 4.233-3.403 2.441 0 4.018 1.494 4.001 3.337.017 1.345-.88 2.324-2.191 2.59v.099c1.693.233 2.656 1.312 2.639 2.823.017 2.025-1.876 3.502-4.482 3.502m10.853-7.039v1.744h-5.412v-1.744zm.644 6.873v-1.56l4.25-4.101c1.212-1.212 1.843-1.925 1.843-2.938 0-1.112-.88-1.826-2.059-1.826-1.245 0-2.042.78-2.025 1.992h-2.059c-.016-2.275 1.694-3.752 4.101-3.752 2.457 0 4.117 1.461 4.117 3.486 0 1.362-.664 2.457-3.022 4.682l-2.141 2.125v.083h5.346v1.809zm21.761-11.521v1.494h-12.402v-1.494h5.296v-1.81h1.826v1.81zm.697 9.894v1.495h-13.713v-1.495h5.91v-1.842c-2.598-.208-4.167-1.245-4.15-2.906-.017-1.809 1.926-2.888 5.063-2.888 3.088 0 5.047 1.079 5.047 2.888 0 1.652-1.577 2.69-4.134 2.889v1.859zm-6.89-6.192c-2.042.017-3.187.498-3.171 1.444-.016.963 1.129 1.445 3.171 1.461 2.009-.016 3.155-.498 3.155-1.461 0-.946-1.146-1.427-3.155-1.444M128.982 543.493v15.025h-1.859v-15.025zm-8.085 1.096c2.258 0 3.902 2.058 3.918 5.296-.016 3.27-1.66 5.312-3.918 5.312-2.274 0-3.918-2.042-3.918-5.312 0-3.238 1.644-5.296 3.918-5.296m0 1.66c-1.278 0-2.141 1.345-2.141 3.636 0 2.307.863 3.652 2.141 3.652 1.262 0 2.125-1.345 2.125-3.652 0-2.291-.863-3.636-2.125-3.636m22.973 4.466v1.477h-13.68v-1.477h3.188v-1.909c-1.129-.473-1.776-1.229-1.776-2.208 0-1.793 2.108-2.856 5.412-2.856s5.395 1.063 5.412 2.856c-.009.987-.656 1.743-1.793 2.208v1.909zm-6.856 2.39c3.237-.016 5.179.947 5.196 2.673-.017 1.743-1.959 2.69-5.196 2.69-3.271 0-5.23-.947-5.23-2.69 0-1.726 1.959-2.689 5.23-2.673m0 1.395c-2.192 0-3.37.432-3.354 1.278-.016.847 1.162 1.295 3.354 1.295 2.141 0 3.337-.448 3.353-1.295-.016-.846-1.212-1.278-3.353-1.278m0-9.33c-2.225 0-3.503.498-3.487 1.428-.016.913 1.262 1.394 3.487 1.394 2.208 0 3.503-.481 3.503-1.394 0-.93-1.295-1.428-3.503-1.428m-1.777 5.545h3.553v-1.428c-.54.075-1.137.116-1.776.116s-1.237-.041-1.777-.116zm22.525-5.13v1.494h-2.042v1.727h2.042v1.544h-2.042v2.008h-1.843v-8.865h1.843v2.092zm-2.042 7.421v5.495h-1.843V554.5h-8.151v-1.494zm-7.62-8.65c2.307-.016 4.034 1.495 4.05 3.603-.016 2.142-1.743 3.636-4.05 3.636-2.325 0-4.068-1.494-4.051-3.636-.017-2.108 1.726-3.619 4.051-3.603m0 1.561c-1.295.017-2.258.797-2.242 2.042-.016 1.278.947 2.075 2.242 2.059 1.278.016 2.241-.781 2.241-2.059 0-1.245-.963-2.025-2.241-2.042m17.859-1.312v.897c-.017 1.029-.017 2.507-.365 4.416l-1.826-.166c.29-1.552.348-2.698.381-3.619h-5.843v-1.528zm-3.785 3.42v2.989c1.552-.058 3.146-.175 4.598-.382l.1 1.328c-3.121.564-6.657.614-9.297.631l-.166-1.478c.888-.008 1.884-.016 2.939-.033v-3.055zm7.371-4.532v4.682h1.942v1.544h-1.942v5.013h-1.893v-11.239zm.481 13.215v1.494H159.65v-4.466h1.86v2.972z"/><path fill="#D2D1D6" d="M187 543.023h2v16h-2z"/><path fill="#8E8D92" d="M218.381 543.493v15.008h-1.777v-7.703h-1.61v7.006h-1.726v-13.912h1.726v5.412h1.61v-5.811zm-6.392 1.893c0 4.051-1.278 7.537-5.545 9.977l-1.062-1.278c3.196-1.851 4.549-4.225 4.814-7.222h-4.117v-1.477zm19.702-1.876v10.841h-1.859V543.51zm.415 13.198v1.494h-10.342v-4.947h1.859v3.453zm-8.599-12.219c2.274 0 4.034 1.577 4.034 3.752 0 2.225-1.76 3.769-4.034 3.769-2.291 0-4.051-1.544-4.051-3.769 0-2.175 1.76-3.752 4.051-3.752m0 1.611c-1.278 0-2.258.846-2.241 2.141-.017 1.328.963 2.158 2.241 2.158 1.245 0 2.224-.83 2.224-2.158 0-1.295-.979-2.141-2.224-2.141m21.943-2.607v8.915h-1.843v-3.669h-2.556v-1.51h2.556v-3.736zm-5.08 9.297c3.188 0 5.13 1.046 5.13 2.856s-1.942 2.855-5.13 2.855c-3.171 0-5.113-1.046-5.097-2.855-.016-1.81 1.926-2.856 5.097-2.856m0 1.411c-2.092 0-3.27.498-3.27 1.445 0 .929 1.178 1.427 3.27 1.427s3.287-.498 3.287-1.427c0-.947-1.195-1.445-3.287-1.445m-1.975-8.135c0 1.827 1.211 3.669 3.536 4.45l-.93 1.461c-1.668-.565-2.855-1.71-3.503-3.122a6.19 6.19 0 0 1-3.702 3.52l-.963-1.461c2.407-.83 3.686-2.855 3.686-4.831v-.116h-3.122v-1.494h8.102v1.494h-3.104zm21.893 9.115v1.51h-13.713v-1.51h5.91v-2.922h-4.399v-7.77h1.843v2.457h6.956v-2.457h1.843v7.77h-4.416v2.922zm-10.359-4.416h6.956v-2.341h-6.956zm22.923-7.272v15.025h-1.843v-7.67h-2.905v-1.494h2.905v-5.861zm-7.106 4.765c-.017 2.274 1.345 4.698 3.719 5.744l-.996 1.411c-1.719-.73-2.964-2.233-3.619-4.034-.664 1.909-1.901 3.511-3.62 4.283l-.996-1.428c2.341-1.062 3.669-3.619 3.669-5.976v-.78h-3.22V546h3.237v-2.191h1.843V546h3.137v1.478h-3.154zm20.715-4.765v15.025h-1.826v-15.025zm-4.615 1.312v5.628h-5.163v3.021c2.365-.016 4.407-.133 6.74-.531l.166 1.511c-2.557.448-4.798.531-7.487.531h-1.312v-5.993h5.18v-2.673h-5.197v-1.494zm12.762 7.952c3.105 0 5.014 1.046 5.031 2.855-.017 1.826-1.926 2.889-5.031 2.889-3.137 0-5.08-1.063-5.08-2.889 0-1.809 1.943-2.855 5.08-2.855m0 1.444c-2.058 0-3.237.482-3.237 1.411 0 .93 1.179 1.428 3.237 1.428 2.059 0 3.204-.498 3.204-1.428s-1.145-1.411-3.204-1.411m4.881-10.708v3.586h2.092v1.544h-2.092v3.769h-1.843v-8.899zm-9.496.946v2.026h3.503v-2.026h1.826v7.006h-7.155v-7.006zm0 5.545h3.503v-2.075h-3.503zm20.25-4.897v1.461h-3.204c.008 1.668 1.32 3.304 3.719 3.934l-.863 1.445c-1.752-.482-3.03-1.511-3.736-2.839-.68 1.453-1.959 2.59-3.752 3.121l-.863-1.411c2.366-.714 3.644-2.465 3.652-4.25h-3.204v-1.461h3.204v-1.644h1.86v1.644zm3.603-1.577v8.815h-1.86v-8.815zm0 9.496v5.312h-9.961v-5.312zm-8.135 1.477v2.341h6.325v-2.341zM125.214 707.055c-.249-1.445-1.411-2.275-2.872-2.275-1.976 0-3.354 1.511-3.354 4.234 0 2.756 1.395 4.233 3.354 4.233 1.428 0 2.59-.797 2.872-2.208h2.175c-.332 2.308-2.225 4.15-5.08 4.15-3.171 0-5.496-2.307-5.496-6.175 0-3.885 2.358-6.176 5.496-6.176 2.656 0 4.714 1.544 5.08 4.217zm6.869 8.151c-2.623 0-4.316-1.859-4.316-4.648 0-2.806 1.693-4.665 4.316-4.665 2.64 0 4.316 1.859 4.316 4.665 0 2.789-1.676 4.648-4.316 4.648m.017-1.693c1.444 0 2.158-1.312 2.158-2.972 0-1.644-.714-2.972-2.158-2.972-1.478 0-2.192 1.328-2.192 2.972 0 1.66.714 2.972 2.192 2.972m4.943 4.897v-12.401h2.075v1.477h.133c.332-.647.996-1.593 2.59-1.593 2.075 0 3.719 1.627 3.719 4.631 0 2.972-1.594 4.665-3.719 4.665-1.561 0-2.258-.929-2.59-1.593h-.083v4.814zm2.075-7.902c0 1.76.764 2.938 2.142 2.938 1.394 0 2.141-1.228 2.141-2.938 0-1.677-.73-2.889-2.141-2.889-1.378 0-2.142 1.146-2.142 2.889m8.065 7.902c-.415 0-.83-.016-1.096-.05v-1.693c.266.017.614.033.896.033.515 0 .947-.05 1.312-1.012l.183-.482-3.288-9.197h2.242l2.091 6.806h.1l2.092-6.806h2.241l-3.619 10.11c-.515 1.444-1.461 2.291-3.154 2.291m7.101-3.387v-9.014h2.059v1.494h.099c.316-1.029 1.196-1.627 2.225-1.627.232 0 .564.017.764.05v1.959c-.183-.067-.631-.133-.98-.133-1.179 0-2.042.813-2.042 1.959v5.312zm5.408 0v-9.014h2.125v9.014zm1.079-10.293c-.664 0-1.228-.514-1.228-1.162 0-.63.564-1.145 1.228-1.145.681 0 1.229.515 1.229 1.145 0 .648-.548 1.162-1.229 1.162m6.006 13.863c-2.39 0-3.901-1.063-4.05-2.756h2.108c.149.78.896 1.162 1.976 1.162 1.261 0 2.091-.548 2.091-1.876v-1.727h-.099c-.332.665-1.046 1.495-2.607 1.495-2.075 0-3.718-1.511-3.718-4.45 0-2.971 1.643-4.548 3.735-4.548 1.594 0 2.258.946 2.59 1.593h.099v-1.477h2.092v9.164c0 2.307-1.776 3.42-4.217 3.42m0-5.363c1.362 0 2.142-1.029 2.142-2.755 0-1.71-.764-2.856-2.142-2.856-1.411 0-2.141 1.212-2.141 2.856 0 1.66.747 2.755 2.141 2.755m7.368-3.486v5.279h-2.125v-12.019h2.075v4.532h.116c.415-1.013 1.278-1.643 2.673-1.643 1.876 0 3.104 1.211 3.104 3.386v5.744h-2.108v-5.412c0-1.228-.664-1.925-1.776-1.925-1.146 0-1.959.747-1.959 2.058m11.351-3.735v1.627h-1.776v4.681c0 .864.431 1.046.963 1.046.249 0 .664-.016.929-.033v1.727c-.249.049-.664.083-1.195.083-1.594 0-2.822-.781-2.806-2.474v-5.03h-1.295v-1.627h1.295v-2.158h2.109v2.158zm9.538 7.338c-1.544 0-2.722-1.212-2.722-3.404 0-2.224 1.228-3.386 2.722-3.386 1.079 0 1.611.647 1.826 1.112h.083v-.963h1.611v4.433c.016.564.249.83.697.83.847 0 1.395-.98 1.395-2.457.016-2.889-2.026-4.782-5.047-4.782-3.088 0-5.064 2.242-5.064 5.213 0 3.221 1.727 5.246 5.014 5.23 1.179 0 2.058-.1 3.005-.349v1.528c-.88.249-1.909.398-3.005.398-4.167 0-6.591-2.656-6.591-6.807-.017-3.934 2.739-6.79 6.641-6.79 3.918 0 6.64 2.673 6.64 6.309 0 2.523-1.278 3.968-3.137 3.968-1.104 0-1.935-.532-2.092-1.279h-.083c-.216.465-.764 1.196-1.893 1.196m.498-1.528c.947.017 1.445-.73 1.445-1.876s-.498-1.876-1.445-1.876c-.913 0-1.428.781-1.411 1.876-.017 1.096.515 1.876 1.411 1.876m10.534 3.204v-1.56l4.25-4.101c1.212-1.212 1.843-1.925 1.843-2.938 0-1.112-.88-1.826-2.058-1.826-1.246 0-2.042.78-2.026 1.992h-2.058c-.017-2.275 1.693-3.752 4.1-3.752 2.457 0 4.117 1.461 4.117 3.486 0 1.362-.664 2.457-3.021 4.682l-2.142 2.125v.083h5.346v1.809zm13.676.166c-2.888 0-4.615-2.241-4.615-6.175 0-3.918 1.727-6.176 4.615-6.176 2.872 0 4.615 2.258 4.615 6.176 0 3.934-1.726 6.175-4.615 6.175m0-1.809c1.511 0 2.441-1.478 2.441-4.366 0-2.872-.947-4.383-2.441-4.383s-2.44 1.511-2.44 4.383c0 2.888.929 4.366 2.44 4.366m5.425 1.643v-1.56l4.25-4.101c1.212-1.212 1.843-1.925 1.843-2.938 0-1.112-.88-1.826-2.059-1.826-1.245 0-2.042.78-2.025 1.992h-2.059c-.016-2.275 1.694-3.752 4.101-3.752 2.457 0 4.117 1.461 4.117 3.486 0 1.362-.664 2.457-3.022 4.682l-2.141 2.125v.083h5.346v1.809zm8.762-2.241v-1.726l5.196-8.052h2.689v8.002h1.578v1.776h-1.578v2.241h-2.058v-2.241zm2.208-1.776h3.652v-5.545h-.133l-3.519 5.462zm22.636-4.665v1.494h-10.425v-5.628h1.842v4.134zm1.561 3.337v1.494h-3.287v5.329h-1.859v-5.329h-3.387v5.329h-1.843v-5.329h-3.304v-1.494zm7.367-7.156v4.649h-4.914v1.892c2.482-.008 4.142-.091 6.01-.398l.149 1.511c-2.075.315-3.901.382-6.79.382h-1.228v-4.815h4.93V704h-4.947v-1.478zm5.213-1.012v11.04h-1.843v-5.778h-2.556v-1.56h2.556v-3.702zm.398 13.198v1.494h-10.326v-4.532h1.843v3.038zm14.44-1.561v1.495h-13.713v-1.495h5.877v-3.469h1.826v3.469zm-5.96-9.645c0 2.274 2.274 4.516 5.429 5.014l-.797 1.527c-2.54-.481-4.615-1.934-5.612-3.901-.996 1.959-3.054 3.436-5.578 3.901l-.796-1.527c3.137-.498 5.378-2.756 5.395-5.014v-1.096h1.959zm19.652 9.645v1.544h-13.713v-1.544zm-1.195-10.259v1.477h-2.191v4.781h2.141v1.461H288.91v-1.461h2.109v-4.781h-2.159v-1.477zm-7.388 6.258h3.37v-4.781h-3.37zm20.765.216v1.461h-10.525v-8.151h10.392v1.494h-8.516v1.81h8.168v1.444h-8.168v1.942zm1.511 3.802v1.511h-13.713v-1.511zm8.99-5.014v1.744h-5.412v-1.744zm5.736 6.873h-2.307l4.233-12.019h2.656l4.25 12.019h-2.307l-.996-2.971h-4.533zm1.577-4.714h3.371l-1.644-4.848h-.1zm9.708-7.305v12.019h-2.125v-12.019zm3.151 0v12.019h-2.125v-12.019zm4.059 12.019v-9.014h2.059v1.494h.1c.315-1.029 1.195-1.627 2.224-1.627.233 0 .565.017.764.05v1.959c-.183-.067-.631-.133-.98-.133-1.178 0-2.042.813-2.042 1.959v5.312zm5.409 0v-9.014h2.125v9.014zm1.079-10.293c-.664 0-1.229-.514-1.229-1.162 0-.63.565-1.145 1.229-1.145.68 0 1.228.515 1.228 1.145 0 .648-.548 1.162-1.228 1.162m6.006 13.863c-2.391 0-3.902-1.063-4.051-2.756h2.108c.15.78.897 1.162 1.976 1.162 1.261 0 2.092-.548 2.092-1.876v-1.727h-.1c-.332.665-1.046 1.495-2.606 1.495-2.076 0-3.719-1.511-3.719-4.45 0-2.971 1.643-4.548 3.735-4.548 1.594 0 2.258.946 2.59 1.593h.1v-1.477h2.091v9.164c0 2.307-1.776 3.42-4.216 3.42m0-5.363c1.361 0 2.141-1.029 2.141-2.755 0-1.71-.764-2.856-2.141-2.856-1.412 0-2.142 1.212-2.142 2.856 0 1.66.747 2.755 2.142 2.755m7.367-3.486v5.279h-2.125v-12.019h2.075v4.532h.116c.415-1.013 1.278-1.643 2.673-1.643 1.876 0 3.104 1.211 3.104 3.386v5.744h-2.108v-5.412c0-1.228-.664-1.925-1.776-1.925-1.146 0-1.959.747-1.959 2.058m11.351-3.735v1.627h-1.776v4.681c0 .864.432 1.046.963 1.046.249 0 .664-.016.93-.033v1.727c-.249.049-.665.083-1.196.083-1.594 0-2.822-.781-2.805-2.474v-5.03h-1.295v-1.627h1.295v-2.158h2.108v2.158zm5.608 2.573c-.133-.681-.698-1.112-1.594-1.112-.913 0-1.577.448-1.561 1.062-.016.465.366.814 1.279 1.03l1.527.315c1.71.382 2.524 1.162 2.54 2.457-.016 1.693-1.494 2.872-3.851 2.872-2.291 0-3.653-1.029-3.869-2.756h2.159c.132.764.73 1.146 1.71 1.146 1.012 0 1.693-.415 1.693-1.079 0-.515-.415-.847-1.312-1.046l-1.444-.316c-1.677-.332-2.54-1.212-2.54-2.507 0-1.66 1.428-2.755 3.636-2.755 2.158 0 3.486 1.045 3.636 2.689zm5.836 6.441v-9.014h2.058v1.494h.1c.315-1.029 1.195-1.627 2.224-1.627.233 0 .565.017.764.05v1.959c-.182-.067-.631-.133-.979-.133-1.179 0-2.042.813-2.042 1.959v5.312zm9.11.183c-2.723 0-4.383-1.81-4.383-4.632 0-2.789 1.694-4.681 4.267-4.681 2.208 0 4.117 1.378 4.117 4.548v.664h-6.292c.025 1.536.93 2.441 2.308 2.441.929 0 1.56-.399 1.826-.93h2.075c-.382 1.561-1.826 2.59-3.918 2.59m-2.274-5.545h4.25c-.017-1.228-.83-2.125-2.059-2.125-1.278 0-2.125.971-2.191 2.125m12.032-1.079c-.133-.681-.697-1.112-1.594-1.112-.913 0-1.577.448-1.56 1.062-.017.465.365.814 1.278 1.03l1.527.315c1.71.382 2.524 1.162 2.54 2.457-.016 1.693-1.494 2.872-3.851 2.872-2.291 0-3.653-1.029-3.868-2.756h2.158c.133.764.73 1.146 1.71 1.146 1.012 0 1.693-.415 1.693-1.079 0-.515-.415-.847-1.311-1.046l-1.445-.316c-1.677-.332-2.54-1.212-2.54-2.507 0-1.66 1.428-2.755 3.636-2.755 2.158 0 3.486 1.045 3.636 2.689zm6.803 6.624c-2.723 0-4.383-1.81-4.383-4.632 0-2.789 1.693-4.681 4.266-4.681 2.208 0 4.118 1.378 4.118 4.548v.664h-6.292c.024 1.536.929 2.441 2.307 2.441.93 0 1.561-.399 1.826-.93h2.076c-.382 1.561-1.827 2.59-3.918 2.59m-2.275-5.545h4.25c-.016-1.228-.83-2.125-2.058-2.125-1.279 0-2.125.971-2.192 2.125m6.919 5.362v-9.014h2.059v1.494h.099c.316-1.029 1.196-1.627 2.225-1.627.232 0 .564.017.764.05v1.959c-.183-.067-.631-.133-.98-.133-1.179 0-2.042.813-2.042 1.959v5.312zm13.742-9.014-3.22 9.014h-2.325l-3.22-9.014h2.257l2.076 6.707h.099l2.092-6.707zm4.014 9.197c-2.723 0-4.383-1.81-4.383-4.632 0-2.789 1.694-4.681 4.267-4.681 2.208 0 4.117 1.378 4.117 4.548v.664h-6.292c.025 1.536.93 2.441 2.308 2.441.929 0 1.56-.399 1.826-.93h2.075c-.382 1.561-1.826 2.59-3.918 2.59m-2.274-5.545h4.25c-.017-1.228-.831-2.125-2.059-2.125-1.278 0-2.125.971-2.191 2.125m10.272 5.528c-2.125 0-3.719-1.693-3.719-4.665 0-3.004 1.644-4.631 3.736-4.631 1.593 0 2.257.946 2.573 1.593h.083v-4.482h2.108v12.019h-2.075v-1.427h-.116c-.332.664-1.029 1.593-2.59 1.593m.581-1.743c1.361 0 2.142-1.178 2.142-2.938 0-1.743-.764-2.889-2.142-2.889-1.411 0-2.142 1.212-2.142 2.889 0 1.71.748 2.938 2.142 2.938"/></svg>