<svg xmlns="http://www.w3.org/2000/svg" width="1280" height="767" fill="none"><path fill="#fff" d="M0 .023h1280v766H0z"/><path fill="#1C1C1E" d="M599.647 182.07v35.547h-4.727V182.07zm-7.266.586v33.321h-4.687v-17.696h-4.688v-4.023h4.688v-11.602zm-12.226 8.946c0 5.898 1.836 11.875 7.031 14.843l-2.93 3.672c-3.164-1.875-5.254-5.058-6.445-8.867-1.231 4.141-3.379 7.656-6.641 9.648l-3.008-3.671c5.235-3.204 7.188-9.61 7.188-15.625v-1.914h-5.82v-3.985h16.015v3.985h-5.39zm53.262-5.977v3.906h-29.18v-3.906h12.149v-3.594h4.961v3.594zm1.797 19.18v4.023h-7.539v8.828h-5.039v-8.828h-7.422v8.828h-4.961v-8.828h-7.578v-4.023zm-16.328-13.828c7.617 0 12.226 2.109 12.266 6.054-.04 3.907-4.649 6.094-12.266 6.094-7.695 0-12.305-2.187-12.266-6.094-.039-3.945 4.571-6.054 12.266-6.054m0 3.711c-4.766 0-7.109.703-7.109 2.343 0 1.563 2.343 2.344 7.109 2.344 4.687 0 7.07-.781 7.07-2.344 0-1.64-2.383-2.343-7.07-2.343m58.478 4.96v3.946h-13.398v6.133h-4.922v-6.133h-14.219v-3.946zm-4.18-16.015v13.086h-24.297v-13.086zM653.77 187.5v5.352h14.532V187.5zm20 25.508v3.984h-25.117v-10.351h4.961v6.367zm16.388-28.555c5.625-.039 9.844 3.633 9.844 8.711 0 5.117-4.219 8.75-9.844 8.75s-9.883-3.633-9.883-8.75c0-5.078 4.258-8.75 9.883-8.711m0 4.297c-2.813 0-4.961 1.641-4.922 4.414-.039 2.813 2.109 4.414 4.922 4.414s4.961-1.601 5-4.414c-.039-2.773-2.149-4.414-5-4.414m18.359-6.68v35.625h-4.961V182.07zm-29.726 24.297c6.328.039 15.117-.078 22.734-1.133l.391 3.594c-7.891 1.524-16.328 1.602-22.539 1.602z"/><path fill="#343438" d="M218.982 285.493v15.025h-1.859v-15.025zm-8.085 1.096c2.258 0 3.902 2.058 3.918 5.296-.016 3.27-1.66 5.312-3.918 5.312-2.274 0-3.918-2.042-3.918-5.312 0-3.238 1.644-5.296 3.918-5.296m0 1.66c-1.278 0-2.141 1.345-2.141 3.636 0 2.307.863 3.652 2.141 3.652 1.262 0 2.125-1.345 2.125-3.652 0-2.291-.863-3.636-2.125-3.636m23.956 4.881v1.461H221.14v-1.461zm-1.694-7.321v3.851h-8.45v1.079h8.749v1.411h-10.575v-3.835h8.434v-1.062h-8.484v-1.444zm.05 9.861v4.648h-10.276v-4.648zm-8.467 1.461v1.693h6.641v-1.693z"/><rect width="267" height="48" x="206.5" y="313.523" stroke="#C7C6CB" rx="15.5"/><path fill="#AEADB2" d="M229.321 340.836c3.238 0 5.064.78 5.08 2.274-.016 1.461-1.842 2.225-5.08 2.225-3.27 0-5.096-.764-5.096-2.225 0-1.494 1.826-2.274 5.096-2.274m0 .979c-2.407 0-3.768.465-3.768 1.295 0 .814 1.361 1.262 3.768 1.245 2.391.017 3.752-.431 3.752-1.245 0-.83-1.361-1.295-3.752-1.295m5.944-9.961v1.046h-11.97v-1.046h5.379v-1.444h1.295v1.444zm-5.944 1.644c3.055 0 4.782.731 4.782 2.125 0 1.262-1.486 1.984-4.134 2.075v1.162h6.076v1.046h-13.447v-1.046h6.076v-1.162c-2.656-.091-4.151-.813-4.151-2.075 0-1.394 1.744-2.125 4.798-2.125m0 .93c-2.175 0-3.42.415-3.403 1.195-.017.731 1.228 1.162 3.403 1.162 2.158 0 3.404-.431 3.404-1.162 0-.78-1.246-1.195-3.404-1.195m20.121-3.819v7.554h-1.295v-7.554zm-4.416.731c0 3.768-2.673 6.126-7.039 7.139l-.482-1.096c3.694-.822 5.86-2.59 6.093-4.964h-5.346v-1.079zm4.416 7.52v3.57h-8.268v1.759h8.799v1.046h-10.094v-3.801h8.268v-1.528h-8.301v-1.046zm15.936-.946v1.046h-13.464v-1.046h6.093v-1.726h-4.383v-4.881h10.078v1.046h-8.799v2.772h8.898v1.063h-4.532v1.726zm-6.74 2.125c3.171 0 5.064.963 5.08 2.656-.016 1.71-1.909 2.657-5.08 2.673-3.187-.016-5.097-.963-5.097-2.673 0-1.693 1.91-2.656 5.097-2.656m0 1.029c-2.374 0-3.785.615-3.769 1.627-.016 1.03 1.395 1.627 3.769 1.627 2.341 0 3.769-.597 3.769-1.627 0-1.012-1.428-1.627-3.769-1.627"/><path fill="#343438" d="M518.982 285.493v15.025h-1.859v-15.025zm-8.085 1.096c2.258 0 3.902 2.058 3.918 5.296-.016 3.27-1.66 5.312-3.918 5.312-2.274 0-3.918-2.042-3.918-5.312 0-3.238 1.644-5.296 3.918-5.296m0 1.66c-1.278 0-2.141 1.345-2.141 3.636 0 2.307.863 3.652 2.141 3.652 1.262 0 2.125-1.345 2.125-3.652 0-2.291-.863-3.636-2.125-3.636m16.618-1.129v3.901h1.743v-5.262h1.76v14.012h-1.76v-7.255h-1.743v4.117h-5.894v-9.513zm-4.167 1.461v6.591h2.44v-6.591zm10.758-3.088v15.008h-1.777v-15.008zm5.959.482c2.274 0 3.968 1.411 3.984 3.386-.016 1.993-1.71 3.387-3.984 3.387-2.291 0-3.985-1.394-3.985-3.387 0-1.975 1.694-3.386 3.985-3.386m0 1.527c-1.262 0-2.192.714-2.192 1.859 0 1.162.93 1.893 2.192 1.893s2.191-.731 2.191-1.893c0-1.145-.929-1.859-2.191-1.859m8.251-2.009v7.587h-1.86v-7.587zm0 8.235v3.918h-8.118v1.211h8.566v1.461h-10.376v-4.034h8.085v-1.112h-8.118v-1.444z"/><rect width="267" height="48" x="506.5" y="313.523" stroke="#C7C6CB" rx="15.5"/><path fill="#AEADB2" d="M522.714 341.467c0-2.075 1.826-2.54 3.387-2.656.572-.042 2.033-.117 2.44-.133v-.731c0-1.145-.681-1.809-2.042-1.809-1.145 0-1.826.531-2.025 1.212h-1.495c.183-1.445 1.594-2.457 3.586-2.457 1.179 0 3.387.348 3.387 3.187v5.943h-1.411v-1.228h-.066c-.299.614-1.129 1.444-2.69 1.444-1.71 0-3.071-1.012-3.071-2.772m1.428.066c0 .946.796 1.428 1.892 1.428 1.611 0 2.507-1.079 2.507-2.208v-.913l-2.274.166c-1.295.083-2.125.548-2.125 1.527m8.25 2.49v-12.019h1.428v4.433h.116c.315-.482.846-1.544 2.606-1.544 2.258 0 3.852 1.793 3.852 4.648s-1.594 4.665-3.835 4.665c-1.727 0-2.308-1.062-2.623-1.56h-.166v1.377zm1.394-4.515c0 2.025.913 3.42 2.557 3.42 1.71 0 2.606-1.494 2.606-3.42 0-1.876-.863-3.337-2.606-3.337-1.66 0-2.557 1.345-2.557 3.337m8.001 1.959c0-2.075 1.827-2.54 3.387-2.656.573-.042 2.034-.117 2.441-.133v-.731c0-1.145-.681-1.809-2.042-1.809-1.146 0-1.827.531-2.026 1.212h-1.494c.183-1.445 1.594-2.457 3.586-2.457 1.179 0 3.387.348 3.387 3.187v5.943h-1.411v-1.228h-.067c-.299.614-1.129 1.444-2.689 1.444-1.71 0-3.072-1.012-3.072-2.772m1.428.066c0 .946.797 1.428 1.893 1.428 1.61 0 2.507-1.079 2.507-2.208v-.913l-2.275.166c-1.295.083-2.125.548-2.125 1.527m11.753 2.673c-2.556 0-4.117-1.942-4.117-4.648 0-2.74 1.627-4.665 4.084-4.665 1.926 0 3.354 1.128 3.586 2.838h-1.428c-.199-.83-.929-1.577-2.125-1.577-1.61 0-2.689 1.328-2.689 3.354 0 2.092 1.046 3.42 2.689 3.42 1.063 0 1.876-.565 2.125-1.561h1.428c-.232 1.611-1.544 2.839-3.553 2.839m8.682 0c-2.241 0-3.835-1.81-3.835-4.665s1.594-4.648 3.852-4.648c1.743 0 2.307 1.062 2.606 1.544h.1v-4.433h1.444v12.019h-1.394v-1.377h-.15c-.315.498-.896 1.56-2.623 1.56m.199-1.278c1.644 0 2.574-1.395 2.574-3.42 0-1.992-.897-3.337-2.574-3.337-1.726 0-2.589 1.461-2.589 3.337 0 1.926.879 3.42 2.589 3.42m9.811 1.278c-2.241 0-3.835-1.81-3.835-4.665s1.594-4.648 3.852-4.648c1.743 0 2.307 1.062 2.606 1.544h.1v-4.433h1.444v12.019h-1.394v-1.377h-.15c-.315.498-.896 1.56-2.623 1.56m.199-1.278c1.644 0 2.574-1.395 2.574-3.42 0-1.992-.897-3.337-2.574-3.337-1.726 0-2.59 1.461-2.59 3.337 0 1.926.88 3.42 2.59 3.42m10.193 1.278c-2.607 0-4.217-1.843-4.217-4.615s1.627-4.698 4.084-4.698c1.893 0 3.885 1.162 3.885 4.499v.597h-6.541c.066 1.909 1.179 2.955 2.789 2.955 1.079 0 1.76-.465 2.092-1.029h1.527c-.432 1.361-1.76 2.291-3.619 2.291m-2.773-5.429h5.08c0-1.51-.962-2.623-2.44-2.623-1.56 0-2.557 1.229-2.64 2.623m8.981 8.633a9 9 0 0 1-.797-.033v-1.278c.15.016.482.033.697.033.581 0 1.063-.05 1.544-1.361l.266-.681-3.337-9.081h1.561l2.457 7.155h.099l2.457-7.155h1.561l-3.818 10.309c-.532 1.411-1.412 2.092-2.69 2.092m13.994-4.964c-1.66 0-2.872-1.344-2.872-3.503 0-2.141 1.229-3.486 2.889-3.486 1.195 0 1.693.764 1.893 1.146h.083v-1.013h1.261v4.848c.017.647.299.962.83.962 1.03 0 1.71-1.195 1.727-2.921.017-3.138-2.258-5.18-5.429-5.18-3.287.016-5.412 2.556-5.412 5.644 0 3.37 1.843 5.695 5.346 5.661 1.162-.016 1.926-.083 2.938-.365v1.129c-.863.233-1.843.382-2.938.382-4.051 0-6.541-2.59-6.541-6.807-.017-3.918 2.739-6.79 6.607-6.79 3.968 0 6.641 2.706 6.624 6.276 0 2.573-1.328 4.084-3.005 4.084-1.046 0-1.834-.59-1.892-1.362h-.116c-.2.366-.698 1.295-1.993 1.295m.216-1.212c1.179 0 1.777-.929 1.793-2.307-.016-1.345-.598-2.258-1.793-2.258-1.162 0-1.793.996-1.793 2.258 0 1.295.648 2.307 1.793 2.307m12.417 6.359c-2.174 0-3.652-.947-3.818-2.623h1.494c.199.913 1.046 1.378 2.324 1.378 1.544 0 2.491-.664 2.491-2.159v-1.826h-.117c-.298.498-.879 1.528-2.623 1.528-2.191 0-3.835-1.661-3.835-4.499 0-2.773 1.594-4.499 3.852-4.499 1.743 0 2.308 1.062 2.64 1.544h.116v-1.428h1.394v9.263c0 2.325-1.726 3.321-3.918 3.321m-.049-4.981c1.643 0 2.573-1.178 2.573-3.171 0-1.925-.897-3.27-2.573-3.27-1.727 0-2.59 1.461-2.59 3.27 0 1.876.88 3.171 2.59 3.171m6.208 1.411v-9.014h1.378v1.411h.116c.382-.963 1.245-1.527 2.424-1.527s1.975.564 2.407 1.527h.1c.464-.93 1.411-1.527 2.706-1.527 1.61 0 2.755.979 2.755 3.104v6.026h-1.427v-6.009c0-1.328-.847-1.843-1.826-1.843-1.262 0-1.976.847-1.976 1.992v5.86h-1.444v-6.159c0-1.012-.731-1.693-1.76-1.693-1.079 0-2.026.913-2.026 2.225v5.627zm13.712-2.556c0-2.075 1.826-2.54 3.387-2.656.572-.042 2.033-.117 2.44-.133v-.731c0-1.145-.681-1.809-2.042-1.809-1.146 0-1.826.531-2.025 1.212h-1.495c.183-1.445 1.594-2.457 3.586-2.457 1.179 0 3.387.348 3.387 3.187v5.943h-1.411v-1.228h-.066c-.299.614-1.129 1.444-2.69 1.444-1.71 0-3.071-1.012-3.071-2.772m1.428.066c0 .946.796 1.428 1.892 1.428 1.61 0 2.507-1.079 2.507-2.208v-.913l-2.274.166c-1.295.083-2.125.548-2.125 1.527m8.067 2.49v-9.014h1.428v9.014zm.714-10.508c-.548 0-.996-.415-.996-.947 0-.531.448-.946.996-.946s1.013.415 1.013.946c0 .532-.465.947-1.013.947m4.382-1.511v12.019h-1.428v-12.019zm3.253 12.119a1.06 1.06 0 0 1-1.062-1.079c-.017-.581.481-1.063 1.062-1.063a1.07 1.07 0 0 1 0 2.142m6.955.083c-2.556 0-4.117-1.942-4.117-4.648 0-2.74 1.627-4.665 4.084-4.665 1.926 0 3.354 1.128 3.586 2.838h-1.428c-.199-.83-.929-1.577-2.125-1.577-1.61 0-2.689 1.328-2.689 3.354 0 2.092 1.046 3.42 2.689 3.42 1.063 0 1.876-.565 2.125-1.561h1.428c-.232 1.611-1.544 2.839-3.553 2.839m8.964 0c-2.457 0-4.117-1.843-4.117-4.648 0-2.806 1.66-4.665 4.117-4.665 2.441 0 4.084 1.859 4.084 4.665s-1.643 4.648-4.084 4.648m0-1.262c1.81 0 2.657-1.593 2.657-3.386s-.847-3.404-2.657-3.404c-1.842 0-2.689 1.611-2.689 3.404s.847 3.386 2.689 3.386m5.926 1.079v-9.014h1.378v1.411h.117c.381-.963 1.245-1.527 2.423-1.527 1.179 0 1.976.564 2.408 1.527h.099c.465-.93 1.411-1.527 2.706-1.527 1.611 0 2.756.979 2.756 3.104v6.026h-1.428v-6.009c0-1.328-.846-1.843-1.826-1.843-1.262 0-1.975.847-1.975 1.992v5.86h-1.445v-6.159c0-1.012-.73-1.693-1.759-1.693-1.08 0-2.026.913-2.026 2.225v5.627z"/><path fill="#343438" d="M820.145 291.984v1.362h-5.911v1.095h4.234v3.52h-8.533v1.029h8.948v1.378h-10.758v-3.669h8.533v-.929h-8.55v-1.329h4.3v-1.095h-5.877v-1.362zm-5.911-6.524v1.262h4.599v1.378h-4.399c.357 1.062 2.1 1.859 5.096 2.008l-.548 1.378c-2.689-.166-4.714-.896-5.661-2.108-.946 1.212-2.963 1.942-5.677 2.108l-.515-1.378c2.963-.149 4.706-.946 5.097-2.008h-4.383v-1.378h4.565v-1.262zm15.373 1.345v1.477h-1.312v4.433a33 33 0 0 0 1.909-.183l.133 1.362c-3.021.498-6.475.564-9.015.564l-.199-1.494 1.727-.017v-4.665h-1.328v-1.477zm3.386-1.295v4.333h2.092v1.544h-2.092v5.163h-1.842v-11.04zm.598 13.198v1.494h-10.21v-4.698h1.843v3.204zm-8.965-5.811a48 48 0 0 0 1.876-.066v-4.549h-1.876zm16.551-3.801c-.016 2.673 1.328 5.395 3.652 6.508l-1.128 1.477c-1.627-.822-2.798-2.407-3.437-4.316-.656 2.042-1.884 3.735-3.603 4.598l-1.128-1.477c2.407-1.146 3.785-4.018 3.801-6.79v-2.391h1.843zm6.392-3.603v5.877h2.307v1.577h-2.307v7.554h-1.843v-15.008zm19.389 0v15.025h-1.86v-15.025zm-8.085 1.096c2.258 0 3.901 2.058 3.918 5.296-.017 3.27-1.66 5.312-3.918 5.312-2.275 0-3.918-2.042-3.918-5.312 0-3.238 1.643-5.296 3.918-5.296m0 1.66c-1.279 0-2.142 1.345-2.142 3.636 0 2.307.863 3.652 2.142 3.652 1.262 0 2.125-1.345 2.125-3.652 0-2.291-.863-3.636-2.125-3.636m23.955 4.881v1.461h-13.713v-1.461zm-1.693-7.321v3.851h-8.451v1.079h8.75v1.411h-10.576v-3.835h8.434v-1.062h-8.483v-1.444zm.049 9.861v4.648h-10.276v-4.648zm-8.466 1.461v1.693h6.64v-1.693z"/><rect width="267" height="48" x="806.5" y="313.523" stroke="#C7C6CB" rx="15.5"/><path fill="#AEADB2" d="M836.045 337.184v1.012h-6.093v1.378h4.366v3.188h-8.765v1.444h9.214v.996h-10.509v-3.37h8.782v-1.278h-8.815v-.98h4.449v-1.378h-6.06v-1.012zm-6.093-6.658v1.378h4.732v1.03h-4.632c.24 1.469 2.548 2.399 5.262 2.573l-.398.996c-2.465-.208-4.69-.971-5.595-2.374-.904 1.403-3.129 2.166-5.611 2.374l-.382-.996c2.698-.174 5.005-1.104 5.263-2.573h-4.599v-1.03h4.682v-1.378zm15.738 1.495v1.062h-1.511v4.881a44 44 0 0 0 2.208-.199l.1.979c-2.989.465-6.475.531-9.032.531l-.149-1.079 1.909-.033v-5.08h-1.494v-1.062zm3.104-1.395v4.482h2.225v1.113h-2.225v5.262h-1.295v-10.857zm.681 13.331v1.096h-9.911v-4.599h1.278v3.503zm-8.982-5.811a77 77 0 0 0 2.408-.099v-4.964h-2.408zm16.369-3.569c0 2.607 1.726 5.279 3.818 6.309l-.797 1.046c-1.627-.855-2.988-2.599-3.636-4.649-.664 2.183-2.058 4.043-3.718 4.931l-.83-1.046c2.158-1.063 3.868-3.901 3.884-6.591v-2.689h1.279zm6.474-3.968v5.994h2.474v1.128h-2.474v7.637h-1.295v-14.759z"/><path fill="#343438" d="M211.877 399.76c0 2.324 1.378 4.964 3.752 6.059l-1.029 1.461c-1.694-.797-2.947-2.407-3.62-4.283-.68 2.059-1.992 3.818-3.718 4.649l-1.079-1.445c2.39-1.129 3.835-3.951 3.851-6.441v-1.262h-3.27v-1.527h8.251v1.527h-3.138zm6.375-4.267v5.844h2.308v1.544h-2.308v7.62h-1.843v-15.008zm16.617 11.737v1.528h-13.713v-1.528h3.636v-2.473h-2.009v-4.898h8.633v-1.842h-8.666v-1.495h10.492v4.815h-8.616v1.926h8.965v1.494H231.4v2.473zm-8.284 0h3.005v-2.473h-3.005zm17.397-11.073c1.942-.016 3.47 1.104 3.852 2.756h2.706v-3.42h1.842v8.052h-1.842v-3.138h-2.69c-.373 1.685-1.917 2.822-3.868 2.822-2.308 0-3.968-1.477-3.968-3.552 0-2.042 1.66-3.536 3.968-3.52m0 1.544c-1.295 0-2.208.764-2.208 1.976 0 1.195.913 1.992 2.208 1.992 1.262 0 2.158-.797 2.175-1.992-.017-1.212-.913-1.976-2.175-1.976m.332 6.541v1.594h6.226v-1.594h1.842v6.076h-9.894v-6.076zm0 4.582h6.226v-1.56h-6.226zm23.872-1.594v1.528h-13.713v-1.528h5.911v-2.44H256.1v-4.914h8.633v-1.859h-8.666v-1.495h10.492v4.815h-8.616v1.942h8.965v1.511h-4.698v2.44zm13.131-4.698v1.478h-10.525v-7.205h10.409v1.494h-8.583v4.233zm1.528 4.532v1.528h-13.713v-1.528z"/><rect width="867" height="51" x="206.5" y="423.523" stroke="#C7C6CB" rx="15.5"/><path fill="#AEADB2" d="M227.595 446.642c-.017 2.374 1.693 4.98 3.835 5.993l-.747 1.029c-1.661-.805-3.063-2.565-3.719-4.565-.681 2.174-2.167 4.084-3.818 4.93l-.797-1.029c2.125-1.029 3.951-3.835 3.967-6.358v-1.926h-3.436v-1.079h8.035v1.079h-3.32zm6.425-4.533v5.977h2.473v1.112h-2.473v7.67h-1.295v-14.759zm16.75 11.837v1.096h-13.514v-1.096h3.802v-2.805h-2.109v-4.549h8.832v-2.308h-8.865v-1.079h10.144v4.466h-8.816v2.391h9.164v1.079h-2.307v2.805zm-8.434 0h3.486v-2.805h-3.486zm17.878-11.139c1.984-.017 3.487 1.137 3.769 2.839h3.088v-3.537h1.311v7.919h-1.311v-3.303H264c-.266 1.743-1.785 2.905-3.786 2.905-2.241 0-3.835-1.395-3.835-3.42 0-2.009 1.594-3.42 3.835-3.403m0 1.112c-1.51-.017-2.589.93-2.589 2.291 0 1.345 1.079 2.324 2.589 2.324 1.495 0 2.557-.979 2.557-2.324 0-1.361-1.062-2.308-2.557-2.291m-.033 6.856v1.876h6.89v-1.876h1.311v5.894h-9.512v-5.894zm0 4.831h6.89v-1.909h-6.89zm24.138-1.66v1.096h-13.514v-1.096h6.077v-2.789h-4.383v-4.549h8.832v-2.324h-8.865v-1.079h10.143v4.466h-8.815v2.407h9.164v1.079h-4.798v2.789zm13.065-4.731v1.079H287.19v-6.807h10.044v1.079h-8.749v4.649zm1.593 4.549v1.095h-13.513v-1.095z"/><g clip-path="url(#a)"><path stroke="#AEADB2" stroke-linecap="round" stroke-linejoin="round" stroke-width="1.5" d="M1048.84 440.691H1043c-.44 0-.86.176-1.18.489-.31.312-.48.736-.48 1.178v13.333c0 .442.17.866.48 1.179.32.312.74.488 1.18.488h10a1.67 1.67 0 0 0 1.67-1.667v-9.166m-5.83-5.834 5.83 5.834m-5.83-5.834v5.834h5.83"/></g><path fill="#343438" d="M220.194 515.997v1.478H214.4v2.755h-1.826v-2.755h-6.093v-1.478zm-1.759-6.823v5.429h-10.21v-5.429zm-8.417 1.444v2.54h6.59v-2.54zm8.666 11.09v1.494h-10.542v-4.349h1.842v2.855zm7.337-12.169c2.374-.017 4.117 1.494 4.133 3.619-.016 2.142-1.759 3.636-4.133 3.636-2.358 0-4.118-1.494-4.118-3.636 0-2.125 1.76-3.636 4.118-3.619m0 1.594c-1.312 0-2.291.78-2.291 2.025 0 1.262.979 2.026 2.291 2.026 1.328 0 2.324-.764 2.324-2.026 0-1.245-.996-2.025-2.324-2.025m7.636-2.64v15.025h-1.842v-15.025zm-12.434 10.376c2.706 0 6.458-.033 9.695-.498l.15 1.345c-3.371.647-6.973.664-9.613.664zm31.475-10.376v15.008h-1.777v-7.587h-1.66v6.823h-1.726v-13.962h1.726v5.628h1.66v-5.91zm-10.376 1.727v7.919a23.7 23.7 0 0 0 4.283-.449l.183 1.611a29 29 0 0 1-5.329.465h-.997v-9.546zm25.831 5.495v1.477h-13.68v-1.477h3.188v-1.909c-1.129-.473-1.776-1.229-1.776-2.208 0-1.793 2.108-2.856 5.412-2.856s5.395 1.063 5.412 2.856c-.009.987-.656 1.743-1.793 2.208v1.909zm-6.856 2.39c3.237-.016 5.179.947 5.196 2.673-.017 1.743-1.959 2.69-5.196 2.69-3.271 0-5.23-.947-5.23-2.69 0-1.726 1.959-2.689 5.23-2.673m0 1.395c-2.192 0-3.371.432-3.354 1.278-.017.847 1.162 1.295 3.354 1.295 2.141 0 3.337-.448 3.353-1.295-.016-.846-1.212-1.278-3.353-1.278m0-9.33c-2.225 0-3.503.498-3.487 1.428-.016.913 1.262 1.394 3.487 1.394 2.208 0 3.503-.481 3.503-1.394 0-.93-1.295-1.428-3.503-1.428m-1.777 5.545h3.553v-1.428c-.54.075-1.137.116-1.776.116-.64 0-1.237-.041-1.777-.116z"/><rect width="867" height="149" x="206.5" y="536.523" stroke="#C7C6CB" rx="15.5"/><path fill="#AEADB2" d="M227.528 559c0 2.009 1.528 3.852 3.669 4.582l-.714 1.029c-1.635-.597-2.921-1.818-3.569-3.353-.631 1.735-1.942 3.104-3.669 3.768l-.697-1.046c2.208-.83 3.685-2.805 3.702-5.08v-1.527h1.278zm6.608-2.391v3.852h2.224v1.096h-2.224v4.034h-1.295v-8.982zm-4.732 9.364c3.038 0 4.865.979 4.865 2.673 0 1.726-1.827 2.689-4.865 2.689s-4.897-.963-4.897-2.689c0-1.694 1.859-2.673 4.897-2.673m0 1.046c-2.224 0-3.602.614-3.586 1.627-.016 1.045 1.362 1.643 3.586 1.66 2.242-.017 3.603-.615 3.603-1.66 0-1.013-1.361-1.627-3.603-1.627m12.235-6.209c0 2.34 1.145 4.88 3.104 6.043l-.747 1.012c-1.419-.863-2.44-2.44-2.955-4.233-.548 1.959-1.643 3.644-3.121 4.549l-.83-.98c2.042-1.195 3.287-3.818 3.287-6.342v-2.855h1.262zm8.267-4.201v14.759h-1.261v-14.759zm-3.054.316v13.696h-1.229v-7.603h-2.507v-1.113h2.507v-4.98zm16.484-.316v6.093h2.474v1.079h-2.474v7.587h-1.295v-14.759zm-2.722 2.374v1.079h-8.783v-1.079h3.802v-2.191h1.295v2.191zm-4.317 2.308c2.092 0 3.603 1.395 3.619 3.387-.016 1.992-1.527 3.386-3.619 3.386-2.108 0-3.636-1.394-3.619-3.386-.017-1.992 1.511-3.387 3.619-3.387m0 1.096c-1.378 0-2.39.963-2.374 2.291-.016 1.344.996 2.291 2.374 2.274 1.362.017 2.358-.93 2.374-2.274-.016-1.328-1.012-2.291-2.374-2.291m22.91-5.778v14.759h-1.246v-14.759zm-3.105.399v13.613h-1.245v-6.89h-3.121c-.905 1.719-2.324 3.238-4.383 4.45l-.764-.947c3.213-1.901 4.823-4.565 5.064-7.653h-4.433v-1.079h5.728c-.008 1.453-.241 2.855-.731 4.167h2.64v-5.661zm14.359 2.341c0 1.959 1.444 3.752 3.636 4.515l-.664 1.013c-1.686-.598-2.972-1.81-3.603-3.337-.631 1.677-1.984 2.98-3.719 3.619l-.697-1.013c2.208-.78 3.752-2.689 3.769-4.797v-.631h-3.371v-1.063h7.969v1.063h-3.32zm6.541-2.74v3.902h2.224v1.112h-2.224v3.885h-1.295v-8.899zm0 9.679v5.08h-1.295v-4.017h-8.367v-1.063zm8.2-7.354c-.016 2.108 1.478 3.967 3.653 4.698l-.731 1.013c-1.627-.615-2.905-1.81-3.536-3.371a6.37 6.37 0 0 1-3.769 3.819l-.713-1.063c2.274-.797 3.785-2.756 3.801-5.047v-1.527h1.295zm7.156-2.325v8.749h-1.312v-4.499h-3.287v-1.079h3.287v-3.171zm-4.898 9.181c3.071 0 4.947 1.013 4.947 2.789 0 1.76-1.876 2.756-4.947 2.756s-4.947-.996-4.947-2.756c0-1.776 1.876-2.789 4.947-2.789m0 1.029c-2.258 0-3.669.664-3.652 1.76-.017 1.063 1.394 1.71 3.652 1.71s3.652-.647 3.652-1.71c0-1.096-1.394-1.76-3.652-1.76m25.05-1.444v1.063h-6.159v4.93h-1.278v-4.93h-6.076v-1.063zm-10.492-8.151v2.042h7.438v-2.042h1.311v6.358h-10.044v-6.358zm0 5.296h7.438v-2.192h-7.438zm19.141-4.898v1.079h-5.495v1.926h5.213v1.029h-5.213v2.042c2.872 0 4.524-.074 6.458-.431l.149 1.079c-2.042.348-3.735.415-6.79.398h-1.112v-7.122zm4.051-1.013v3.935h2.224v1.112h-2.224v3.902h-1.295v-8.949zm0 9.679v5.08h-1.295v-4.017h-8.367v-1.063zm15.04-2.573v1.079h-10.194v-6.807H360.1v1.079h-8.749v4.649zm1.594 4.549v1.095H348.33v-1.095zm13.33-11.638v8.102h-1.295v-8.102zm-4.698.714v3.984h-5.446v2.009c2.64-.017 4.616-.066 7.006-.465l.15 1.079c-2.474.399-4.499.465-7.222.482h-1.195v-4.134h5.412v-1.876h-5.446v-1.079zm-3.586 8.135v1.759h6.989v-1.759h1.295v5.694h-9.596v-5.694zm0 4.631h6.989v-1.826h-6.989zm22.926-13.497v14.759h-1.295v-14.759zm-9.928 1.461v8.368c2.249-.009 4.582-.191 7.056-.714l.182 1.112c-2.623.548-4.964.73-7.321.73h-1.195v-9.496zm23.839-1.461v5.844h2.474v1.096h-2.474v7.852h-1.295v-14.792zm-3.885 1.445v1.079h-5.595v7.471c2.673 0 4.566-.125 6.757-.532l.166 1.129c-2.307.415-4.25.498-7.055.498h-1.162v-9.645z"/><rect width="148" height="48" x="926" y="718.023" fill="#C7C6CB" rx="24"/><path fill="#fff" d="M985.943 742.352v1.39h-5.453v2.594h-1.719v-2.594h-5.734v-1.39zm-1.656-6.422v5.109h-9.61v-5.109zm-7.922 1.359v2.391h6.203v-2.391zm8.156 10.438v1.406h-9.922v-4.094h1.735v2.688zm6.778-11.454c2.234-.015 3.875 1.407 3.89 3.407-.015 2.015-1.656 3.422-3.89 3.422-2.219 0-3.875-1.407-3.875-3.422 0-2 1.656-3.422 3.875-3.407m0 1.5c-1.235 0-2.157.735-2.157 1.907 0 1.187.922 1.906 2.157 1.906 1.25 0 2.187-.719 2.187-1.906 0-1.172-.937-1.907-2.187-1.907m7.187-2.484v14.141h-1.734v-14.141zm-11.703 9.766c2.547 0 6.078-.032 9.125-.469l.141 1.266c-3.172.609-6.563.625-9.047.625zm24.667-9.766v5.625h2.17v1.438h-2.17v7.062h-1.72v-14.125zm-2.81 2.172v1.391h-8.33v-1.391h3.34v-1.969h1.74v1.969zm-4.11 2.312c2.03 0 3.55 1.375 3.55 3.329 0 1.953-1.52 3.312-3.55 3.312-2.06 0-3.58-1.359-3.56-3.312-.02-1.954 1.5-3.329 3.56-3.329m0 1.422c-1.11 0-1.91.75-1.91 1.907 0 1.156.8 1.89 1.91 1.875 1.08.015 1.87-.719 1.89-1.875-.02-1.157-.81-1.907-1.89-1.907m21.32-5.906v14.125h-1.75v-14.125zm-4.21 1.5c0 4.203-1.63 7.781-6.58 10.125l-.91-1.391c3.7-1.757 5.41-4.148 5.72-7.359h-5v-1.375z"/><defs><clipPath id="a"><path fill="#fff" d="M1038 439.023h20v20h-20z"/></clipPath></defs></svg>