<svg width="1280" height="720" viewBox="0 0 1280 720" fill="none" xmlns="http://www.w3.org/2000/svg">
<path d="M122.043 186.096C122.043 188.885 123.371 191.624 125.762 192.67L124.649 194.147C122.948 193.317 121.752 191.724 121.113 189.765C120.458 191.832 119.237 193.55 117.511 194.43L116.349 192.936C118.789 191.79 120.15 188.901 120.167 186.096V183.705H122.043V186.096ZM129.082 182.493V197.518H127.256V188.835H124.102V187.341H127.256V182.493H129.082ZM143.505 182.493V197.518H141.645V182.493H143.505ZM133.66 183.722V187.474H137.296V183.722H139.122V193.981H131.817V183.722H133.66ZM133.66 192.471H137.296V188.918H133.66V192.471ZM153.296 184.552C153.296 186.876 155.57 189.2 158.708 189.748L157.878 191.292C155.363 190.761 153.304 189.242 152.333 187.225C151.337 189.225 149.278 190.752 146.771 191.292L145.958 189.748C149.062 189.184 151.32 186.859 151.337 184.552V183.439H153.296V184.552ZM159.256 194.064V195.592H145.543V194.064H159.256Z" fill="#8E8D92"/>
<path d="M123.255 243.873C126.509 243.89 128.567 244.919 128.584 246.695C128.567 248.438 126.509 249.484 123.255 249.484C120.018 249.484 117.942 248.438 117.942 246.695C117.942 244.919 120.018 243.89 123.255 243.873ZM123.255 245.268C121.097 245.268 119.785 245.782 119.802 246.695C119.785 247.575 121.097 248.057 123.255 248.057C125.43 248.057 126.741 247.575 126.758 246.695C126.741 245.782 125.43 245.268 123.255 245.268ZM128.484 235.207V236.452C128.484 237.631 128.484 238.893 128.069 240.437L126.243 240.271C126.617 238.81 126.642 237.755 126.642 236.668H118.092V235.207H128.484ZM130.145 241.3V242.794H116.531V241.3H121.811V238.577H123.637V241.3H130.145ZM135.852 238.76C135.852 241.217 137.296 243.807 139.72 244.819L138.707 246.28C136.931 245.517 135.636 243.939 134.955 242.03C134.258 244.089 132.946 245.815 131.187 246.646L130.124 245.201C132.498 244.105 133.976 241.316 133.976 238.76V237.498H130.672V235.971H139.139V237.498H135.852V238.76ZM142.675 234.493V249.501H140.815V234.493H142.675ZM149.245 238.096C149.229 240.769 150.573 243.491 152.897 244.604L151.769 246.081C150.142 245.259 148.971 243.674 148.332 241.765C147.676 243.807 146.448 245.5 144.729 246.363L143.601 244.886C146.008 243.74 147.386 240.868 147.402 238.096V235.705H149.245V238.096ZM155.637 234.493V240.37H157.944V241.947H155.637V249.501H153.794V234.493H155.637ZM169.412 234.493V238.444H171.504V239.988H169.412V244.072H167.569V234.493H169.412ZM164.564 244.205C167.636 244.205 169.578 245.185 169.578 246.845C169.578 248.488 167.636 249.484 164.564 249.484C161.443 249.484 159.534 248.488 159.551 246.845C159.534 245.185 161.443 244.205 164.564 244.205ZM164.564 245.616C162.506 245.616 161.36 246.015 161.377 246.845C161.36 247.642 162.506 248.09 164.564 248.09C166.59 248.09 167.735 247.642 167.735 246.845C167.735 246.015 166.59 245.616 164.564 245.616ZM166.49 236.021V237.465H157.592V236.021H161.128V234.394H162.971V236.021H166.49ZM162.041 238.062C164.216 238.062 165.693 239.142 165.71 240.752C165.693 242.362 164.216 243.425 162.041 243.425C159.85 243.425 158.355 242.362 158.355 240.752C158.355 239.142 159.85 238.062 162.041 238.062ZM162.041 239.424C160.896 239.424 160.148 239.922 160.148 240.752C160.148 241.565 160.896 242.03 162.041 242.03C163.187 242.03 163.95 241.565 163.95 240.752C163.95 239.922 163.187 239.424 162.041 239.424Z" fill="#8E8D92"/>
<path d="M121.877 282.76C121.877 285.084 123.255 287.724 125.629 288.819L124.6 290.28C122.906 289.483 121.653 287.873 120.98 285.997C120.3 288.056 118.988 289.815 117.262 290.646L116.183 289.201C118.573 288.072 120.018 285.25 120.034 282.76V281.498H116.764V279.971H125.015V281.498H121.877V282.76ZM128.252 278.493V284.337H130.56V285.881H128.252V293.501H126.409V278.493H128.252ZM143.87 286.86V288.354H137.91V293.484H136.084V288.354H130.19V286.86H143.87ZM142.608 279.34V280.801H138.109C138.217 282.444 140.193 284.021 143.156 284.403L142.492 285.848C139.936 285.491 137.943 284.32 137.03 282.693C136.117 284.32 134.125 285.491 131.602 285.848L130.904 284.403C133.851 284.021 135.827 282.444 135.968 280.801H131.452V279.34H142.608ZM159.136 291.841V293.318H148.544V288.305H152.827V286.827H146.917V285.35H160.597V286.827H154.653V288.305H158.986V289.782H150.403V291.841H159.136ZM158.854 279.024V284.154H148.644V279.024H158.854ZM150.437 280.502V282.693H157.027V280.502H150.437ZM172.762 282.743V284.204H162.369V279.041H164.195V282.743H172.762ZM174.306 285.947V287.408H160.593V285.947H174.306ZM172.861 291.658V293.152H162.236V288.736H164.079V291.658H172.861ZM189.804 278.493V286.229H187.978V278.493H189.804ZM189.837 286.86V290.729H181.719V291.94H190.285V293.368H179.909V289.384H187.994V288.271H179.876V286.86H189.837ZM186.185 279.24V280.734H183.047C183.122 282.395 184.392 283.963 186.716 284.603L185.819 286.03C184.068 285.524 182.814 284.453 182.134 283.092C181.461 284.594 180.15 285.79 178.299 286.346L177.452 284.885C179.776 284.196 181.071 282.511 181.171 280.734H177.934V279.24H186.185ZM204.725 285.997V287.475H198.931V290.23H197.104V287.475H191.012V285.997H204.725ZM202.965 279.174V284.603H192.755V279.174H202.965ZM194.548 280.618V283.158H201.139V280.618H194.548ZM203.214 291.708V293.202H192.672V288.853H194.515V291.708H203.214Z" fill="#8E8D92"/>
<path d="M363.86 186.096C363.844 188.769 365.188 191.491 367.513 192.604L366.384 194.081C364.757 193.259 363.586 191.674 362.947 189.765C362.292 191.807 361.063 193.5 359.345 194.363L358.216 192.886C360.623 191.74 362.001 188.868 362.018 186.096V183.705H363.86V186.096ZM370.252 182.493V188.37H372.56V189.947H370.252V197.501H368.409V182.493H370.252ZM385.87 189.715V191.192H372.19V189.715H375.378V187.806C374.249 187.333 373.602 186.577 373.602 185.598C373.602 183.805 375.71 182.742 379.014 182.742C382.317 182.742 384.409 183.805 384.426 185.598C384.417 186.585 383.77 187.341 382.633 187.806V189.715H385.87ZM379.014 192.105C382.251 192.089 384.193 193.052 384.21 194.778C384.193 196.521 382.251 197.468 379.014 197.468C375.743 197.468 373.784 196.521 373.784 194.778C373.784 193.052 375.743 192.089 379.014 192.105ZM379.014 193.5C376.822 193.5 375.644 193.932 375.66 194.778C375.644 195.625 376.822 196.073 379.014 196.073C381.155 196.073 382.351 195.625 382.367 194.778C382.351 193.932 381.155 193.5 379.014 193.5ZM379.014 184.17C376.789 184.17 375.511 184.668 375.527 185.598C375.511 186.511 376.789 186.992 379.014 186.992C381.222 186.992 382.517 186.511 382.517 185.598C382.517 184.668 381.222 184.17 379.014 184.17ZM377.237 189.715H380.79V188.287C380.25 188.362 379.653 188.403 379.014 188.403C378.375 188.403 377.777 188.362 377.237 188.287V189.715ZM388.406 183.273V185.315H391.76V183.273H393.586V186.013H396.607V182.493H398.45V190.694H396.607V187.54H393.586V190.229H386.563V183.273H388.406ZM388.406 188.735H391.76V186.743H388.406V188.735ZM390.398 191.358V192.886H396.607V191.358H398.45V197.285H388.556V191.358H390.398ZM390.398 195.791H396.607V194.313H390.398V195.791Z" fill="#8E8D92"/>
<path d="M369.837 242.014C369.837 245.898 367.479 248.189 364.325 248.189C361.171 248.189 358.813 245.882 358.813 242.014C358.813 238.129 361.171 235.838 364.325 235.838C367.479 235.838 369.837 238.129 369.837 242.014ZM367.662 242.014C367.662 239.274 366.284 237.78 364.325 237.78C362.366 237.78 360.988 239.274 360.988 242.014C360.988 244.753 362.366 246.247 364.325 246.247C366.284 246.247 367.662 244.753 367.662 242.014ZM381.487 242.014C381.487 245.898 379.13 248.189 375.976 248.189C372.821 248.189 370.464 245.882 370.464 242.014C370.464 238.129 372.821 235.838 375.976 235.838C379.13 235.838 381.487 238.129 381.487 242.014ZM379.312 242.014C379.312 239.274 377.935 237.78 375.976 237.78C374.017 237.78 372.639 239.274 372.639 242.014C372.639 244.753 374.017 246.247 375.976 246.247C377.935 246.247 379.312 244.753 379.312 242.014ZM390.378 238.096C390.378 240.885 391.706 243.624 394.097 244.67L392.984 246.147C391.283 245.317 390.087 243.724 389.448 241.765C388.792 243.832 387.572 245.55 385.846 246.43L384.684 244.936C387.124 243.79 388.485 240.901 388.502 238.096V235.705H390.378V238.096ZM397.417 234.493V249.518H395.591V240.835H392.437V239.341H395.591V234.493H397.417ZM411.01 234.493V249.518H409.15V234.493H411.01ZM401.165 235.722V239.474H404.801V235.722H406.627V245.981H399.322V235.722H401.165ZM401.165 244.471H404.801V240.918H401.165V244.471ZM419.971 236.552C419.971 238.876 422.245 241.2 425.383 241.748L424.553 243.292C422.038 242.761 419.979 241.242 419.008 239.225C418.012 241.225 415.953 242.752 413.446 243.292L412.633 241.748C415.737 241.184 417.995 238.859 418.012 236.552V235.439H419.971V236.552ZM425.931 246.064V247.592H412.218V246.064H425.931ZM434.307 238.096C434.29 240.769 435.635 243.491 437.959 244.604L436.83 246.081C435.203 245.259 434.033 243.674 433.394 241.765C432.738 243.807 431.509 245.5 429.791 246.363L428.662 244.886C431.069 243.74 432.447 240.868 432.464 238.096V235.705H434.307V238.096ZM440.698 234.493V240.37H443.006V241.947H440.698V249.501H438.855V234.493H440.698ZM456.316 241.715V243.192H442.637V241.715H445.824V239.806C444.695 239.333 444.048 238.577 444.048 237.598C444.048 235.805 446.156 234.742 449.46 234.742C452.764 234.742 454.855 235.805 454.872 237.598C454.864 238.585 454.216 239.341 453.079 239.806V241.715H456.316ZM449.46 244.105C452.697 244.089 454.64 245.052 454.656 246.778C454.64 248.521 452.697 249.468 449.46 249.468C446.189 249.468 444.23 248.521 444.23 246.778C444.23 245.052 446.189 244.089 449.46 244.105ZM449.46 245.5C447.269 245.5 446.09 245.932 446.106 246.778C446.09 247.625 447.269 248.073 449.46 248.073C451.602 248.073 452.797 247.625 452.813 246.778C452.797 245.932 451.602 245.5 449.46 245.5ZM449.46 236.17C447.235 236.17 445.957 236.668 445.974 237.598C445.957 238.511 447.235 238.992 449.46 238.992C451.668 238.992 452.963 238.511 452.963 237.598C452.963 236.668 451.668 236.17 449.46 236.17ZM447.684 241.715H451.236V240.287C450.697 240.362 450.099 240.403 449.46 240.403C448.821 240.403 448.223 240.362 447.684 240.287V241.715ZM458.853 235.273V237.315H462.206V235.273H464.032V238.013H467.054V234.493H468.896V242.694H467.054V239.54H464.032V242.229H457.01V235.273H458.853ZM458.853 240.735H462.206V238.743H458.853V240.735ZM460.845 243.358V244.886H467.054V243.358H468.896V249.285H459.002V243.358H460.845ZM460.845 247.791H467.054V246.313H460.845V247.791ZM478.435 236.004V248.023H476.26V238.112H476.193L473.388 239.905V237.93L476.359 236.004H478.435Z" fill="#8E8D92"/>
<path d="M369.837 286.014C369.837 289.898 367.479 292.189 364.325 292.189C361.171 292.189 358.813 289.882 358.813 286.014C358.813 282.129 361.171 279.838 364.325 279.838C367.479 279.838 369.837 282.129 369.837 286.014ZM367.662 286.014C367.662 283.274 366.284 281.78 364.325 281.78C362.366 281.78 360.988 283.274 360.988 286.014C360.988 288.753 362.366 290.247 364.325 290.247C366.284 290.247 367.662 288.753 367.662 286.014ZM381.487 286.014C381.487 289.898 379.13 292.189 375.976 292.189C372.821 292.189 370.464 289.882 370.464 286.014C370.464 282.129 372.821 279.838 375.976 279.838C379.13 279.838 381.487 282.129 381.487 286.014ZM379.312 286.014C379.312 283.274 377.935 281.78 375.976 281.78C374.017 281.78 372.639 283.274 372.639 286.014C372.639 288.753 374.017 290.247 375.976 290.247C377.935 290.247 379.312 288.753 379.312 286.014ZM390.378 282.096C390.378 284.885 391.706 287.624 394.097 288.67L392.984 290.147C391.283 289.317 390.087 287.724 389.448 285.765C388.792 287.832 387.572 289.55 385.846 290.43L384.684 288.936C387.124 287.79 388.485 284.901 388.502 282.096V279.705H390.378V282.096ZM397.417 278.493V293.518H395.591V284.835H392.437V283.341H395.591V278.493H397.417ZM411.01 278.493V293.518H409.15V278.493H411.01ZM401.165 279.722V283.474H404.801V279.722H406.627V289.981H399.322V279.722H401.165ZM401.165 288.471H404.801V284.918H401.165V288.471ZM419.971 280.552C419.971 282.876 422.245 285.2 425.383 285.748L424.553 287.292C422.038 286.761 419.979 285.242 419.008 283.225C418.012 285.225 415.953 286.752 413.446 287.292L412.633 285.748C415.737 285.184 417.995 282.859 418.012 280.552V279.439H419.971V280.552ZM425.931 290.064V291.592H412.218V290.064H425.931ZM434.307 282.096C434.29 284.769 435.635 287.491 437.959 288.604L436.83 290.081C435.203 289.259 434.033 287.674 433.394 285.765C432.738 287.807 431.509 289.5 429.791 290.363L428.662 288.886C431.069 287.74 432.447 284.868 432.464 282.096V279.705H434.307V282.096ZM440.698 278.493V284.37H443.006V285.947H440.698V293.501H438.855V278.493H440.698ZM456.316 285.715V287.192H442.637V285.715H445.824V283.806C444.695 283.333 444.048 282.577 444.048 281.598C444.048 279.805 446.156 278.742 449.46 278.742C452.764 278.742 454.855 279.805 454.872 281.598C454.864 282.585 454.216 283.341 453.079 283.806V285.715H456.316ZM449.46 288.105C452.697 288.089 454.64 289.052 454.656 290.778C454.64 292.521 452.697 293.468 449.46 293.468C446.189 293.468 444.23 292.521 444.23 290.778C444.23 289.052 446.189 288.089 449.46 288.105ZM449.46 289.5C447.269 289.5 446.09 289.932 446.106 290.778C446.09 291.625 447.269 292.073 449.46 292.073C451.602 292.073 452.797 291.625 452.813 290.778C452.797 289.932 451.602 289.5 449.46 289.5ZM449.46 280.17C447.235 280.17 445.957 280.668 445.974 281.598C445.957 282.511 447.235 282.992 449.46 282.992C451.668 282.992 452.963 282.511 452.963 281.598C452.963 280.668 451.668 280.17 449.46 280.17ZM447.684 285.715H451.236V284.287C450.697 284.362 450.099 284.403 449.46 284.403C448.821 284.403 448.223 284.362 447.684 284.287V285.715ZM458.853 279.273V281.315H462.206V279.273H464.032V282.013H467.054V278.493H468.896V286.694H467.054V283.54H464.032V286.229H457.01V279.273H458.853ZM458.853 284.735H462.206V282.743H458.853V284.735ZM460.845 287.358V288.886H467.054V287.358H468.896V293.285H459.002V287.358H460.845ZM460.845 291.791H467.054V290.313H460.845V291.791ZM473.554 292.023V290.463L477.804 286.362C479.016 285.15 479.646 284.437 479.646 283.424C479.646 282.312 478.767 281.598 477.588 281.598C476.343 281.598 475.546 282.378 475.562 283.59H473.504C473.487 281.315 475.197 279.838 477.604 279.838C480.062 279.838 481.722 281.299 481.722 283.324C481.722 284.686 481.058 285.781 478.7 288.006L476.559 290.131V290.214H481.904V292.023H473.554Z" fill="#8E8D92"/>
<path d="M369.837 330.014C369.837 333.898 367.479 336.189 364.325 336.189C361.171 336.189 358.813 333.882 358.813 330.014C358.813 326.129 361.171 323.838 364.325 323.838C367.479 323.838 369.837 326.129 369.837 330.014ZM367.662 330.014C367.662 327.274 366.284 325.78 364.325 325.78C362.366 325.78 360.988 327.274 360.988 330.014C360.988 332.753 362.366 334.247 364.325 334.247C366.284 334.247 367.662 332.753 367.662 330.014ZM381.487 330.014C381.487 333.898 379.13 336.189 375.976 336.189C372.821 336.189 370.464 333.882 370.464 330.014C370.464 326.129 372.821 323.838 375.976 323.838C379.13 323.838 381.487 326.129 381.487 330.014ZM379.312 330.014C379.312 327.274 377.935 325.78 375.976 325.78C374.017 325.78 372.639 327.274 372.639 330.014C372.639 332.753 374.017 334.247 375.976 334.247C377.935 334.247 379.312 332.753 379.312 330.014ZM390.378 326.096C390.378 328.885 391.706 331.624 394.097 332.67L392.984 334.147C391.283 333.317 390.087 331.724 389.448 329.765C388.792 331.832 387.572 333.55 385.846 334.43L384.684 332.936C387.124 331.79 388.485 328.901 388.502 326.096V323.705H390.378V326.096ZM397.417 322.493V337.518H395.591V328.835H392.437V327.341H395.591V322.493H397.417ZM411.01 322.493V337.518H409.15V322.493H411.01ZM401.165 323.722V327.474H404.801V323.722H406.627V333.981H399.322V323.722H401.165ZM401.165 332.471H404.801V328.918H401.165V332.471ZM419.971 324.552C419.971 326.876 422.245 329.2 425.383 329.748L424.553 331.292C422.038 330.761 419.979 329.242 419.008 327.225C418.012 329.225 415.953 330.752 413.446 331.292L412.633 329.748C415.737 329.184 417.995 326.859 418.012 324.552V323.439H419.971V324.552ZM425.931 334.064V335.592H412.218V334.064H425.931ZM434.307 326.096C434.29 328.769 435.635 331.491 437.959 332.604L436.83 334.081C435.203 333.259 434.033 331.674 433.394 329.765C432.738 331.807 431.509 333.5 429.791 334.363L428.662 332.886C431.069 331.74 432.447 328.868 432.464 326.096V323.705H434.307V326.096ZM440.698 322.493V328.37H443.006V329.947H440.698V337.501H438.855V322.493H440.698ZM456.316 329.715V331.192H442.637V329.715H445.824V327.806C444.695 327.333 444.048 326.577 444.048 325.598C444.048 323.805 446.156 322.742 449.46 322.742C452.764 322.742 454.855 323.805 454.872 325.598C454.864 326.585 454.216 327.341 453.079 327.806V329.715H456.316ZM449.46 332.105C452.697 332.089 454.64 333.052 454.656 334.778C454.64 336.521 452.697 337.468 449.46 337.468C446.189 337.468 444.23 336.521 444.23 334.778C444.23 333.052 446.189 332.089 449.46 332.105ZM449.46 333.5C447.269 333.5 446.09 333.932 446.106 334.778C446.09 335.625 447.269 336.073 449.46 336.073C451.602 336.073 452.797 335.625 452.813 334.778C452.797 333.932 451.602 333.5 449.46 333.5ZM449.46 324.17C447.235 324.17 445.957 324.668 445.974 325.598C445.957 326.511 447.235 326.992 449.46 326.992C451.668 326.992 452.963 326.511 452.963 325.598C452.963 324.668 451.668 324.17 449.46 324.17ZM447.684 329.715H451.236V328.287C450.697 328.362 450.099 328.403 449.46 328.403C448.821 328.403 448.223 328.362 447.684 328.287V329.715ZM458.853 323.273V325.315H462.206V323.273H464.032V326.013H467.054V322.493H468.896V330.694H467.054V327.54H464.032V330.229H457.01V323.273H458.853ZM458.853 328.735H462.206V326.743H458.853V328.735ZM460.845 331.358V332.886H467.054V331.358H468.896V337.285H459.002V331.358H460.845ZM460.845 335.791H467.054V334.313H460.845V335.791ZM477.92 336.189C475.347 336.189 473.521 334.795 473.471 332.77H475.646C475.712 333.732 476.675 334.363 477.92 334.363C479.248 334.363 480.194 333.633 480.194 332.57C480.194 331.491 479.265 330.711 477.704 330.711H476.625V329.051H477.704C478.982 329.051 479.879 328.337 479.862 327.291C479.879 326.278 479.115 325.598 477.937 325.598C476.808 325.598 475.828 326.229 475.795 327.241H473.72C473.77 325.216 475.596 323.838 477.953 323.838C480.394 323.838 481.971 325.332 481.954 327.175C481.971 328.52 481.074 329.499 479.763 329.765V329.864C481.456 330.097 482.419 331.176 482.402 332.687C482.419 334.712 480.526 336.189 477.92 336.189Z" fill="#8E8D92"/>
<path d="M667.194 189.997V191.475H661.4V194.23H659.574V191.475H653.481V189.997H667.194ZM665.435 183.174V188.603H655.225V183.174H665.435ZM657.018 184.618V187.158H663.608V184.618H657.018ZM665.684 195.708V197.202H655.142V192.853H656.984V195.708H665.684ZM672.055 183.539C674.429 183.522 676.172 185.033 676.188 187.158C676.172 189.3 674.429 190.794 672.055 190.794C669.697 190.794 667.938 189.3 667.938 187.158C667.938 185.033 669.697 183.522 672.055 183.539ZM672.055 185.133C670.743 185.133 669.764 185.913 669.764 187.158C669.764 188.42 670.743 189.184 672.055 189.184C673.383 189.184 674.379 188.42 674.379 187.158C674.379 185.913 673.383 185.133 672.055 185.133ZM679.691 182.493V197.518H677.849V182.493H679.691ZM667.257 192.869C669.963 192.869 673.715 192.836 676.952 192.371L677.102 193.716C673.731 194.363 670.129 194.38 667.489 194.38L667.257 192.869Z" fill="#8E8D92"/>
<path d="M658.86 238.096C658.844 240.769 660.188 243.491 662.513 244.604L661.384 246.081C659.757 245.259 658.586 243.674 657.947 241.765C657.292 243.807 656.063 245.5 654.345 246.363L653.216 244.886C655.623 243.74 657.001 240.868 657.018 238.096V235.705H658.86V238.096ZM665.252 234.493V240.37H667.56V241.947H665.252V249.501H663.409V234.493H665.252ZM671.357 235.157C673.3 235.141 674.827 236.261 675.209 237.913H677.915V234.493H679.758V242.545H677.915V239.407H675.226C674.852 241.092 673.308 242.229 671.357 242.229C669.05 242.229 667.39 240.752 667.39 238.677C667.39 236.635 669.05 235.141 671.357 235.157ZM671.357 236.701C670.062 236.701 669.149 237.465 669.149 238.677C669.149 239.872 670.062 240.669 671.357 240.669C672.619 240.669 673.516 239.872 673.532 238.677C673.516 237.465 672.619 236.701 671.357 236.701ZM671.689 243.242V244.836H677.915V243.242H679.758V249.318H669.863V243.242H671.689ZM671.689 247.824H677.915V246.264H671.689V247.824ZM696.833 234.493V249.501H695.073V234.493H696.833ZM693.778 234.775V248.771H692.035V241.217H689.877V239.723H692.035V234.775H693.778ZM688.549 238.594C688.549 241.134 689.462 243.674 691.604 244.902L690.508 246.264C689.122 245.434 688.2 244.006 687.686 242.296C687.154 244.147 686.2 245.724 684.78 246.612L683.651 245.234C685.826 243.923 686.772 241.2 686.772 238.594V237.598H684.166V236.104H690.973V237.598H688.549V238.594ZM710.542 236.054V237.515H698.29V236.054H703.52V234.46H705.346V236.054H710.542ZM711.322 244.089V245.583H708.002V249.518H706.143V245.583H702.772V249.518H700.93V245.583H697.609V244.089H711.322ZM704.433 238.195C707.604 238.195 709.513 239.092 709.513 240.735C709.513 242.362 707.604 243.275 704.433 243.275C701.262 243.275 699.353 242.362 699.353 240.735C699.353 239.092 701.262 238.195 704.433 238.195ZM704.433 239.59C702.357 239.59 701.262 239.972 701.278 240.735C701.262 241.482 702.357 241.881 704.433 241.864C706.508 241.881 707.604 241.482 707.604 240.735C707.604 239.972 706.508 239.59 704.433 239.59Z" fill="#8E8D92"/>
<path d="M666.414 278.493V293.501H664.654V278.493H666.414ZM663.359 278.775V292.771H661.616V285.217H659.458V283.723H661.616V278.775H663.359ZM658.13 282.594C658.13 285.134 659.043 287.674 661.185 288.902L660.089 290.264C658.703 289.434 657.781 288.006 657.267 286.296C656.735 288.147 655.781 289.724 654.361 290.612L653.232 289.234C655.407 287.923 656.354 285.2 656.354 282.594V281.598H653.747V280.104H660.554V281.598H658.13V282.594ZM680.87 285.599V287.076H674.927V288.521H679.21V293.318H668.801V288.521H673.101V287.076H667.19V285.599H680.87ZM679.608 278.941V280.419H677.55V282.992H679.525V284.486H668.502V282.992H670.478V280.419H668.419V278.941H679.608ZM670.627 289.948V291.824H677.417V289.948H670.627ZM672.32 282.992H675.69V280.419H672.32V282.992ZM697.613 285.997V287.475H691.819V290.23H689.993V287.475H683.9V285.997H697.613ZM695.854 279.174V284.603H685.644V279.174H695.854ZM687.437 280.618V283.158H694.027V280.618H687.437ZM696.103 291.708V293.202H685.561V288.853H687.403V291.708H696.103ZM702.474 279.539C704.848 279.522 706.591 281.033 706.607 283.158C706.591 285.3 704.848 286.794 702.474 286.794C700.116 286.794 698.356 285.3 698.356 283.158C698.356 281.033 700.116 279.522 702.474 279.539ZM702.474 281.133C701.162 281.133 700.183 281.913 700.183 283.158C700.183 284.42 701.162 285.184 702.474 285.184C703.802 285.184 704.798 284.42 704.798 283.158C704.798 281.913 703.802 281.133 702.474 281.133ZM710.11 278.493V293.518H708.268V278.493H710.11ZM697.676 288.869C700.382 288.869 704.134 288.836 707.371 288.371L707.521 289.716C704.15 290.363 700.548 290.38 697.908 290.38L697.676 288.869Z" fill="#8E8D92"/>
<path d="M661.882 323.356V324.286C661.882 325.249 661.882 326.594 661.517 328.271L659.707 328.121C659.973 326.768 660.031 325.722 660.056 324.867H654.229V323.356H661.882ZM658.097 326.677V329.383C659.657 329.325 661.243 329.225 662.695 329.051L662.795 330.346C659.674 330.877 656.204 330.96 653.498 330.96L653.332 329.466C654.237 329.466 655.233 329.458 656.271 329.433V326.677H658.097ZM665.468 322.493V326.328H667.41V327.872H665.468V331.724H663.575V322.493H665.468ZM660.438 331.89C663.608 331.906 665.584 332.936 665.584 334.646C665.584 336.422 663.608 337.451 660.438 337.451C657.267 337.451 655.291 336.422 655.291 334.646C655.291 332.936 657.267 331.906 660.438 331.89ZM660.438 333.317C658.362 333.317 657.167 333.799 657.167 334.646C657.167 335.559 658.362 336.007 660.438 336.007C662.496 336.007 663.675 335.559 663.691 334.646C663.675 333.799 662.496 333.317 660.438 333.317ZM679.442 323.871V325.315C679.426 327.175 679.426 329.267 678.845 332.404L676.985 332.205C677.566 329.283 677.566 327.15 677.583 325.349H668.618V323.871H679.442ZM680.87 334.048V335.559H667.19V334.048H672.237V328.835H674.063V334.048H680.87ZM697.613 329.997V331.475H691.819V334.23H689.993V331.475H683.9V329.997H697.613ZM695.854 323.174V328.603H685.644V323.174H695.854ZM687.437 324.618V327.158H694.027V324.618H687.437ZM696.103 335.708V337.202H685.561V332.853H687.403V335.708H696.103ZM702.474 323.539C704.848 323.522 706.591 325.033 706.607 327.158C706.591 329.3 704.848 330.794 702.474 330.794C700.116 330.794 698.356 329.3 698.356 327.158C698.356 325.033 700.116 323.522 702.474 323.539ZM702.474 325.133C701.162 325.133 700.183 325.913 700.183 327.158C700.183 328.42 701.162 329.184 702.474 329.184C703.802 329.184 704.798 328.42 704.798 327.158C704.798 325.913 703.802 325.133 702.474 325.133ZM710.11 322.493V337.518H708.268V322.493H710.11ZM697.676 332.869C700.382 332.869 704.134 332.836 707.371 332.371L707.521 333.716C704.15 334.363 700.548 334.38 697.908 334.38L697.676 332.869Z" fill="#8E8D92"/>
<path d="M869.75 183.871V185.315C869.733 187.175 869.733 189.267 869.152 192.404L867.293 192.205C867.874 189.283 867.874 187.15 867.891 185.349H858.926V183.871H869.75ZM871.178 194.048V195.559H857.498V194.048H862.545V188.835H864.371V194.048H871.178ZM884.023 182.51V191.309H882.264V187.573H880.687V191.242H878.943V182.792H880.687V186.062H882.264V182.51H884.023ZM884.023 191.923V197.501H882.181V193.417H873.681V191.923H884.023ZM877.731 183.556C877.748 187.274 875.855 189.864 871.987 191.441L871.107 190.063C874.029 188.951 875.557 187.25 875.855 185.05H871.788V183.556H877.731ZM897.716 182.493V193.732H895.956V182.493H897.716ZM894.711 182.759V193.284H892.951V187.573H890.942V186.062H892.951V182.759H894.711ZM898.131 195.708V197.202H887.672V192.388H889.515V195.708H898.131ZM889.515 185.564C889.515 187.308 890.378 189.067 892.287 189.914L891.258 191.342C889.996 190.761 889.133 189.748 888.635 188.52C888.104 189.897 887.166 191.06 885.796 191.707L884.783 190.312C886.775 189.35 887.722 187.341 887.722 185.564V183.522H889.515V185.564ZM911.159 182.493V197.518H909.333V189.416H906.511V187.922H909.333V182.493H911.159ZM906.278 183.788V185.299H901.115V187.988H905.681V189.449H901.115V192.537C903.398 192.529 905.108 192.454 907.042 192.139L907.225 193.633C905.033 193.965 903.124 194.048 900.435 194.064H899.256V183.788H906.278Z" fill="#8E8D92"/>
<path d="M870.065 234.51V245.467H868.223V239.972H865.566V238.478H868.223V234.51H870.065ZM870.447 247.708V249.202H860.221V244.504H862.063V247.708H870.447ZM863.01 237.498C863.01 239.308 864.222 241.167 866.546 241.931L865.616 243.408C863.939 242.835 862.752 241.698 862.097 240.271C861.433 241.856 860.179 243.109 858.411 243.724L857.465 242.229C859.855 241.449 861.134 239.474 861.134 237.481V237.083H858.013V235.589H866.114V237.083H863.01V237.498ZM883.061 234.493V240.686H885.169V242.229H883.061V249.501H881.201V234.493H883.061ZM871.008 245.334C872.145 245.334 873.465 245.334 874.843 245.301V243.89C873.208 243.616 872.137 242.586 872.153 241.184C872.137 239.49 873.631 238.361 875.789 238.361C877.914 238.361 879.425 239.49 879.441 241.184C879.425 242.595 878.337 243.624 876.702 243.89V245.234C877.964 245.168 879.226 245.068 880.404 244.902L880.521 246.247C877.3 246.828 873.83 246.861 871.273 246.861L871.008 245.334ZM880.238 236.22V237.681H871.29V236.22H874.843V234.56H876.702V236.22H880.238ZM875.789 239.772C874.644 239.789 873.896 240.304 873.896 241.184C873.896 242.047 874.644 242.562 875.789 242.545C876.918 242.562 877.665 242.047 877.665 241.184C877.665 240.304 876.918 239.789 875.789 239.772ZM886.709 246.529C885.995 246.529 885.414 245.948 885.414 245.234C885.414 244.537 885.995 243.956 886.709 243.956C887.39 243.956 887.987 244.537 887.987 245.234C887.987 245.948 887.39 246.529 886.709 246.529ZM886.709 240.088C885.995 240.088 885.414 239.507 885.414 238.793C885.414 238.096 885.995 237.515 886.709 237.515C887.39 237.515 887.987 238.096 887.987 238.793C887.987 239.507 887.39 240.088 886.709 240.088ZM896.928 236.004V248.023H894.753V238.112H894.687L891.881 239.905V237.93L894.853 236.004H896.928ZM903.116 248.189C900.709 248.189 898.949 246.762 898.883 244.77H900.991C901.058 245.749 901.971 246.446 903.116 246.446C904.461 246.446 905.424 245.467 905.424 244.139C905.424 242.761 904.428 241.781 903.05 241.781C902.12 241.765 901.439 242.097 901.058 242.811H899.049L899.779 236.004H906.885V237.813H901.556L901.19 241.001H901.307C901.771 240.47 902.651 240.088 903.631 240.088C905.872 240.088 907.516 241.765 907.516 244.072C907.516 246.479 905.706 248.189 903.116 248.189ZM908.79 248.023L914.003 237.896V237.813H907.96V236.004H916.244V237.847L911.031 248.023H908.79ZM917.768 248.023L922.98 237.896V237.813H916.938V236.004H925.222V237.847L920.009 248.023H917.768ZM931.443 241.15V242.894H926.031V241.15H931.443ZM936.935 248.189C934.046 248.189 932.319 245.948 932.319 242.014C932.319 238.096 934.046 235.838 936.935 235.838C939.807 235.838 941.55 238.096 941.55 242.014C941.55 245.948 939.823 248.189 936.935 248.189ZM936.935 246.38C938.445 246.38 939.375 244.902 939.375 242.014C939.375 239.142 938.429 237.631 936.935 237.631C935.44 237.631 934.494 239.142 934.494 242.014C934.494 244.902 935.424 246.38 936.935 246.38ZM946.792 248.189C943.903 248.189 942.177 245.948 942.177 242.014C942.177 238.096 943.903 235.838 946.792 235.838C949.664 235.838 951.407 238.096 951.407 242.014C951.407 245.948 949.681 248.189 946.792 248.189ZM946.792 246.38C948.303 246.38 949.232 244.902 949.232 242.014C949.232 239.142 948.286 237.631 946.792 237.631C945.298 237.631 944.352 239.142 944.352 242.014C944.352 244.902 945.281 246.38 946.792 246.38ZM956.649 248.189C953.761 248.189 952.034 245.948 952.034 242.014C952.034 238.096 953.761 235.838 956.649 235.838C959.521 235.838 961.265 238.096 961.265 242.014C961.265 245.948 959.538 248.189 956.649 248.189ZM956.649 246.38C958.16 246.38 959.09 244.902 959.09 242.014C959.09 239.142 958.144 237.631 956.649 237.631C955.155 237.631 954.209 239.142 954.209 242.014C954.209 244.902 955.139 246.38 956.649 246.38ZM966.507 248.189C963.618 248.189 961.892 245.948 961.892 242.014C961.892 238.096 963.618 235.838 966.507 235.838C969.379 235.838 971.122 238.096 971.122 242.014C971.122 245.948 969.396 248.189 966.507 248.189ZM966.507 246.38C968.018 246.38 968.947 244.902 968.947 242.014C968.947 239.142 968.001 237.631 966.507 237.631C965.013 237.631 964.066 239.142 964.066 242.014C964.066 244.902 964.996 246.38 966.507 246.38ZM975.364 243.441C975.364 240.32 976.294 237.714 977.854 235.489H979.847C978.701 237.133 977.556 240.47 977.556 243.441C977.556 246.413 978.701 249.75 979.847 251.41H977.854C976.294 249.169 975.364 246.579 975.364 243.441ZM980.324 248.023V246.463L984.574 242.362C985.786 241.15 986.417 240.437 986.417 239.424C986.417 238.312 985.537 237.598 984.358 237.598C983.113 237.598 982.316 238.378 982.333 239.59H980.274C980.258 237.315 981.968 235.838 984.375 235.838C986.832 235.838 988.492 237.299 988.492 239.324C988.492 240.686 987.828 241.781 985.471 244.006L983.329 246.131V246.214H988.675V248.023H980.324ZM989.086 245.782V244.056L994.282 236.004H996.972V244.006H998.549V245.782H996.972V248.023H994.913V245.782H989.086ZM991.294 244.006H994.946V238.461H994.813L991.294 243.923V244.006ZM1004.46 238.096C1004.44 240.852 1005.88 243.607 1008.32 244.653L1007.23 246.131C1005.5 245.334 1004.23 243.74 1003.54 241.781C1002.85 243.898 1001.57 245.625 999.74 246.479L998.611 244.936C1001.12 243.856 1002.58 240.984 1002.58 238.096V235.705H1004.46V238.096ZM1011.26 234.493V249.518H1009.4V234.493H1011.26ZM1024.31 234.493V238.81H1026.4V240.354H1024.31V245.317H1022.43V234.493H1024.31ZM1020.22 235.639C1020.22 239.623 1017.63 242.462 1013.18 243.757L1012.42 242.296C1015.85 241.308 1017.89 239.44 1018.21 237.149H1013.05V235.639H1020.22ZM1024.87 247.708V249.202H1014.66V244.205H1016.54V247.708H1024.87ZM1041.76 234.51V245.517H1039.92V241.798H1036.35C1035.63 242.603 1034.57 243.093 1033.36 243.093C1031.11 243.093 1029.4 241.466 1029.4 239.258C1029.4 237.017 1031.11 235.406 1033.36 235.406C1034.56 235.406 1035.61 235.888 1036.33 236.685H1039.92V234.51H1041.76ZM1042.15 247.708V249.202H1031.92V244.388H1033.76V247.708H1042.15ZM1033.36 237.05C1032.07 237.05 1031.16 237.913 1031.16 239.258C1031.16 240.586 1032.07 241.449 1033.36 241.449C1034.59 241.449 1035.52 240.586 1035.54 239.258C1035.52 237.913 1034.59 237.05 1033.36 237.05ZM1037.15 238.179C1037.24 238.519 1037.3 238.876 1037.3 239.258C1037.3 239.623 1037.25 239.972 1037.17 240.304H1039.92V238.179H1037.15ZM1056.57 241.383V242.877H1050.62V244.122C1053.31 244.305 1054.89 245.234 1054.91 246.795C1054.89 248.521 1052.95 249.484 1049.71 249.484C1046.44 249.484 1044.48 248.521 1044.48 246.795C1044.48 245.234 1046.08 244.296 1048.8 244.122V242.877H1042.89V241.383H1056.57ZM1049.71 245.517C1047.52 245.533 1046.34 245.965 1046.36 246.795C1046.34 247.625 1047.52 248.073 1049.71 248.073C1051.85 248.073 1053.05 247.625 1053.07 246.795C1053.05 245.965 1051.85 245.533 1049.71 245.517ZM1055.34 235.157V236.635H1051.02C1051.31 237.872 1053.11 238.984 1055.92 239.241L1055.27 240.702C1052.55 240.428 1050.53 239.341 1049.71 237.813C1048.9 239.333 1046.91 240.428 1044.18 240.702L1043.55 239.241C1046.31 238.984 1048.1 237.855 1048.42 236.635H1044.13V235.157H1055.34ZM1070.28 242.993V244.487H1064.3V249.484H1062.47V244.487H1056.56V242.993H1070.28ZM1068.6 235.257V241.233H1058.24V235.257H1068.6ZM1060.05 236.734V239.789H1066.76V236.734H1060.05ZM1083.21 236.054V237.515H1070.95V236.054H1076.18V234.46H1078.01V236.054H1083.21ZM1083.99 244.089V245.583H1080.67V249.518H1078.81V245.583H1075.44V249.518H1073.59V245.583H1070.27V244.089H1083.99ZM1077.1 238.195C1080.27 238.195 1082.18 239.092 1082.18 240.735C1082.18 242.362 1080.27 243.275 1077.1 243.275C1073.93 243.275 1072.02 242.362 1072.02 240.735C1072.02 239.092 1073.93 238.195 1077.1 238.195ZM1077.1 239.59C1075.02 239.59 1073.93 239.972 1073.94 240.735C1073.93 241.482 1075.02 241.881 1077.1 241.864C1079.17 241.881 1080.27 241.482 1080.27 240.735C1080.27 239.972 1079.17 239.59 1077.1 239.59ZM1088.43 243.441C1088.43 246.579 1087.5 249.169 1085.94 251.41H1083.95C1085.09 249.75 1086.24 246.413 1086.24 243.441C1086.24 240.47 1085.09 237.133 1083.95 235.489H1085.94C1087.5 237.714 1088.43 240.32 1088.43 243.441Z" fill="#8E8D92"/>
<path d="M869.982 278.493V293.518H868.123V278.493H869.982ZM861.897 279.589C864.155 279.589 865.799 281.647 865.815 284.885C865.799 288.155 864.155 290.197 861.897 290.197C859.623 290.197 857.979 288.155 857.979 284.885C857.979 281.647 859.623 279.589 861.897 279.589ZM861.897 281.249C860.619 281.249 859.756 282.594 859.756 284.885C859.756 287.192 860.619 288.537 861.897 288.537C863.159 288.537 864.022 287.192 864.022 284.885C864.022 282.594 863.159 281.249 861.897 281.249ZM877.549 280.12V284.021H879.292V278.759H881.052V292.771H879.292V285.516H877.549V289.633H871.655V280.12H877.549ZM873.382 281.581V288.172H875.822V281.581H873.382ZM884.14 278.493V293.501H882.363V278.493H884.14ZM889.133 278.975C891.407 278.975 893.101 280.386 893.117 282.361C893.101 284.354 891.407 285.748 889.133 285.748C886.842 285.748 885.148 284.354 885.148 282.361C885.148 280.386 886.842 278.975 889.133 278.975ZM889.133 280.502C887.871 280.502 886.941 281.216 886.941 282.361C886.941 283.523 887.871 284.254 889.133 284.254C890.395 284.254 891.324 283.523 891.324 282.361C891.324 281.216 890.395 280.502 889.133 280.502ZM897.384 278.493V286.08H895.524V278.493H897.384ZM897.384 286.728V290.646H889.266V291.857H897.832V293.318H887.456V289.284H895.541V288.172H887.423V286.728H897.384ZM900.401 290.529C899.688 290.529 899.106 289.948 899.106 289.234C899.106 288.537 899.688 287.956 900.401 287.956C901.082 287.956 901.68 288.537 901.68 289.234C901.68 289.948 901.082 290.529 900.401 290.529ZM900.401 284.088C899.688 284.088 899.106 283.507 899.106 282.793C899.106 282.096 899.688 281.515 900.401 281.515C901.082 281.515 901.68 282.096 901.68 282.793C901.68 283.507 901.082 284.088 900.401 284.088ZM905.341 289.483C905.341 287.458 907.018 286.86 908.694 286.761C909.317 286.719 910.612 286.645 911.002 286.628V285.914C911.002 285.018 910.421 284.503 909.375 284.503C908.429 284.503 907.848 284.935 907.682 285.582H905.64C905.789 284.055 907.167 282.893 909.425 282.893C911.135 282.893 913.11 283.59 913.11 285.997V292.023H911.085V290.778H911.019C910.62 291.542 909.773 292.206 908.362 292.206C906.636 292.206 905.341 291.26 905.341 289.483ZM907.383 289.467C907.383 290.247 908.014 290.646 908.91 290.646C910.188 290.646 911.019 289.799 911.019 288.786V288.039L909.026 288.172C908.014 288.255 907.383 288.67 907.383 289.467ZM913.688 289.483C913.688 287.458 915.364 286.86 917.041 286.761C917.664 286.719 918.958 286.645 919.349 286.628V285.914C919.349 285.018 918.768 284.503 917.722 284.503C916.775 284.503 916.194 284.935 916.028 285.582H913.986C914.136 284.055 915.514 282.893 917.771 282.893C919.481 282.893 921.457 283.59 921.457 285.997V292.023H919.432V290.778H919.365C918.967 291.542 918.12 292.206 916.709 292.206C914.982 292.206 913.688 291.26 913.688 289.483ZM915.729 289.467C915.729 290.247 916.36 290.646 917.257 290.646C918.535 290.646 919.365 289.799 919.365 288.786V288.039L917.373 288.172C916.36 288.255 915.729 288.67 915.729 289.467ZM922.034 289.483C922.034 287.458 923.711 286.86 925.388 286.761C926.01 286.719 927.305 286.645 927.695 286.628V285.914C927.695 285.018 927.114 284.503 926.068 284.503C925.122 284.503 924.541 284.935 924.375 285.582H922.333C922.482 284.055 923.86 282.893 926.118 282.893C927.828 282.893 929.804 283.59 929.804 285.997V292.023H927.778V290.778H927.712C927.313 291.542 926.467 292.206 925.056 292.206C923.329 292.206 922.034 291.26 922.034 289.483ZM924.076 289.467C924.076 290.247 924.707 290.646 925.604 290.646C926.882 290.646 927.712 289.799 927.712 288.786V288.039L925.72 288.172C924.707 288.255 924.076 288.67 924.076 289.467ZM930.381 289.483C930.381 287.458 932.058 286.86 933.734 286.761C934.357 286.719 935.652 286.645 936.042 286.628V285.914C936.042 285.018 935.461 284.503 934.415 284.503C933.469 284.503 932.888 284.935 932.722 285.582H930.68C930.829 284.055 932.207 282.893 934.465 282.893C936.175 282.893 938.15 283.59 938.15 285.997V292.023H936.125V290.778H936.059C935.66 291.542 934.813 292.206 933.402 292.206C931.676 292.206 930.381 291.26 930.381 289.483ZM932.423 289.467C932.423 290.247 933.054 290.646 933.95 290.646C935.229 290.646 936.059 289.799 936.059 288.786V288.039L934.066 288.172C933.054 288.255 932.423 288.67 932.423 289.467ZM945.02 290.347C943.476 290.347 942.297 289.135 942.297 286.943C942.297 284.719 943.525 283.557 945.02 283.557C946.099 283.557 946.63 284.204 946.846 284.669H946.929V283.706H948.539V288.139C948.556 288.703 948.788 288.969 949.236 288.969C950.083 288.969 950.631 287.989 950.631 286.512C950.647 283.623 948.605 281.73 945.584 281.73C942.496 281.73 940.521 283.972 940.521 286.943C940.521 290.164 942.247 292.189 945.534 292.173C946.713 292.173 947.593 292.073 948.539 291.824V293.352C947.659 293.601 946.63 293.75 945.534 293.75C941.367 293.75 938.943 291.094 938.943 286.943C938.927 283.009 941.683 280.153 945.584 280.153C949.502 280.153 952.225 282.826 952.225 286.462C952.225 288.985 950.946 290.43 949.087 290.43C947.983 290.43 947.153 289.898 946.995 289.151H946.912C946.696 289.616 946.148 290.347 945.02 290.347ZM945.518 288.819C946.464 288.836 946.962 288.089 946.962 286.943C946.962 285.798 946.464 285.067 945.518 285.067C944.604 285.067 944.09 285.848 944.106 286.943C944.09 288.039 944.621 288.819 945.518 288.819ZM952.619 289.483C952.619 287.458 954.296 286.86 955.973 286.761C956.595 286.719 957.89 286.645 958.28 286.628V285.914C958.28 285.018 957.699 284.503 956.653 284.503C955.707 284.503 955.126 284.935 954.96 285.582H952.918C953.067 284.055 954.445 282.893 956.703 282.893C958.413 282.893 960.389 283.59 960.389 285.997V292.023H958.363V290.778H958.297C957.898 291.542 957.052 292.206 955.641 292.206C953.914 292.206 952.619 291.26 952.619 289.483ZM954.661 289.467C954.661 290.247 955.292 290.646 956.188 290.646C957.467 290.646 958.297 289.799 958.297 288.786V288.039L956.305 288.172C955.292 288.255 954.661 288.67 954.661 289.467ZM960.966 289.483C960.966 287.458 962.643 286.86 964.319 286.761C964.942 286.719 966.237 286.645 966.627 286.628V285.914C966.627 285.018 966.046 284.503 965 284.503C964.054 284.503 963.473 284.935 963.307 285.582H961.265C961.414 284.055 962.792 282.893 965.05 282.893C966.76 282.893 968.735 283.59 968.735 285.997V292.023H966.71V290.778H966.644C966.245 291.542 965.398 292.206 963.987 292.206C962.261 292.206 960.966 291.26 960.966 289.483ZM963.008 289.467C963.008 290.247 963.639 290.646 964.535 290.646C965.813 290.646 966.644 289.799 966.644 288.786V288.039L964.651 288.172C963.639 288.255 963.008 288.67 963.008 289.467ZM969.312 289.483C969.312 287.458 970.989 286.86 972.666 286.761C973.289 286.719 974.583 286.645 974.974 286.628V285.914C974.974 285.018 974.393 284.503 973.347 284.503C972.4 284.503 971.819 284.935 971.653 285.582H969.611C969.761 284.055 971.139 282.893 973.396 282.893C975.106 282.893 977.082 283.59 977.082 285.997V292.023H975.057V290.778H974.99C974.592 291.542 973.745 292.206 972.334 292.206C970.607 292.206 969.312 291.26 969.312 289.483ZM971.354 289.467C971.354 290.247 971.985 290.646 972.882 290.646C974.16 290.646 974.99 289.799 974.99 288.786V288.039L972.998 288.172C971.985 288.255 971.354 288.67 971.354 289.467ZM979.386 292.156C978.672 292.156 978.091 291.575 978.091 290.861C978.091 290.164 978.672 289.583 979.386 289.583C980.066 289.583 980.664 290.164 980.664 290.861C980.664 291.575 980.066 292.156 979.386 292.156ZM981.291 289.483C981.291 287.458 982.968 286.86 984.645 286.761C985.267 286.719 986.562 286.645 986.952 286.628V285.914C986.952 285.018 986.371 284.503 985.325 284.503C984.379 284.503 983.798 284.935 983.632 285.582H981.59C981.739 284.055 983.117 282.893 985.375 282.893C987.085 282.893 989.061 283.59 989.061 285.997V292.023H987.035V290.778H986.969C986.57 291.542 985.724 292.206 984.312 292.206C982.586 292.206 981.291 291.26 981.291 289.483ZM983.333 289.467C983.333 290.247 983.964 290.646 984.86 290.646C986.139 290.646 986.969 289.799 986.969 288.786V288.039L984.977 288.172C983.964 288.255 983.333 288.67 983.333 289.467ZM989.638 289.483C989.638 287.458 991.314 286.86 992.991 286.761C993.614 286.719 994.909 286.645 995.299 286.628V285.914C995.299 285.018 994.718 284.503 993.672 284.503C992.726 284.503 992.145 284.935 991.979 285.582H989.937C990.086 284.055 991.464 282.893 993.722 282.893C995.432 282.893 997.407 283.59 997.407 285.997V292.023H995.382V290.778H995.315C994.917 291.542 994.07 292.206 992.659 292.206C990.933 292.206 989.638 291.26 989.638 289.483ZM991.68 289.467C991.68 290.247 992.311 290.646 993.207 290.646C994.485 290.646 995.315 289.799 995.315 288.786V288.039L993.323 288.172C992.311 288.255 991.68 288.67 991.68 289.467ZM997.984 289.483C997.984 287.458 999.661 286.86 1001.34 286.761C1001.96 286.719 1003.26 286.645 1003.65 286.628V285.914C1003.65 285.018 1003.06 284.503 1002.02 284.503C1001.07 284.503 1000.49 284.935 1000.33 285.582H998.283C998.433 284.055 999.811 282.893 1002.07 282.893C1003.78 282.893 1005.75 283.59 1005.75 285.997V292.023H1003.73V290.778H1003.66C1003.26 291.542 1002.42 292.206 1001.01 292.206C999.279 292.206 997.984 291.26 997.984 289.483ZM1000.03 289.467C1000.03 290.247 1000.66 290.646 1001.55 290.646C1002.83 290.646 1003.66 289.799 1003.66 288.786V288.039L1001.67 288.172C1000.66 288.255 1000.03 288.67 1000.03 289.467Z" fill="#8E8D92"/>
<path d="M128.617 416.341V417.835H118.191V412.207H120.034V416.341H128.617ZM130.178 419.678V421.172H126.891V426.501H125.031V421.172H121.645V426.501H119.802V421.172H116.498V419.678H130.178ZM137.545 412.522V417.171H132.631V419.063C135.113 419.055 136.773 418.972 138.641 418.665L138.79 420.176C136.715 420.491 134.889 420.558 132 420.558H130.771V415.743H135.702V414H130.755V412.522H137.545ZM142.758 411.51V422.55H140.915V416.772H138.358V415.212H140.915V411.51H142.758ZM143.156 424.708V426.202H132.83V421.67H134.673V424.708H143.156ZM157.596 423.147V424.642H143.883V423.147H149.76V419.678H151.586V423.147H157.596ZM151.636 413.502C151.636 415.776 153.91 418.018 157.064 418.516L156.268 420.043C153.728 419.562 151.652 418.109 150.656 416.142C149.66 418.101 147.602 419.578 145.078 420.043L144.281 418.516C147.419 418.018 149.66 415.76 149.677 413.502V412.406H151.636V413.502ZM171.288 423.147V424.691H157.575V423.147H171.288ZM170.093 412.888V414.365H167.901V419.146H170.043V420.607H158.754V419.146H160.862V414.365H158.704V412.888H170.093ZM162.705 419.146H166.075V414.365H162.705V419.146ZM183.47 419.362V420.823H172.944V412.672H183.337V414.166H174.82V415.976H182.988V417.42H174.82V419.362H183.47ZM184.98 423.164V424.675H171.268V423.164H184.98Z" fill="#8E8D92"/>
<path d="M121.86 459.096C121.844 461.769 123.188 464.491 125.513 465.604L124.384 467.081C122.757 466.259 121.586 464.674 120.947 462.765C120.292 464.807 119.063 466.5 117.345 467.363L116.216 465.886C118.623 464.74 120.001 461.868 120.018 459.096V456.705H121.86V459.096ZM128.252 455.493V461.37H130.56V462.947H128.252V470.501H126.409V455.493H128.252ZM134.357 456.157C136.3 456.141 137.827 457.261 138.209 458.913H140.915V455.493H142.758V463.545H140.915V460.407H138.226C137.852 462.092 136.308 463.229 134.357 463.229C132.05 463.229 130.39 461.752 130.39 459.677C130.39 457.635 132.05 456.141 134.357 456.157ZM134.357 457.701C133.062 457.701 132.149 458.465 132.149 459.677C132.149 460.872 133.062 461.669 134.357 461.669C135.619 461.669 136.516 460.872 136.532 459.677C136.516 458.465 135.619 457.701 134.357 457.701ZM134.689 464.242V465.836H140.915V464.242H142.758V470.318H132.863V464.242H134.689ZM134.689 468.824H140.915V467.264H134.689V468.824ZM149.262 459.76C149.262 462.084 150.64 464.724 153.014 465.819L151.984 467.28C150.291 466.483 149.038 464.873 148.365 462.997C147.685 465.056 146.373 466.815 144.646 467.646L143.567 466.201C145.958 465.072 147.402 462.25 147.419 459.76V458.498H144.148V456.971H152.399V458.498H149.262V459.76ZM155.637 455.493V461.337H157.944V462.881H155.637V470.501H153.794V455.493H155.637ZM174.306 462.449V463.96H160.609V462.449H174.306ZM172.729 459.793V461.271H162.286V455.975H172.646V457.469H164.129V459.793H172.729ZM167.433 465.006C170.67 464.989 172.612 465.985 172.629 467.729C172.612 469.488 170.67 470.484 167.433 470.484C164.162 470.484 162.203 469.488 162.203 467.729C162.203 465.985 164.162 464.989 167.433 465.006ZM167.433 466.417C165.241 466.417 164.062 466.882 164.079 467.729C164.062 468.608 165.241 469.057 167.433 469.057C169.574 469.057 170.77 468.608 170.786 467.729C170.77 466.882 169.574 466.417 167.433 466.417ZM187.998 463.611V465.105H174.285V463.611H180.229V462.366H176.028V458.382H184.462V457.27H175.979V455.825H186.305V459.727H177.854V460.922H186.604V462.366H182.055V463.611H187.998ZM186.388 466.052V470.401H184.528V467.513H175.812V466.052H186.388ZM200.562 455.51V466.583H198.719V461.055H195.697V464.143H188.675V456.489H190.518V458.913H193.871V456.489H195.697V459.561H198.719V455.51H200.562ZM200.894 468.708V470.202H190.667V465.487H192.543V468.708H200.894ZM190.518 462.682H193.871V460.341H190.518V462.682ZM214.702 457.502V458.996H202.301V457.502H207.597V455.692H209.423V457.502H214.702ZM215.399 467.396V468.891H201.687V467.396H207.597V465.554C204.999 465.346 203.43 464.309 203.446 462.648C203.43 460.839 205.372 459.76 208.51 459.76C211.598 459.76 213.557 460.839 213.557 462.648C213.557 464.3 211.979 465.338 209.423 465.537V467.396H215.399ZM208.51 461.204C206.468 461.221 205.322 461.702 205.339 462.648C205.322 463.611 206.468 464.093 208.51 464.109C210.519 464.093 211.664 463.611 211.664 462.648C211.664 461.702 210.519 461.221 208.51 461.204ZM220.239 467.529C219.525 467.529 218.944 466.948 218.944 466.234C218.944 465.537 219.525 464.956 220.239 464.956C220.92 464.956 221.518 465.537 221.518 466.234C221.518 466.948 220.92 467.529 220.239 467.529ZM220.239 461.088C219.525 461.088 218.944 460.507 218.944 459.793C218.944 459.096 219.525 458.515 220.239 458.515C220.92 458.515 221.518 459.096 221.518 459.793C221.518 460.507 220.92 461.088 220.239 461.088ZM229.844 469.189C227.437 469.189 225.677 467.762 225.61 465.77H227.719C227.785 466.749 228.698 467.446 229.844 467.446C231.188 467.446 232.151 466.467 232.151 465.139C232.151 463.761 231.155 462.781 229.777 462.781C228.848 462.765 228.167 463.097 227.785 463.811H225.776L226.507 457.004H233.612V458.813H228.283L227.918 462.001H228.034C228.499 461.47 229.379 461.088 230.358 461.088C232.6 461.088 234.243 462.765 234.243 465.072C234.243 467.479 232.434 469.189 229.844 469.189ZM239.336 469.189C236.929 469.189 235.169 467.762 235.103 465.77H237.211C237.277 466.749 238.19 467.446 239.336 467.446C240.681 467.446 241.644 466.467 241.644 465.139C241.644 463.761 240.647 462.781 239.27 462.781C238.34 462.765 237.659 463.097 237.277 463.811H235.269L235.999 457.004H243.104V458.813H237.775L237.41 462.001H237.526C237.991 461.47 238.871 461.088 239.851 461.088C242.092 461.088 243.735 462.765 243.735 465.072C243.735 467.479 241.926 469.189 239.336 469.189ZM248.828 469.189C246.421 469.189 244.661 467.762 244.595 465.77H246.703C246.77 466.749 247.683 467.446 248.828 467.446C250.173 467.446 251.136 466.467 251.136 465.139C251.136 463.761 250.14 462.781 248.762 462.781C247.832 462.765 247.151 463.097 246.77 463.811H244.761L245.491 457.004H252.597V458.813H247.268L246.902 462.001H247.019C247.483 461.47 248.363 461.088 249.343 461.088C251.584 461.088 253.228 462.765 253.228 465.072C253.228 467.479 251.418 469.189 248.828 469.189ZM259.532 462.15V463.894H254.12V462.15H259.532ZM265.09 469.189C262.749 469.173 260.392 467.778 260.408 463.346C260.408 459.229 262.284 456.838 265.223 456.838C267.547 456.838 269.141 458.299 269.406 460.241H267.265C267.049 459.328 266.318 458.714 265.223 458.714C263.479 458.714 262.5 460.258 262.5 462.781H262.616C263.23 461.752 264.393 461.138 265.704 461.138C267.862 461.138 269.522 462.765 269.522 465.039C269.522 467.43 267.746 469.206 265.09 469.189ZM265.09 467.446C266.435 467.446 267.431 466.4 267.431 465.089C267.431 463.811 266.451 462.781 265.123 462.781C263.778 462.781 262.749 463.844 262.732 465.105C262.749 466.367 263.729 467.446 265.09 467.446ZM274.715 469.189C272.042 469.189 270.149 467.762 270.149 465.803C270.149 464.275 271.278 463.03 272.723 462.798V462.731C271.461 462.466 270.598 461.37 270.598 460.059C270.598 458.199 272.341 456.838 274.715 456.838C277.072 456.838 278.815 458.199 278.815 460.059C278.815 461.37 277.936 462.466 276.69 462.731V462.798C278.135 463.03 279.28 464.275 279.28 465.803C279.28 467.762 277.371 469.189 274.715 469.189ZM274.715 467.479C276.126 467.479 277.056 466.716 277.056 465.604C277.056 464.475 276.06 463.645 274.715 463.645C273.354 463.645 272.357 464.475 272.374 465.604C272.357 466.716 273.287 467.479 274.715 467.479ZM274.715 462.034C275.877 462.034 276.707 461.304 276.707 460.258C276.707 459.245 275.894 458.531 274.715 458.531C273.52 458.531 272.706 459.229 272.706 460.258C272.706 461.304 273.536 462.034 274.715 462.034ZM285.552 462.15V463.894H280.14V462.15H285.552ZM291.043 469.189C288.154 469.189 286.428 466.948 286.428 463.014C286.428 459.096 288.154 456.838 291.043 456.838C293.915 456.838 295.658 459.096 295.658 463.014C295.658 466.948 293.932 469.189 291.043 469.189ZM291.043 467.38C292.554 467.38 293.483 465.902 293.483 463.014C293.483 460.142 292.537 458.631 291.043 458.631C289.549 458.631 288.603 460.142 288.603 463.014C288.603 465.902 289.532 467.38 291.043 467.38ZM300.9 469.189C298.012 469.189 296.285 466.948 296.285 463.014C296.285 459.096 298.012 456.838 300.9 456.838C303.772 456.838 305.516 459.096 305.516 463.014C305.516 466.948 303.789 469.189 300.9 469.189ZM300.9 467.38C302.411 467.38 303.341 465.902 303.341 463.014C303.341 460.142 302.395 458.631 300.9 458.631C299.406 458.631 298.46 460.142 298.46 463.014C298.46 465.902 299.39 467.38 300.9 467.38ZM306.109 466.782V465.056L311.306 457.004H313.995V465.006H315.572V466.782H313.995V469.023H311.937V466.782H306.109ZM308.317 465.006H311.97V459.461H311.837L308.317 464.923V465.006ZM316.747 469.023L321.96 458.896V458.813H315.917V457.004H324.201V458.847L318.988 469.023H316.747ZM329.045 469.189C326.638 469.189 324.878 467.762 324.812 465.77H326.92C326.986 466.749 327.899 467.446 329.045 467.446C330.39 467.446 331.353 466.467 331.353 465.139C331.353 463.761 330.356 462.781 328.979 462.781C328.049 462.765 327.368 463.097 326.986 463.811H324.978L325.708 457.004H332.813V458.813H327.484L327.119 462.001H327.235C327.7 461.47 328.58 461.088 329.56 461.088C331.801 461.088 333.444 462.765 333.444 465.072C333.444 467.479 331.635 469.189 329.045 469.189ZM340.177 455.311V470.717H338.201V455.311H340.177ZM357.518 455.493V470.501H355.758V462.848H354.064V469.737H352.371V455.775H354.064V461.37H355.758V455.493H357.518ZM350.678 457.27V458.764H346.926V465.438C348.561 465.421 349.906 465.338 351.425 465.056L351.558 466.566C349.748 466.932 348.171 466.981 346.079 466.998H345.066V457.27H350.678ZM372.007 467.28V468.774H358.294V467.28H361.847V464.192H359.473V462.698H361.581V458.249H359.423V456.771H370.812V458.249H368.62V462.698H370.762V464.192H368.388V467.28H372.007ZM363.424 462.698H366.794V458.249H363.424V462.698ZM363.689 467.28H366.545V464.192H363.689V467.28ZM376.847 467.529C376.133 467.529 375.552 466.948 375.552 466.234C375.552 465.537 376.133 464.956 376.847 464.956C377.527 464.956 378.125 465.537 378.125 466.234C378.125 466.948 377.527 467.529 376.847 467.529ZM376.847 461.088C376.133 461.088 375.552 460.507 375.552 459.793C375.552 459.096 376.133 458.515 376.847 458.515C377.527 458.515 378.125 459.096 378.125 459.793C378.125 460.507 377.527 461.088 376.847 461.088ZM387.597 463.528V465.952C388.9 465.886 390.211 465.77 391.448 465.587L391.598 466.948C388.228 467.562 384.625 467.596 381.985 467.596L381.753 466.102C382.923 466.093 384.301 466.085 385.754 466.035V463.528H387.597ZM390.834 457.336V458.83H387.63C387.713 460.432 388.983 461.876 391.249 462.449L390.402 463.894C388.626 463.412 387.356 462.375 386.684 461.038C386.02 462.449 384.766 463.528 382.981 464.01L382.102 462.615C384.368 461.993 385.613 460.515 385.721 458.83H382.55V457.336H385.754V455.626H387.597V457.336H390.834ZM394.188 455.493V470.518H392.345V455.493H394.188ZM399.546 456.34C400.758 456.34 401.804 456.788 402.518 457.535H406.104V455.493H407.946V464.325H406.104V462.416H402.518C401.804 463.163 400.75 463.603 399.546 463.595C397.288 463.611 395.578 462.084 395.578 459.976C395.578 457.851 397.288 456.34 399.546 456.34ZM399.546 457.917C398.251 457.917 397.338 458.714 397.338 459.976C397.338 461.204 398.251 462.034 399.546 462.034C400.791 462.034 401.704 461.204 401.721 459.976C401.704 458.714 400.791 457.917 399.546 457.917ZM402.866 464.641C406.021 464.641 407.996 465.72 407.996 467.562C407.996 469.405 406.021 470.484 402.866 470.484C399.729 470.484 397.753 469.405 397.77 467.562C397.753 465.72 399.729 464.641 402.866 464.641ZM402.866 466.052C400.774 466.052 399.562 466.583 399.579 467.562C399.562 468.509 400.774 469.04 402.866 469.04C404.991 469.04 406.187 468.509 406.187 467.562C406.187 466.583 404.991 466.052 402.866 466.052ZM403.348 459.013C403.431 459.32 403.48 459.635 403.48 459.976C403.48 460.308 403.431 460.623 403.364 460.922H406.104V459.013H403.348ZM422.087 455.493V470.501H420.327V462.897H418.783V469.771H417.04V455.759H418.783V461.37H420.327V455.493H422.087ZM413.736 459.328C413.736 462.001 414.633 464.458 416.857 465.604L415.778 467.015C414.351 466.251 413.413 464.931 412.89 463.296C412.375 465.164 411.437 466.666 409.951 467.546L408.822 466.135C411.047 464.873 411.943 462.25 411.943 459.328V458.614H409.271V457.137H416.193V458.614H413.736V459.328Z" fill="#8E8D92"/>
<path d="M122.043 503.096C122.043 505.885 123.371 508.624 125.762 509.67L124.649 511.147C122.948 510.317 121.752 508.724 121.113 506.765C120.458 508.832 119.237 510.55 117.511 511.43L116.349 509.936C118.789 508.79 120.15 505.901 120.167 503.096V500.705H122.043V503.096ZM129.082 499.493V514.518H127.256V505.835H124.102V504.341H127.256V499.493H129.082ZM137.014 499.643C140.434 499.643 142.409 500.556 142.426 502.216C142.409 503.893 140.434 504.789 137.014 504.806C133.594 504.789 131.602 503.893 131.602 502.216C131.602 500.556 133.594 499.643 137.014 499.643ZM137.014 501.021C134.723 501.021 133.527 501.436 133.544 502.216C133.527 503.046 134.723 503.428 137.014 503.444C139.338 503.428 140.517 503.046 140.517 502.216C140.517 501.436 139.338 501.021 137.014 501.021ZM143.87 505.586V507.03H137.927V508.176H142.16V511.845H133.627V512.957H142.575V514.368H131.817V510.533H140.351V509.537H131.801V508.176H136.084V507.03H130.19V505.586H143.87ZM157.562 507.346V508.79H143.85V507.346H157.562ZM155.836 509.936V514.501H153.977V511.413H145.394V509.936H155.836ZM156.035 504.822V506.233H145.609V499.858H155.919V501.303H147.452V502.332H155.554V503.71H147.452V504.822H156.035ZM170.143 499.493V507.246H168.3V505.619H165.278V506.765H158.256V500.157H160.099V502.05H163.452V500.157H165.278V501.485H168.3V499.493H170.143ZM170.143 507.86V511.712H162.107V512.857H170.624V514.318H160.265V510.351H168.3V509.305H160.248V507.86H170.143ZM160.099 505.304H163.452V503.461H160.099V505.304ZM165.278 504.208H168.3V502.88H165.278V504.208ZM176.945 503.096C176.929 505.852 178.373 508.607 180.813 509.653L179.718 511.131C177.991 510.334 176.721 508.74 176.032 506.781C175.343 508.898 174.057 510.625 172.23 511.479L171.102 509.936C173.608 508.856 175.069 505.984 175.069 503.096V500.705H176.945V503.096ZM183.752 499.493V514.518H181.893V499.493H183.752ZM193.539 503.096C193.539 505.885 194.867 508.624 197.258 509.67L196.146 511.147C194.444 510.317 193.249 508.724 192.609 506.765C191.954 508.832 190.733 510.55 189.007 511.43L187.845 509.936C190.285 508.79 191.646 505.901 191.663 503.096V500.705H193.539V503.096ZM200.578 499.493V514.518H198.752V505.835H195.598V504.341H198.752V499.493H200.578ZM214.603 499.493V514.501H212.843V506.848H211.149V513.737H209.456V499.775H211.149V505.37H212.843V499.493H214.603ZM207.763 501.27V502.764H204.011V509.438C205.646 509.421 206.991 509.338 208.51 509.056L208.643 510.566C206.833 510.932 205.256 510.981 203.164 510.998H202.151V501.27H207.763ZM229.075 506.997V508.475H223.281V511.23H221.455V508.475H215.362V506.997H229.075ZM227.315 500.174V505.603H217.105V500.174H227.315ZM218.898 501.618V504.158H225.489V501.618H218.898ZM227.564 512.708V514.202H217.022V509.853H218.865V512.708H227.564ZM241.074 500.406V501.751C241.074 503.154 241.074 504.689 240.676 506.814H242.751V508.309H236.791V514.518H234.932V508.309H229.071V506.814H238.8C239.215 504.772 239.231 503.245 239.231 501.9H230.682V500.406H241.074ZM258.299 499.51V510.467H256.439V499.51H258.299ZM258.714 512.708V514.202H248.371V509.421H250.23V512.708H258.714ZM251.393 501.801C251.393 503.893 252.621 505.868 254.995 506.665L254.049 508.126C252.339 507.528 251.119 506.333 250.463 504.806C249.782 506.441 248.545 507.752 246.777 508.392L245.814 506.931C248.255 506.067 249.483 503.959 249.483 501.801V500.34H251.393V501.801ZM273.17 507.628V509.122H259.49V507.628H265.4V505.885H267.227V507.628H273.17ZM267.227 499.51V501.037H271.825V502.481H267.359C267.567 503.818 269.352 504.938 272.473 505.221L271.875 506.648C269.227 506.391 267.251 505.495 266.313 504.125C265.375 505.495 263.4 506.391 260.752 506.648L260.154 505.221C263.259 504.938 265.043 503.818 265.268 502.481H260.835V501.037H265.4V499.51H267.227ZM271.626 512.708V514.202H261.184V510.085H263.026V512.708H271.626ZM285.75 509.072V514.501H283.907V510.533H275.523V509.072H285.75ZM285.75 499.493V508.358H283.907V506.366H280.388C279.674 507.163 278.595 507.645 277.35 507.645C275.092 507.645 273.382 506.117 273.382 503.959C273.382 501.834 275.092 500.307 277.35 500.323C278.586 500.315 279.666 500.78 280.371 501.568H283.907V499.493H285.75ZM277.35 501.884C276.055 501.884 275.142 502.714 275.142 503.959C275.142 505.254 276.055 506.067 277.35 506.084C278.578 506.067 279.508 505.254 279.524 503.959C279.508 502.714 278.578 501.884 277.35 501.884ZM281.168 504.872H283.907V503.079H281.185C281.243 503.361 281.284 503.652 281.284 503.959C281.284 504.274 281.243 504.582 281.168 504.872ZM300.588 511.23V512.758H286.875V511.23H292.785V508.79H288.502V503.876H297.135V502.017H288.469V500.522H298.961V505.337H290.345V507.279H299.31V508.79H294.611V511.23H300.588ZM308.466 513.189C305.893 513.189 304.066 511.795 304.017 509.77H306.191C306.258 510.732 307.221 511.363 308.466 511.363C309.794 511.363 310.74 510.633 310.74 509.57C310.74 508.491 309.811 507.711 308.25 507.711H307.171V506.051H308.25C309.528 506.051 310.425 505.337 310.408 504.291C310.425 503.278 309.661 502.598 308.482 502.598C307.354 502.598 306.374 503.229 306.341 504.241H304.266C304.315 502.216 306.142 500.838 308.499 500.838C310.939 500.838 312.517 502.332 312.5 504.175C312.517 505.52 311.62 506.499 310.309 506.765V506.864C312.002 507.097 312.965 508.176 312.948 509.687C312.965 511.712 311.072 513.189 308.466 513.189ZM318.273 513.189C315.385 513.189 313.658 510.948 313.658 507.014C313.658 503.096 315.385 500.838 318.273 500.838C321.146 500.838 322.889 503.096 322.889 507.014C322.889 510.948 321.162 513.189 318.273 513.189ZM318.273 511.38C319.784 511.38 320.714 509.902 320.714 507.014C320.714 504.142 319.768 502.631 318.273 502.631C316.779 502.631 315.833 504.142 315.833 507.014C315.833 509.902 316.763 511.38 318.273 511.38ZM325.641 511.845L324.246 516.493H322.669L323.532 511.845H325.641ZM329.584 513.023V511.463L333.834 507.362C335.046 506.15 335.677 505.437 335.677 504.424C335.677 503.312 334.797 502.598 333.618 502.598C332.373 502.598 331.576 503.378 331.593 504.59H329.534C329.518 502.315 331.228 500.838 333.635 500.838C336.092 500.838 337.752 502.299 337.752 504.324C337.752 505.686 337.088 506.781 334.73 509.006L332.589 511.131V511.214H337.935V513.023H329.584ZM352.009 506.964V508.458H338.329V506.964H352.009ZM346.065 499.526V500.888H350.664V502.349H346.215C346.439 503.577 348.207 504.606 351.328 504.822L350.764 506.233C348.074 506.026 346.09 505.188 345.152 503.893C344.214 505.188 342.214 506.026 339.541 506.233L338.977 504.822C342.081 504.606 343.849 503.577 344.09 502.349H339.674V500.888H344.239V499.526H346.065ZM345.152 509.421C348.423 509.421 350.332 510.317 350.349 511.961C350.332 513.588 348.423 514.484 345.152 514.484C341.865 514.484 339.923 513.588 339.923 511.961C339.923 510.317 341.865 509.421 345.152 509.421ZM345.152 510.799C342.944 510.799 341.782 511.181 341.799 511.961C341.782 512.725 342.944 513.106 345.152 513.106C347.311 513.106 348.489 512.725 348.506 511.961C348.489 511.181 347.311 510.799 345.152 510.799ZM359.92 513.189C357.347 513.189 355.521 511.795 355.471 509.77H357.646C357.712 510.732 358.675 511.363 359.92 511.363C361.248 511.363 362.194 510.633 362.194 509.57C362.194 508.491 361.265 507.711 359.704 507.711H358.625V506.051H359.704C360.982 506.051 361.879 505.337 361.862 504.291C361.879 503.278 361.115 502.598 359.937 502.598C358.808 502.598 357.828 503.229 357.795 504.241H355.72C355.77 502.216 357.596 500.838 359.953 500.838C362.394 500.838 363.971 502.332 363.954 504.175C363.971 505.52 363.074 506.499 361.763 506.765V506.864C363.456 507.097 364.419 508.176 364.402 509.687C364.419 511.712 362.526 513.189 359.92 513.189ZM370.773 506.15V507.894H365.361V506.15H370.773ZM371.417 513.023V511.463L375.667 507.362C376.879 506.15 377.51 505.437 377.51 504.424C377.51 503.312 376.63 502.598 375.451 502.598C374.206 502.598 373.409 503.378 373.426 504.59H371.367C371.351 502.315 373.061 500.838 375.468 500.838C377.925 500.838 379.585 502.299 379.585 504.324C379.585 505.686 378.921 506.781 376.563 509.006L374.422 511.131V511.214H379.768V513.023H371.417ZM393.178 501.502V502.996H380.776V501.502H386.072V499.692H387.898V501.502H393.178ZM393.875 511.396V512.891H380.162V511.396H386.072V509.554C383.474 509.346 381.905 508.309 381.922 506.648C381.905 504.839 383.848 503.76 386.985 503.76C390.073 503.76 392.032 504.839 392.032 506.648C392.032 508.3 390.455 509.338 387.898 509.537V511.396H393.875ZM386.985 505.204C384.943 505.221 383.798 505.702 383.814 506.648C383.798 507.611 384.943 508.093 386.985 508.109C388.994 508.093 390.14 507.611 390.14 506.648C390.14 505.702 388.994 505.221 386.985 505.204Z" fill="#8E8D92"/>
<path d="M128.982 543.493V558.518H127.123V543.493H128.982ZM120.897 544.589C123.155 544.589 124.799 546.647 124.815 549.885C124.799 553.155 123.155 555.197 120.897 555.197C118.623 555.197 116.979 553.155 116.979 549.885C116.979 546.647 118.623 544.589 120.897 544.589ZM120.897 546.249C119.619 546.249 118.756 547.594 118.756 549.885C118.756 552.192 119.619 553.537 120.897 553.537C122.159 553.537 123.022 552.192 123.022 549.885C123.022 547.594 122.159 546.249 120.897 546.249ZM143.87 550.715V552.192H130.19V550.715H133.378V548.806C132.249 548.333 131.602 547.577 131.602 546.598C131.602 544.805 133.71 543.742 137.014 543.742C140.317 543.742 142.409 544.805 142.426 546.598C142.417 547.585 141.77 548.341 140.633 548.806V550.715H143.87ZM137.014 553.105C140.251 553.089 142.193 554.052 142.21 555.778C142.193 557.521 140.251 558.468 137.014 558.468C133.743 558.468 131.784 557.521 131.784 555.778C131.784 554.052 133.743 553.089 137.014 553.105ZM137.014 554.5C134.822 554.5 133.644 554.932 133.66 555.778C133.644 556.625 134.822 557.073 137.014 557.073C139.155 557.073 140.351 556.625 140.367 555.778C140.351 554.932 139.155 554.5 137.014 554.5ZM137.014 545.17C134.789 545.17 133.511 545.668 133.527 546.598C133.511 547.511 134.789 547.992 137.014 547.992C139.222 547.992 140.517 547.511 140.517 546.598C140.517 545.668 139.222 545.17 137.014 545.17ZM135.237 550.715H138.79V549.287C138.25 549.362 137.653 549.403 137.014 549.403C136.375 549.403 135.777 549.362 135.237 549.287V550.715ZM157.762 545.585V547.079H155.72V548.806H157.762V550.35H155.72V552.358H153.877V543.493H155.72V545.585H157.762ZM155.72 553.006V558.501H153.877V554.5H145.726V553.006H155.72ZM148.1 544.356C150.407 544.34 152.134 545.851 152.15 547.959C152.134 550.101 150.407 551.595 148.1 551.595C145.775 551.595 144.032 550.101 144.049 547.959C144.032 545.851 145.775 544.34 148.1 544.356ZM148.1 545.917C146.805 545.934 145.842 546.714 145.858 547.959C145.842 549.237 146.805 550.034 148.1 550.018C149.378 550.034 150.341 549.237 150.341 547.959C150.341 546.714 149.378 545.934 148.1 545.917ZM165.959 544.605V545.502C165.942 546.531 165.942 548.009 165.594 549.918L163.768 549.752C164.058 548.2 164.116 547.054 164.149 546.133H158.306V544.605H165.959ZM162.174 548.025V551.014C163.726 550.956 165.32 550.839 166.772 550.632L166.872 551.96C163.751 552.524 160.215 552.574 157.575 552.591L157.409 551.113C158.297 551.105 159.293 551.097 160.348 551.08V548.025H162.174ZM169.545 543.493V548.175H171.487V549.719H169.545V554.732H167.652V543.493H169.545ZM170.026 556.708V558.202H159.65V553.736H161.51V556.708H170.026Z" fill="#8E8D92"/>
<rect x="187" y="543.023" width="2" height="16" fill="#D2D1D6"/>
<path d="M218.381 543.493V558.501H216.604V550.798H214.994V557.804H213.268V543.892H214.994V549.304H216.604V543.493H218.381ZM211.989 545.386C211.989 549.437 210.711 552.923 206.444 555.363L205.382 554.085C208.578 552.234 209.931 549.86 210.196 546.863H206.079V545.386H211.989ZM231.691 543.51V554.351H229.832V543.51H231.691ZM232.106 556.708V558.202H221.764V553.255H223.623V556.708H232.106ZM223.507 544.489C225.781 544.489 227.541 546.066 227.541 548.241C227.541 550.466 225.781 552.01 223.507 552.01C221.216 552.01 219.456 550.466 219.456 548.241C219.456 546.066 221.216 544.489 223.507 544.489ZM223.507 546.1C222.229 546.1 221.249 546.946 221.266 548.241C221.249 549.569 222.229 550.399 223.507 550.399C224.752 550.399 225.731 549.569 225.731 548.241C225.731 546.946 224.752 546.1 223.507 546.1ZM245.45 543.493V552.408H243.607V548.739H241.051V547.229H243.607V543.493H245.45ZM240.37 552.79C243.558 552.79 245.5 553.836 245.5 555.646C245.5 557.455 243.558 558.501 240.37 558.501C237.199 558.501 235.257 557.455 235.273 555.646C235.257 553.836 237.199 552.79 240.37 552.79ZM240.37 554.201C238.278 554.201 237.1 554.699 237.1 555.646C237.1 556.575 238.278 557.073 240.37 557.073C242.462 557.073 243.657 556.575 243.657 555.646C243.657 554.699 242.462 554.201 240.37 554.201ZM238.395 546.066C238.395 547.893 239.606 549.735 241.931 550.516L241.001 551.977C239.333 551.412 238.146 550.267 237.498 548.855C236.834 550.458 235.581 551.736 233.796 552.375L232.833 550.914C235.24 550.084 236.519 548.059 236.519 546.083V545.967H233.397V544.473H241.499V545.967H238.395V546.066ZM260.288 555.181V556.691H246.575V555.181H252.485V552.259H248.086V544.489H249.929V546.946H256.885V544.489H258.728V552.259H254.312V555.181H260.288ZM249.929 550.765H256.885V548.424H249.929V550.765ZM272.852 543.493V558.518H271.009V550.848H268.104V549.354H271.009V543.493H272.852ZM265.746 548.258C265.729 550.532 267.091 552.956 269.465 554.002L268.469 555.413C266.75 554.683 265.505 553.18 264.85 551.379C264.186 553.288 262.949 554.89 261.23 555.662L260.234 554.234C262.575 553.172 263.903 550.615 263.903 548.258V547.478H260.683V546H263.92V543.809H265.763V546H268.9V547.478H265.746V548.258ZM286.461 543.493V558.518H284.635V543.493H286.461ZM281.846 544.805V550.433H276.683V553.454C279.048 553.438 281.09 553.321 283.423 552.923L283.589 554.434C281.032 554.882 278.791 554.965 276.102 554.965H274.79V548.972H279.97V546.299H274.773V544.805H281.846ZM294.608 552.757C297.713 552.757 299.622 553.803 299.639 555.612C299.622 557.438 297.713 558.501 294.608 558.501C291.471 558.501 289.528 557.438 289.528 555.612C289.528 553.803 291.471 552.757 294.608 552.757ZM294.608 554.201C292.55 554.201 291.371 554.683 291.371 555.612C291.371 556.542 292.55 557.04 294.608 557.04C296.667 557.04 297.812 556.542 297.812 555.612C297.812 554.683 296.667 554.201 294.608 554.201ZM299.489 543.493V547.079H301.581V548.623H299.489V552.392H297.646V543.493H299.489ZM289.993 544.439V546.465H293.496V544.439H295.322V551.445H288.167V544.439H289.993ZM289.993 549.984H293.496V547.909H289.993V549.984ZM310.243 545.087V546.548H307.039C307.047 548.216 308.359 549.852 310.758 550.482L309.895 551.927C308.143 551.445 306.865 550.416 306.159 549.088C305.479 550.541 304.2 551.678 302.407 552.209L301.544 550.798C303.91 550.084 305.188 548.333 305.196 546.548H301.992V545.087H305.196V543.443H307.056V545.087H310.243ZM313.846 543.51V552.325H311.986V543.51H313.846ZM313.846 553.006V558.318H303.885V553.006H313.846ZM305.711 554.483V556.824H312.036V554.483H305.711Z" fill="#8E8D92"/>
<path d="M125.214 707.055C124.965 705.61 123.803 704.78 122.342 704.78C120.366 704.78 118.988 706.291 118.988 709.014C118.988 711.77 120.383 713.247 122.342 713.247C123.77 713.247 124.932 712.45 125.214 711.039H127.389C127.057 713.347 125.164 715.189 122.309 715.189C119.138 715.189 116.813 712.882 116.813 709.014C116.813 705.129 119.171 702.838 122.309 702.838C124.965 702.838 127.023 704.382 127.389 707.055H125.214ZM132.083 715.206C129.46 715.206 127.767 713.347 127.767 710.558C127.767 707.752 129.46 705.893 132.083 705.893C134.723 705.893 136.399 707.752 136.399 710.558C136.399 713.347 134.723 715.206 132.083 715.206ZM132.1 713.513C133.544 713.513 134.258 712.201 134.258 710.541C134.258 708.897 133.544 707.569 132.1 707.569C130.622 707.569 129.908 708.897 129.908 710.541C129.908 712.201 130.622 713.513 132.1 713.513ZM137.043 718.41V706.009H139.118V707.486H139.251C139.583 706.839 140.247 705.893 141.841 705.893C143.916 705.893 145.56 707.52 145.56 710.524C145.56 713.496 143.966 715.189 141.841 715.189C140.28 715.189 139.583 714.26 139.251 713.596H139.168V718.41H137.043ZM139.118 710.508C139.118 712.268 139.882 713.446 141.26 713.446C142.654 713.446 143.401 712.218 143.401 710.508C143.401 708.831 142.671 707.619 141.26 707.619C139.882 707.619 139.118 708.765 139.118 710.508ZM147.183 718.41C146.768 718.41 146.353 718.394 146.087 718.36V716.667C146.353 716.684 146.701 716.7 146.983 716.7C147.498 716.7 147.93 716.65 148.295 715.688L148.478 715.206L145.19 706.009H147.432L149.523 712.815H149.623L151.715 706.009H153.956L150.337 716.119C149.822 717.563 148.876 718.41 147.183 718.41ZM154.284 715.023V706.009H156.343V707.503H156.442C156.758 706.474 157.638 705.876 158.667 705.876C158.899 705.876 159.231 705.893 159.431 705.926V707.885C159.248 707.818 158.8 707.752 158.451 707.752C157.272 707.752 156.409 708.565 156.409 709.711V715.023H154.284ZM159.692 715.023V706.009H161.817V715.023H159.692ZM160.771 704.73C160.107 704.73 159.543 704.216 159.543 703.568C159.543 702.938 160.107 702.423 160.771 702.423C161.452 702.423 162 702.938 162 703.568C162 704.216 161.452 704.73 160.771 704.73ZM166.777 718.593C164.387 718.593 162.876 717.53 162.727 715.837H164.835C164.984 716.617 165.731 716.999 166.811 716.999C168.072 716.999 168.902 716.451 168.902 715.123V713.396H168.803C168.471 714.061 167.757 714.891 166.196 714.891C164.121 714.891 162.478 713.38 162.478 710.441C162.478 707.47 164.121 705.893 166.213 705.893C167.807 705.893 168.471 706.839 168.803 707.486H168.902V706.009H170.994V715.173C170.994 717.48 169.218 718.593 166.777 718.593ZM166.777 713.23C168.139 713.23 168.919 712.201 168.919 710.475C168.919 708.765 168.155 707.619 166.777 707.619C165.366 707.619 164.636 708.831 164.636 710.475C164.636 712.135 165.383 713.23 166.777 713.23ZM174.145 709.744V715.023H172.02V703.004H174.095V707.536H174.211C174.626 706.523 175.489 705.893 176.884 705.893C178.76 705.893 179.988 707.104 179.988 709.279V715.023H177.88V709.611C177.88 708.383 177.216 707.686 176.104 707.686C174.958 707.686 174.145 708.433 174.145 709.744ZM185.496 706.009V707.636H183.72V712.317C183.72 713.181 184.151 713.363 184.683 713.363C184.932 713.363 185.347 713.347 185.612 713.33V715.057C185.363 715.106 184.948 715.14 184.417 715.14C182.823 715.14 181.595 714.359 181.611 712.666V707.636H180.316V706.009H181.611V703.851H183.72V706.009H185.496ZM195.034 713.347C193.49 713.347 192.312 712.135 192.312 709.943C192.312 707.719 193.54 706.557 195.034 706.557C196.113 706.557 196.645 707.204 196.86 707.669H196.943V706.706H198.554V711.139C198.57 711.703 198.803 711.969 199.251 711.969C200.098 711.969 200.646 710.989 200.646 709.512C200.662 706.623 198.62 704.73 195.599 704.73C192.511 704.73 190.535 706.972 190.535 709.943C190.535 713.164 192.262 715.189 195.549 715.173C196.728 715.173 197.607 715.073 198.554 714.824V716.352C197.674 716.601 196.645 716.75 195.549 716.75C191.382 716.75 188.958 714.094 188.958 709.943C188.941 706.009 191.697 703.153 195.599 703.153C199.517 703.153 202.239 705.826 202.239 709.462C202.239 711.985 200.961 713.43 199.102 713.43C197.998 713.43 197.167 712.898 197.01 712.151H196.927C196.711 712.616 196.163 713.347 195.034 713.347ZM195.532 711.819C196.479 711.836 196.977 711.089 196.977 709.943C196.977 708.798 196.479 708.067 195.532 708.067C194.619 708.067 194.104 708.848 194.121 709.943C194.104 711.039 194.636 711.819 195.532 711.819ZM206.066 715.023V713.463L210.316 709.362C211.528 708.15 212.159 707.437 212.159 706.424C212.159 705.312 211.279 704.598 210.101 704.598C208.855 704.598 208.059 705.378 208.075 706.59H206.017C206 704.315 207.71 702.838 210.117 702.838C212.574 702.838 214.234 704.299 214.234 706.324C214.234 707.686 213.57 708.781 211.213 711.006L209.071 713.131V713.214H214.417V715.023H206.066ZM219.742 715.189C216.854 715.189 215.127 712.948 215.127 709.014C215.127 705.096 216.854 702.838 219.742 702.838C222.614 702.838 224.357 705.096 224.357 709.014C224.357 712.948 222.631 715.189 219.742 715.189ZM219.742 713.38C221.253 713.38 222.183 711.902 222.183 709.014C222.183 706.142 221.236 704.631 219.742 704.631C218.248 704.631 217.302 706.142 217.302 709.014C217.302 711.902 218.231 713.38 219.742 713.38ZM225.167 715.023V713.463L229.417 709.362C230.629 708.15 231.26 707.437 231.26 706.424C231.26 705.312 230.38 704.598 229.201 704.598C227.956 704.598 227.159 705.378 227.176 706.59H225.117C225.101 704.315 226.811 702.838 229.218 702.838C231.675 702.838 233.335 704.299 233.335 706.324C233.335 707.686 232.671 708.781 230.313 711.006L228.172 713.131V713.214H233.518V715.023H225.167ZM233.929 712.782V711.056L239.125 703.004H241.814V711.006H243.392V712.782H241.814V715.023H239.756V712.782H233.929ZM236.137 711.006H239.789V705.461H239.656L236.137 710.923V711.006ZM258.773 706.341V707.835H248.348V702.207H250.19V706.341H258.773ZM260.334 709.678V711.172H257.047V716.501H255.188V711.172H251.801V716.501H249.958V711.172H246.654V709.678H260.334ZM267.701 702.522V707.171H262.787V709.063C265.269 709.055 266.929 708.972 268.797 708.665L268.946 710.176C266.871 710.491 265.045 710.558 262.156 710.558H260.928V705.743H265.858V704H260.911V702.522H267.701ZM272.914 701.51V712.55H271.071V706.772H268.515V705.212H271.071V701.51H272.914ZM273.312 714.708V716.202H262.986V711.67H264.829V714.708H273.312ZM287.752 713.147V714.642H274.039V713.147H279.916V709.678H281.742V713.147H287.752ZM281.792 703.502C281.792 705.776 284.066 708.018 287.221 708.516L286.424 710.043C283.884 709.562 281.809 708.109 280.812 706.142C279.816 708.101 277.758 709.578 275.234 710.043L274.438 708.516C277.575 708.018 279.816 705.76 279.833 703.502V702.406H281.792V703.502ZM301.444 713.147V714.691H287.731V713.147H301.444ZM300.249 702.888V704.365H298.058V709.146H300.199V710.607H288.91V709.146H291.019V704.365H288.86V702.888H300.249ZM292.861 709.146H296.231V704.365H292.861V709.146ZM313.626 709.362V710.823H303.101V702.672H313.493V704.166H304.977V705.976H313.145V707.42H304.977V709.362H313.626ZM315.137 713.164V714.675H301.424V713.164H315.137ZM324.127 708.15V709.894H318.715V708.15H324.127ZM329.863 715.023H327.556L331.789 703.004H334.445L338.695 715.023H336.388L335.392 712.052H330.859L329.863 715.023ZM331.44 710.309H334.811L333.167 705.461H333.067L331.44 710.309ZM341.148 703.004V715.023H339.023V703.004H341.148ZM344.299 703.004V715.023H342.174V703.004H344.299ZM348.358 715.023V706.009H350.417V707.503H350.517C350.832 706.474 351.712 705.876 352.741 705.876C352.974 705.876 353.306 705.893 353.505 705.926V707.885C353.322 707.818 352.874 707.752 352.525 707.752C351.347 707.752 350.483 708.565 350.483 709.711V715.023H348.358ZM353.767 715.023V706.009H355.892V715.023H353.767ZM354.846 704.73C354.182 704.73 353.617 704.216 353.617 703.568C353.617 702.938 354.182 702.423 354.846 702.423C355.526 702.423 356.074 702.938 356.074 703.568C356.074 704.216 355.526 704.73 354.846 704.73ZM360.852 718.593C358.461 718.593 356.95 717.53 356.801 715.837H358.909C359.059 716.617 359.806 716.999 360.885 716.999C362.146 716.999 362.977 716.451 362.977 715.123V713.396H362.877C362.545 714.061 361.831 714.891 360.271 714.891C358.195 714.891 356.552 713.38 356.552 710.441C356.552 707.47 358.195 705.893 360.287 705.893C361.881 705.893 362.545 706.839 362.877 707.486H362.977V706.009H365.068V715.173C365.068 717.48 363.292 718.593 360.852 718.593ZM360.852 713.23C362.213 713.23 362.993 712.201 362.993 710.475C362.993 708.765 362.229 707.619 360.852 707.619C359.44 707.619 358.71 708.831 358.71 710.475C358.71 712.135 359.457 713.23 360.852 713.23ZM368.219 709.744V715.023H366.094V703.004H368.169V707.536H368.285C368.7 706.523 369.563 705.893 370.958 705.893C372.834 705.893 374.062 707.104 374.062 709.279V715.023H371.954V709.611C371.954 708.383 371.29 707.686 370.178 707.686C369.032 707.686 368.219 708.433 368.219 709.744ZM379.57 706.009V707.636H377.794V712.317C377.794 713.181 378.226 713.363 378.757 713.363C379.006 713.363 379.421 713.347 379.687 713.33V715.057C379.438 715.106 379.022 715.14 378.491 715.14C376.897 715.14 375.669 714.359 375.686 712.666V707.636H374.391V706.009H375.686V703.851H377.794V706.009H379.57ZM385.178 708.582C385.045 707.901 384.48 707.47 383.584 707.47C382.671 707.47 382.007 707.918 382.023 708.532C382.007 708.997 382.389 709.346 383.302 709.562L384.829 709.877C386.539 710.259 387.353 711.039 387.369 712.334C387.353 714.027 385.875 715.206 383.518 715.206C381.227 715.206 379.865 714.177 379.649 712.45H381.808C381.94 713.214 382.538 713.596 383.518 713.596C384.53 713.596 385.211 713.181 385.211 712.517C385.211 712.002 384.796 711.67 383.899 711.471L382.455 711.155C380.778 710.823 379.915 709.943 379.915 708.648C379.915 706.988 381.343 705.893 383.551 705.893C385.709 705.893 387.037 706.938 387.187 708.582H385.178ZM391.014 715.023V706.009H393.072V707.503H393.172C393.487 706.474 394.367 705.876 395.396 705.876C395.629 705.876 395.961 705.893 396.16 705.926V707.885C395.978 707.818 395.529 707.752 395.181 707.752C394.002 707.752 393.139 708.565 393.139 709.711V715.023H391.014ZM400.124 715.206C397.401 715.206 395.741 713.396 395.741 710.574C395.741 707.785 397.435 705.893 400.008 705.893C402.216 705.893 404.125 707.271 404.125 710.441V711.105H397.833C397.858 712.641 398.763 713.546 400.141 713.546C401.07 713.546 401.701 713.147 401.967 712.616H404.042C403.66 714.177 402.216 715.206 400.124 715.206ZM397.85 709.661H402.1C402.083 708.433 401.27 707.536 400.041 707.536C398.763 707.536 397.916 708.507 397.85 709.661ZM409.882 708.582C409.749 707.901 409.185 707.47 408.288 707.47C407.375 707.47 406.711 707.918 406.728 708.532C406.711 708.997 407.093 709.346 408.006 709.562L409.533 709.877C411.243 710.259 412.057 711.039 412.073 712.334C412.057 714.027 410.579 715.206 408.222 715.206C405.931 715.206 404.569 714.177 404.354 712.45H406.512C406.645 713.214 407.242 713.596 408.222 713.596C409.234 713.596 409.915 713.181 409.915 712.517C409.915 712.002 409.5 711.67 408.604 711.471L407.159 711.155C405.482 710.823 404.619 709.943 404.619 708.648C404.619 706.988 406.047 705.893 408.255 705.893C410.413 705.893 411.741 706.938 411.891 708.582H409.882ZM416.685 715.206C413.962 715.206 412.302 713.396 412.302 710.574C412.302 707.785 413.995 705.893 416.568 705.893C418.776 705.893 420.686 707.271 420.686 710.441V711.105H414.394C414.418 712.641 415.323 713.546 416.701 713.546C417.631 713.546 418.262 713.147 418.527 712.616H420.603C420.221 714.177 418.776 715.206 416.685 715.206ZM414.41 709.661H418.66C418.644 708.433 417.83 707.536 416.602 707.536C415.323 707.536 414.477 708.507 414.41 709.661ZM421.329 715.023V706.009H423.388V707.503H423.487C423.803 706.474 424.683 705.876 425.712 705.876C425.944 705.876 426.276 705.893 426.476 705.926V707.885C426.293 707.818 425.845 707.752 425.496 707.752C424.317 707.752 423.454 708.565 423.454 709.711V715.023H421.329ZM435.071 706.009L431.851 715.023H429.526L426.306 706.009H428.563L430.639 712.716H430.738L432.83 706.009H435.071ZM439.085 715.206C436.362 715.206 434.702 713.396 434.702 710.574C434.702 707.785 436.396 705.893 438.969 705.893C441.177 705.893 443.086 707.271 443.086 710.441V711.105H436.794C436.819 712.641 437.724 713.546 439.102 713.546C440.031 713.546 440.662 713.147 440.928 712.616H443.003C442.621 714.177 441.177 715.206 439.085 715.206ZM436.811 709.661H441.061C441.044 708.433 440.23 707.536 439.002 707.536C437.724 707.536 436.877 708.507 436.811 709.661ZM447.083 715.189C444.958 715.189 443.364 713.496 443.364 710.524C443.364 707.52 445.008 705.893 447.1 705.893C448.693 705.893 449.357 706.839 449.673 707.486H449.756V703.004H451.864V715.023H449.789V713.596H449.673C449.341 714.26 448.644 715.189 447.083 715.189ZM447.664 713.446C449.025 713.446 449.806 712.268 449.806 710.508C449.806 708.765 449.042 707.619 447.664 707.619C446.253 707.619 445.522 708.831 445.522 710.508C445.522 712.218 446.27 713.446 447.664 713.446Z" fill="#8E8D92"/>
</svg>
