<svg width="1280" height="767" viewBox="0 0 1280 767" fill="none" xmlns="http://www.w3.org/2000/svg">
<rect width="1280" height="766" transform="translate(0 0.0234375)" fill="white"/>
<path d="M599.647 182.07V217.617H594.92V182.07H599.647ZM592.381 182.656V215.977H587.694V198.281H583.006V194.258H587.694V182.656H592.381ZM580.155 191.602C580.155 197.5 581.991 203.477 587.186 206.445L584.256 210.117C581.092 208.242 579.002 205.059 577.811 201.25C576.58 205.391 574.432 208.906 571.17 210.898L568.162 207.227C573.397 204.023 575.35 197.617 575.35 191.602V189.688H569.53V185.703H585.545V189.688H580.155V191.602ZM633.417 185.625V189.531H604.237V185.625H616.386V182.031H621.347V185.625H633.417ZM635.214 204.805V208.828H627.675V217.656H622.636V208.828H615.214V217.656H610.253V208.828H602.675V204.805H635.214ZM618.886 190.977C626.503 190.977 631.112 193.086 631.152 197.031C631.112 200.938 626.503 203.125 618.886 203.125C611.191 203.125 606.581 200.938 606.62 197.031C606.581 193.086 611.191 190.977 618.886 190.977ZM618.886 194.688C614.12 194.688 611.777 195.391 611.777 197.031C611.777 198.594 614.12 199.375 618.886 199.375C623.573 199.375 625.956 198.594 625.956 197.031C625.956 195.391 623.573 194.688 618.886 194.688ZM677.364 199.648V203.594H663.966V209.727H659.044V203.594H644.825V199.648H677.364ZM673.184 183.633V196.719H648.887V183.633H673.184ZM653.77 187.5V192.852H668.302V187.5H653.77ZM673.77 213.008V216.992H648.653V206.641H653.614V213.008H673.77ZM690.158 184.453C695.783 184.414 700.002 188.086 700.002 193.164C700.002 198.281 695.783 201.914 690.158 201.914C684.533 201.914 680.275 198.281 680.275 193.164C680.275 188.086 684.533 184.414 690.158 184.453ZM690.158 188.75C687.345 188.75 685.197 190.391 685.236 193.164C685.197 195.977 687.345 197.578 690.158 197.578C692.97 197.578 695.119 195.977 695.158 193.164C695.119 190.391 693.009 188.75 690.158 188.75ZM708.517 182.07V217.695H703.556V182.07H708.517ZM678.791 206.367C685.119 206.406 693.908 206.289 701.525 205.234L701.916 208.828C694.025 210.352 685.588 210.43 679.377 210.43L678.791 206.367Z" fill="#1C1C1E"/>
<path d="M218.982 285.493V300.518H217.123V285.493H218.982ZM210.897 286.589C213.155 286.589 214.799 288.647 214.815 291.885C214.799 295.155 213.155 297.197 210.897 297.197C208.623 297.197 206.979 295.155 206.979 291.885C206.979 288.647 208.623 286.589 210.897 286.589ZM210.897 288.249C209.619 288.249 208.756 289.594 208.756 291.885C208.756 294.192 209.619 295.537 210.897 295.537C212.159 295.537 213.022 294.192 213.022 291.885C213.022 289.594 212.159 288.249 210.897 288.249ZM234.853 293.13V294.591H221.14V293.13H234.853ZM233.159 285.809V289.66H224.709V290.739H233.458V292.15H222.883V288.315H231.317V287.253H222.833V285.809H233.159ZM233.209 295.67V300.318H222.933V295.67H233.209ZM224.742 297.131V298.824H231.383V297.131H224.742Z" fill="#343438"/>
<rect x="206.5" y="313.523" width="267" height="48" rx="15.5" stroke="#C7C6CB"/>
<path d="M229.321 340.836C232.559 340.836 234.385 341.616 234.401 343.11C234.385 344.571 232.559 345.335 229.321 345.335C226.051 345.335 224.225 344.571 224.225 343.11C224.225 341.616 226.051 340.836 229.321 340.836ZM229.321 341.815C226.914 341.815 225.553 342.28 225.553 343.11C225.553 343.924 226.914 344.372 229.321 344.355C231.712 344.372 233.073 343.924 233.073 343.11C233.073 342.28 231.712 341.815 229.321 341.815ZM235.265 331.854V332.9H223.295V331.854H228.674V330.41H229.969V331.854H235.265ZM229.321 333.498C232.376 333.498 234.103 334.229 234.103 335.623C234.103 336.885 232.617 337.607 229.969 337.698V338.86H236.045V339.906H222.598V338.86H228.674V337.698C226.018 337.607 224.523 336.885 224.523 335.623C224.523 334.229 226.267 333.498 229.321 333.498ZM229.321 334.428C227.146 334.428 225.901 334.843 225.918 335.623C225.901 336.354 227.146 336.785 229.321 336.785C231.479 336.785 232.725 336.354 232.725 335.623C232.725 334.843 231.479 334.428 229.321 334.428ZM249.442 330.609V338.163H248.147V330.609H249.442ZM245.026 331.34C245.026 335.108 242.353 337.466 237.987 338.479L237.505 337.383C241.199 336.561 243.365 334.793 243.598 332.419H238.252V331.34H245.026ZM249.442 338.86V342.43H241.174V344.189H249.973V345.235H239.879V341.434H248.147V339.906H239.846V338.86H249.442ZM265.378 337.914V338.96H251.914V337.914H258.007V336.188H253.624V331.307H263.702V332.353H254.903V335.125H263.801V336.188H259.269V337.914H265.378ZM258.638 340.039C261.809 340.039 263.702 341.002 263.718 342.695C263.702 344.405 261.809 345.352 258.638 345.368C255.451 345.352 253.541 344.405 253.541 342.695C253.541 341.002 255.451 340.039 258.638 340.039ZM258.638 341.068C256.264 341.068 254.853 341.683 254.869 342.695C254.853 343.725 256.264 344.322 258.638 344.322C260.979 344.322 262.407 343.725 262.407 342.695C262.407 341.683 260.979 341.068 258.638 341.068Z" fill="#AEADB2"/>
<path d="M518.982 285.493V300.518H517.123V285.493H518.982ZM510.897 286.589C513.155 286.589 514.799 288.647 514.815 291.885C514.799 295.155 513.155 297.197 510.897 297.197C508.623 297.197 506.979 295.155 506.979 291.885C506.979 288.647 508.623 286.589 510.897 286.589ZM510.897 288.249C509.619 288.249 508.756 289.594 508.756 291.885C508.756 294.192 509.619 295.537 510.897 295.537C512.159 295.537 513.022 294.192 513.022 291.885C513.022 289.594 512.159 288.249 510.897 288.249ZM527.515 287.12V291.021H529.258V285.759H531.018V299.771H529.258V292.516H527.515V296.633H521.621V287.12H527.515ZM523.348 288.581V295.172H525.788V288.581H523.348ZM534.106 285.493V300.501H532.329V285.493H534.106ZM540.065 285.975C542.339 285.975 544.033 287.386 544.049 289.361C544.033 291.354 542.339 292.748 540.065 292.748C537.774 292.748 536.08 291.354 536.08 289.361C536.08 287.386 537.774 285.975 540.065 285.975ZM540.065 287.502C538.803 287.502 537.873 288.216 537.873 289.361C537.873 290.523 538.803 291.254 540.065 291.254C541.327 291.254 542.256 290.523 542.256 289.361C542.256 288.216 541.327 287.502 540.065 287.502ZM548.316 285.493V293.08H546.456V285.493H548.316ZM548.316 293.728V297.646H540.198V298.857H548.764V300.318H538.388V296.284H546.473V295.172H538.355V293.728H548.316Z" fill="#343438"/>
<rect x="506.5" y="313.523" width="267" height="48" rx="15.5" stroke="#C7C6CB"/>
<path d="M522.714 341.467C522.714 339.392 524.54 338.927 526.101 338.811C526.673 338.769 528.134 338.694 528.541 338.678V337.947C528.541 336.802 527.86 336.138 526.499 336.138C525.354 336.138 524.673 336.669 524.474 337.35H522.979C523.162 335.905 524.573 334.893 526.565 334.893C527.744 334.893 529.952 335.241 529.952 338.08V344.023H528.541V342.795H528.475C528.176 343.409 527.346 344.239 525.785 344.239C524.075 344.239 522.714 343.227 522.714 341.467ZM524.142 341.533C524.142 342.479 524.938 342.961 526.034 342.961C527.645 342.961 528.541 341.882 528.541 340.753V339.84L526.267 340.006C524.972 340.089 524.142 340.554 524.142 341.533ZM532.392 344.023V332.004H533.82V336.437H533.936C534.251 335.955 534.782 334.893 536.542 334.893C538.8 334.893 540.394 336.686 540.394 339.541C540.394 342.396 538.8 344.206 536.559 344.206C534.832 344.206 534.251 343.144 533.936 342.646H533.77V344.023H532.392ZM533.786 339.508C533.786 341.533 534.699 342.928 536.343 342.928C538.053 342.928 538.949 341.434 538.949 339.508C538.949 337.632 538.086 336.171 536.343 336.171C534.683 336.171 533.786 337.516 533.786 339.508ZM541.787 341.467C541.787 339.392 543.614 338.927 545.174 338.811C545.747 338.769 547.208 338.694 547.615 338.678V337.947C547.615 336.802 546.934 336.138 545.573 336.138C544.427 336.138 543.746 336.669 543.547 337.35H542.053C542.236 335.905 543.647 334.893 545.639 334.893C546.818 334.893 549.026 335.241 549.026 338.08V344.023H547.615V342.795H547.548C547.249 343.409 546.419 344.239 544.859 344.239C543.149 344.239 541.787 343.227 541.787 341.467ZM543.215 341.533C543.215 342.479 544.012 342.961 545.108 342.961C546.718 342.961 547.615 341.882 547.615 340.753V339.84L545.34 340.006C544.045 340.089 543.215 340.554 543.215 341.533ZM554.968 344.206C552.412 344.206 550.851 342.264 550.851 339.558C550.851 336.818 552.478 334.893 554.935 334.893C556.861 334.893 558.289 336.021 558.521 337.731H557.093C556.894 336.901 556.164 336.154 554.968 336.154C553.358 336.154 552.279 337.482 552.279 339.508C552.279 341.6 553.325 342.928 554.968 342.928C556.031 342.928 556.844 342.363 557.093 341.367H558.521C558.289 342.978 556.977 344.206 554.968 344.206ZM563.65 344.206C561.409 344.206 559.815 342.396 559.815 339.541C559.815 336.686 561.409 334.893 563.667 334.893C565.41 334.893 565.974 335.955 566.273 336.437H566.373V332.004H567.817V344.023H566.423V342.646H566.273C565.958 343.144 565.377 344.206 563.65 344.206ZM563.849 342.928C565.493 342.928 566.423 341.533 566.423 339.508C566.423 337.516 565.526 336.171 563.849 336.171C562.123 336.171 561.26 337.632 561.26 339.508C561.26 341.434 562.139 342.928 563.849 342.928ZM573.66 344.206C571.419 344.206 569.825 342.396 569.825 339.541C569.825 336.686 571.419 334.893 573.677 334.893C575.42 334.893 575.984 335.955 576.283 336.437H576.383V332.004H577.827V344.023H576.433V342.646H576.283C575.968 343.144 575.387 344.206 573.66 344.206ZM573.859 342.928C575.503 342.928 576.433 341.533 576.433 339.508C576.433 337.516 575.536 336.171 573.859 336.171C572.133 336.171 571.269 337.632 571.269 339.508C571.269 341.434 572.149 342.928 573.859 342.928ZM584.052 344.206C581.445 344.206 579.835 342.363 579.835 339.591C579.835 336.818 581.462 334.893 583.919 334.893C585.812 334.893 587.804 336.055 587.804 339.392V339.989H581.263C581.329 341.898 582.442 342.944 584.052 342.944C585.131 342.944 585.812 342.479 586.144 341.915H587.671C587.239 343.276 585.911 344.206 584.052 344.206ZM581.279 338.777H586.359C586.359 337.267 585.397 336.154 583.919 336.154C582.359 336.154 581.362 337.383 581.279 338.777ZM590.26 347.41C589.945 347.41 589.646 347.394 589.463 347.377V346.099C589.613 346.115 589.945 346.132 590.16 346.132C590.741 346.132 591.223 346.082 591.704 344.771L591.97 344.09L588.633 335.009H590.194L592.651 342.164H592.75L595.207 335.009H596.768L592.95 345.318C592.418 346.729 591.538 347.41 590.26 347.41ZM604.254 342.446C602.594 342.446 601.382 341.102 601.382 338.943C601.382 336.802 602.611 335.457 604.271 335.457C605.466 335.457 605.964 336.221 606.164 336.603H606.247V335.59H607.508V340.438C607.525 341.085 607.807 341.4 608.338 341.4C609.368 341.4 610.048 340.205 610.065 338.479C610.082 335.341 607.807 333.299 604.636 333.299C601.349 333.315 599.224 335.855 599.224 338.943C599.224 342.313 601.067 344.638 604.57 344.604C605.732 344.588 606.496 344.521 607.508 344.239V345.368C606.645 345.601 605.665 345.75 604.57 345.75C600.519 345.75 598.029 343.16 598.029 338.943C598.012 335.025 600.768 332.153 604.636 332.153C608.604 332.153 611.277 334.859 611.26 338.429C611.26 341.002 609.932 342.513 608.255 342.513C607.209 342.513 606.421 341.923 606.363 341.151H606.247C606.047 341.517 605.549 342.446 604.254 342.446ZM604.47 341.234C605.649 341.234 606.247 340.305 606.263 338.927C606.247 337.582 605.665 336.669 604.47 336.669C603.308 336.669 602.677 337.665 602.677 338.927C602.677 340.222 603.325 341.234 604.47 341.234ZM616.887 347.593C614.713 347.593 613.235 346.646 613.069 344.97H614.563C614.762 345.883 615.609 346.348 616.887 346.348C618.431 346.348 619.378 345.684 619.378 344.189V342.363H619.261C618.963 342.861 618.382 343.891 616.638 343.891C614.447 343.891 612.803 342.23 612.803 339.392C612.803 336.619 614.397 334.893 616.655 334.893C618.398 334.893 618.963 335.955 619.295 336.437H619.411V335.009H620.805V344.272C620.805 346.597 619.079 347.593 616.887 347.593ZM616.838 342.612C618.481 342.612 619.411 341.434 619.411 339.441C619.411 337.516 618.514 336.171 616.838 336.171C615.111 336.171 614.248 337.632 614.248 339.441C614.248 341.317 615.128 342.612 616.838 342.612ZM623.046 344.023V335.009H624.424V336.42H624.54C624.922 335.457 625.785 334.893 626.964 334.893C628.142 334.893 628.939 335.457 629.371 336.42H629.471C629.935 335.49 630.882 334.893 632.177 334.893C633.787 334.893 634.932 335.872 634.932 337.997V344.023H633.505V338.014C633.505 336.686 632.658 336.171 631.679 336.171C630.417 336.171 629.703 337.018 629.703 338.163V344.023H628.259V337.864C628.259 336.852 627.528 336.171 626.499 336.171C625.42 336.171 624.473 337.084 624.473 338.396V344.023H623.046ZM636.758 341.467C636.758 339.392 638.584 338.927 640.145 338.811C640.717 338.769 642.178 338.694 642.585 338.678V337.947C642.585 336.802 641.904 336.138 640.543 336.138C639.397 336.138 638.717 336.669 638.518 337.35H637.023C637.206 335.905 638.617 334.893 640.609 334.893C641.788 334.893 643.996 335.241 643.996 338.08V344.023H642.585V342.795H642.519C642.22 343.409 641.39 344.239 639.829 344.239C638.119 344.239 636.758 343.227 636.758 341.467ZM638.186 341.533C638.186 342.479 638.982 342.961 640.078 342.961C641.688 342.961 642.585 341.882 642.585 340.753V339.84L640.311 340.006C639.016 340.089 638.186 340.554 638.186 341.533ZM646.253 344.023V335.009H647.681V344.023H646.253ZM646.967 333.515C646.419 333.515 645.971 333.1 645.971 332.568C645.971 332.037 646.419 331.622 646.967 331.622C647.515 331.622 647.98 332.037 647.98 332.568C647.98 333.1 647.515 333.515 646.967 333.515ZM651.349 332.004V344.023H649.921V332.004H651.349ZM654.602 344.123C654.021 344.123 653.523 343.642 653.54 343.044C653.523 342.463 654.021 341.981 654.602 341.981C655.183 341.981 655.665 342.463 655.665 343.044C655.665 343.642 655.183 344.123 654.602 344.123ZM661.557 344.206C659.001 344.206 657.44 342.264 657.44 339.558C657.44 336.818 659.067 334.893 661.524 334.893C663.45 334.893 664.878 336.021 665.11 337.731H663.682C663.483 336.901 662.753 336.154 661.557 336.154C659.947 336.154 658.868 337.482 658.868 339.508C658.868 341.6 659.914 342.928 661.557 342.928C662.62 342.928 663.433 342.363 663.682 341.367H665.11C664.878 342.978 663.566 344.206 661.557 344.206ZM670.521 344.206C668.064 344.206 666.404 342.363 666.404 339.558C666.404 336.752 668.064 334.893 670.521 334.893C672.962 334.893 674.605 336.752 674.605 339.558C674.605 342.363 672.962 344.206 670.521 344.206ZM670.521 342.944C672.331 342.944 673.178 341.351 673.178 339.558C673.178 337.765 672.331 336.154 670.521 336.154C668.679 336.154 667.832 337.765 667.832 339.558C667.832 341.351 668.679 342.944 670.521 342.944ZM676.447 344.023V335.009H677.825V336.42H677.942C678.323 335.457 679.187 334.893 680.365 334.893C681.544 334.893 682.341 335.457 682.773 336.42H682.872C683.337 335.49 684.283 334.893 685.578 334.893C687.189 334.893 688.334 335.872 688.334 337.997V344.023H686.906V338.014C686.906 336.686 686.06 336.171 685.08 336.171C683.818 336.171 683.105 337.018 683.105 338.163V344.023H681.66V337.864C681.66 336.852 680.93 336.171 679.901 336.171C678.821 336.171 677.875 337.084 677.875 338.396V344.023H676.447Z" fill="#AEADB2"/>
<path d="M820.145 291.984V293.346H814.234V294.441H818.468V297.961H809.935V298.99H818.883V300.368H808.125V296.699H816.658V295.77H808.108V294.441H812.408V293.346H806.531V291.984H820.145ZM814.234 285.46V286.722H818.833V288.1H814.434C814.791 289.162 816.534 289.959 819.53 290.108L818.982 291.486C816.293 291.32 814.268 290.59 813.321 289.378C812.375 290.59 810.358 291.32 807.644 291.486L807.129 290.108C810.092 289.959 811.835 289.162 812.226 288.1H807.843V286.722H812.408V285.46H814.234ZM829.607 286.805V288.282H828.295V292.715C828.951 292.673 829.59 292.607 830.204 292.532L830.337 293.894C827.316 294.392 823.862 294.458 821.322 294.458L821.123 292.964L822.85 292.947V288.282H821.522V286.805H829.607ZM832.993 285.51V289.843H835.085V291.387H832.993V296.55H831.151V285.51H832.993ZM833.591 298.708V300.202H823.381V295.504H825.224V298.708H833.591ZM824.626 292.897C825.24 292.889 825.871 292.864 826.502 292.831V288.282H824.626V292.897ZM841.177 289.096C841.161 291.769 842.505 294.491 844.829 295.604L843.701 297.081C842.074 296.259 840.903 294.674 840.264 292.765C839.608 294.807 838.38 296.5 836.661 297.363L835.533 295.886C837.94 294.74 839.318 291.868 839.334 289.096V286.705H841.177V289.096ZM847.569 285.493V291.37H849.876V292.947H847.569V300.501H845.726V285.493H847.569ZM866.958 285.493V300.518H865.098V285.493H866.958ZM858.873 286.589C861.131 286.589 862.774 288.647 862.791 291.885C862.774 295.155 861.131 297.197 858.873 297.197C856.598 297.197 854.955 295.155 854.955 291.885C854.955 288.647 856.598 286.589 858.873 286.589ZM858.873 288.249C857.594 288.249 856.731 289.594 856.731 291.885C856.731 294.192 857.594 295.537 858.873 295.537C860.135 295.537 860.998 294.192 860.998 291.885C860.998 289.594 860.135 288.249 858.873 288.249ZM882.828 293.13V294.591H869.115V293.13H882.828ZM881.135 285.809V289.66H872.684V290.739H881.434V292.15H870.858V288.315H879.292V287.253H870.809V285.809H881.135ZM881.184 295.67V300.318H870.908V295.67H881.184ZM872.718 297.131V298.824H879.358V297.131H872.718Z" fill="#343438"/>
<rect x="806.5" y="313.523" width="267" height="48" rx="15.5" stroke="#C7C6CB"/>
<path d="M836.045 337.184V338.196H829.952V339.574H834.318V342.762H825.553V344.206H834.767V345.202H824.258V341.832H833.04V340.554H824.225V339.574H828.674V338.196H822.614V337.184H836.045ZM829.952 330.526V331.904H834.684V332.934H830.052C830.292 334.403 832.6 335.333 835.314 335.507L834.916 336.503C832.451 336.295 830.226 335.532 829.321 334.129C828.417 335.532 826.192 336.295 823.71 336.503L823.328 335.507C826.026 335.333 828.333 334.403 828.591 332.934H823.992V331.904H828.674V330.526H829.952ZM845.69 332.021V333.083H844.179V337.964C844.934 337.914 845.681 337.848 846.387 337.765L846.487 338.744C843.498 339.209 840.012 339.275 837.455 339.275L837.306 338.196L839.215 338.163V333.083H837.721V332.021H845.69ZM848.794 330.626V335.108H851.019V336.221H848.794V341.483H847.499V330.626H848.794ZM849.475 343.957V345.053H839.564V340.454H840.842V343.957H849.475ZM840.493 338.146C841.282 338.122 842.095 338.097 842.901 338.047V333.083H840.493V338.146ZM856.862 334.577C856.862 337.184 858.588 339.856 860.68 340.886L859.883 341.932C858.256 341.077 856.895 339.333 856.247 337.283C855.583 339.466 854.189 341.326 852.529 342.214L851.699 341.168C853.857 340.105 855.567 337.267 855.583 334.577V331.888H856.862V334.577ZM863.336 330.609V336.603H865.81V337.731H863.336V345.368H862.041V330.609H863.336Z" fill="#AEADB2"/>
<path d="M211.877 399.76C211.877 402.084 213.255 404.724 215.629 405.819L214.6 407.28C212.906 406.483 211.653 404.873 210.98 402.997C210.3 405.056 208.988 406.815 207.262 407.646L206.183 406.201C208.573 405.072 210.018 402.25 210.034 399.76V398.498H206.764V396.971H215.015V398.498H211.877V399.76ZM218.252 395.493V401.337H220.56V402.881H218.252V410.501H216.409V395.493H218.252ZM234.869 407.23V408.758H221.156V407.23H224.792V404.757H222.783V399.859H231.416V398.017H222.75V396.522H233.242V401.337H224.626V403.263H233.591V404.757H231.4V407.23H234.869ZM226.585 407.23H229.59V404.757H226.585V407.23ZM243.982 396.157C245.924 396.141 247.452 397.261 247.834 398.913H250.54V395.493H252.382V403.545H250.54V400.407H247.85C247.477 402.092 245.933 403.229 243.982 403.229C241.674 403.229 240.014 401.752 240.014 399.677C240.014 397.635 241.674 396.141 243.982 396.157ZM243.982 397.701C242.687 397.701 241.774 398.465 241.774 399.677C241.774 400.872 242.687 401.669 243.982 401.669C245.244 401.669 246.14 400.872 246.157 399.677C246.14 398.465 245.244 397.701 243.982 397.701ZM244.314 404.242V405.836H250.54V404.242H252.382V410.318H242.488V404.242H244.314ZM244.314 408.824H250.54V407.264H244.314V408.824ZM268.186 407.23V408.758H254.473V407.23H260.384V404.79H256.1V399.876H264.733V398.017H256.067V396.522H266.559V401.337H257.943V403.279H266.908V404.79H262.21V407.23H268.186ZM281.317 402.532V404.01H270.792V396.805H281.201V398.299H272.618V402.532H281.317ZM282.845 407.064V408.592H269.132V407.064H282.845Z" fill="#343438"/>
<rect x="206.5" y="423.523" width="867" height="51" rx="15.5" stroke="#C7C6CB"/>
<path d="M227.595 446.642C227.578 449.016 229.288 451.622 231.43 452.635L230.683 453.664C229.022 452.859 227.62 451.099 226.964 449.099C226.283 451.273 224.797 453.183 223.146 454.029L222.349 453C224.474 451.971 226.3 449.165 226.316 446.642V444.716H222.88V443.637H230.915V444.716H227.595V446.642ZM234.02 442.109V448.086H236.493V449.198H234.02V456.868H232.725V442.109H234.02ZM250.77 453.946V455.042H237.256V453.946H241.058V451.141H238.949V446.592H247.781V444.284H238.916V443.205H249.06V447.671H240.244V450.062H249.408V451.141H247.101V453.946H250.77ZM242.336 453.946H245.822V451.141H242.336V453.946ZM260.214 442.807C262.198 442.79 263.701 443.944 263.983 445.646H267.071V442.109H268.382V450.028H267.071V446.725H264C263.734 448.468 262.215 449.63 260.214 449.63C257.973 449.63 256.379 448.235 256.379 446.21C256.379 444.201 257.973 442.79 260.214 442.807ZM260.214 443.919C258.704 443.902 257.625 444.849 257.625 446.21C257.625 447.555 258.704 448.534 260.214 448.534C261.709 448.534 262.771 447.555 262.771 446.21C262.771 444.849 261.709 443.902 260.214 443.919ZM260.181 450.775V452.651H267.071V450.775H268.382V456.669H258.87V450.775H260.181ZM260.181 455.606H267.071V453.697H260.181V455.606ZM284.319 453.946V455.042H270.805V453.946H276.882V451.157H272.499V446.608H281.331V444.284H272.466V443.205H282.609V447.671H273.794V450.078H282.958V451.157H278.16V453.946H284.319ZM297.384 449.215V450.294H287.19V443.487H297.234V444.566H288.485V449.215H297.384ZM298.977 453.764V454.859H285.464V453.764H298.977Z" fill="#AEADB2"/>
<g clip-path="url(#clip0_805_997)">
<path d="M1048.84 440.691H1043C1042.56 440.691 1042.14 440.867 1041.82 441.18C1041.51 441.492 1041.34 441.916 1041.34 442.358V455.691C1041.34 456.133 1041.51 456.557 1041.82 456.87C1042.14 457.182 1042.56 457.358 1043 457.358H1053C1053.44 457.358 1053.87 457.182 1054.18 456.87C1054.49 456.557 1054.67 456.133 1054.67 455.691V446.525M1048.84 440.691L1054.67 446.525M1048.84 440.691V446.525H1054.67" stroke="#AEADB2" stroke-width="1.5" stroke-linecap="round" stroke-linejoin="round"/>
</g>
<path d="M220.194 515.997V517.475H214.4V520.23H212.574V517.475H206.481V515.997H220.194ZM218.435 509.174V514.603H208.225V509.174H218.435ZM210.018 510.618V513.158H216.608V510.618H210.018ZM218.684 521.708V523.202H208.142V518.853H209.984V521.708H218.684ZM226.021 509.539C228.395 509.522 230.138 511.033 230.154 513.158C230.138 515.3 228.395 516.794 226.021 516.794C223.663 516.794 221.903 515.3 221.903 513.158C221.903 511.033 223.663 509.522 226.021 509.539ZM226.021 511.133C224.709 511.133 223.73 511.913 223.73 513.158C223.73 514.42 224.709 515.184 226.021 515.184C227.349 515.184 228.345 514.42 228.345 513.158C228.345 511.913 227.349 511.133 226.021 511.133ZM233.657 508.493V523.518H231.815V508.493H233.657ZM221.223 518.869C223.929 518.869 227.681 518.836 230.918 518.371L231.068 519.716C227.697 520.363 224.095 520.38 221.455 520.38L221.223 518.869ZM252.698 508.493V523.501H250.921V515.914H249.261V522.737H247.535V508.775H249.261V514.403H250.921V508.493H252.698ZM242.322 510.22V518.139C243.617 518.114 245.036 518.006 246.605 517.69L246.788 519.301C244.762 519.666 243.052 519.766 241.459 519.766H240.462V510.22H242.322ZM268.153 515.715V517.192H254.473V515.715H257.661V513.806C256.532 513.333 255.885 512.577 255.885 511.598C255.885 509.805 257.993 508.742 261.297 508.742C264.6 508.742 266.692 509.805 266.709 511.598C266.7 512.585 266.053 513.341 264.916 513.806V515.715H268.153ZM261.297 518.105C264.534 518.089 266.476 519.052 266.493 520.778C266.476 522.521 264.534 523.468 261.297 523.468C258.026 523.468 256.067 522.521 256.067 520.778C256.067 519.052 258.026 518.089 261.297 518.105ZM261.297 519.5C259.105 519.5 257.926 519.932 257.943 520.778C257.926 521.625 259.105 522.073 261.297 522.073C263.438 522.073 264.634 521.625 264.65 520.778C264.634 519.932 263.438 519.5 261.297 519.5ZM261.297 510.17C259.072 510.17 257.794 510.668 257.81 511.598C257.794 512.511 259.072 512.992 261.297 512.992C263.505 512.992 264.8 512.511 264.8 511.598C264.8 510.668 263.505 510.17 261.297 510.17ZM259.52 515.715H263.073V514.287C262.533 514.362 261.936 514.403 261.297 514.403C260.657 514.403 260.06 514.362 259.52 514.287V515.715Z" fill="#343438"/>
<rect x="206.5" y="536.523" width="867" height="149" rx="15.5" stroke="#C7C6CB"/>
<path d="M227.528 559C227.528 561.009 229.056 562.852 231.197 563.582L230.483 564.611C228.848 564.014 227.562 562.793 226.914 561.258C226.283 562.993 224.972 564.362 223.245 565.026L222.548 563.98C224.756 563.15 226.233 561.175 226.25 558.9V557.373H227.528V559ZM234.136 556.609V560.461H236.36V561.557H234.136V565.591H232.841V556.609H234.136ZM229.404 565.973C232.442 565.973 234.269 566.952 234.269 568.646C234.269 570.372 232.442 571.335 229.404 571.335C226.366 571.335 224.507 570.372 224.507 568.646C224.507 566.952 226.366 565.973 229.404 565.973ZM229.404 567.019C227.18 567.019 225.802 567.633 225.818 568.646C225.802 569.691 227.18 570.289 229.404 570.306C231.646 570.289 233.007 569.691 233.007 568.646C233.007 567.633 231.646 567.019 229.404 567.019ZM241.639 560.81C241.639 563.15 242.784 565.69 244.743 566.853L243.996 567.865C242.577 567.002 241.556 565.425 241.041 563.632C240.493 565.591 239.398 567.276 237.92 568.181L237.09 567.201C239.132 566.006 240.377 563.383 240.377 560.859V558.004H241.639V560.81ZM249.906 556.609V571.368H248.645V556.609H249.906ZM246.852 556.925V570.621H245.623V563.018H243.116V561.905H245.623V556.925H246.852ZM263.336 556.609V562.702H265.81V563.781H263.336V571.368H262.041V556.609H263.336ZM260.614 558.983V560.062H251.831V558.983H255.633V556.792H256.928V558.983H260.614ZM256.297 561.291C258.389 561.291 259.9 562.686 259.916 564.678C259.9 566.67 258.389 568.064 256.297 568.064C254.189 568.064 252.661 566.67 252.678 564.678C252.661 562.686 254.189 561.291 256.297 561.291ZM256.297 562.387C254.919 562.387 253.907 563.35 253.923 564.678C253.907 566.022 254.919 566.969 256.297 566.952C257.659 566.969 258.655 566.022 258.671 564.678C258.655 563.35 257.659 562.387 256.297 562.387ZM279.207 556.609V571.368H277.961V556.609H279.207ZM276.102 557.008V570.621H274.857V563.731H271.736C270.831 565.45 269.412 566.969 267.353 568.181L266.589 567.234C269.802 565.333 271.412 562.669 271.653 559.581H267.22V558.502H272.948C272.94 559.955 272.707 561.357 272.217 562.669H274.857V557.008H276.102ZM290.461 559.349C290.461 561.308 291.905 563.101 294.097 563.864L293.433 564.877C291.747 564.279 290.461 563.067 289.83 561.54C289.199 563.217 287.846 564.52 286.111 565.159L285.414 564.146C287.622 563.366 289.166 561.457 289.183 559.349V558.718H285.812V557.655H293.781V558.718H290.461V559.349ZM297.002 556.609V560.511H299.226V561.623H297.002V565.508H295.707V556.609H297.002ZM297.002 566.288V571.368H295.707V567.351H287.34V566.288H297.002ZM305.202 558.934C305.186 561.042 306.68 562.901 308.855 563.632L308.124 564.645C306.497 564.03 305.219 562.835 304.588 561.274C303.949 563.042 302.596 564.42 300.819 565.093L300.106 564.03C302.38 563.233 303.891 561.274 303.907 558.983V557.456H305.202V558.934ZM312.358 556.609V565.358H311.046V560.859H307.759V559.78H311.046V556.609H312.358ZM307.46 565.79C310.531 565.79 312.407 566.803 312.407 568.579C312.407 570.339 310.531 571.335 307.46 571.335C304.389 571.335 302.513 570.339 302.513 568.579C302.513 566.803 304.389 565.79 307.46 565.79ZM307.46 566.819C305.202 566.819 303.791 567.483 303.808 568.579C303.791 569.642 305.202 570.289 307.46 570.289C309.718 570.289 311.112 569.642 311.112 568.579C311.112 567.483 309.718 566.819 307.46 566.819ZM332.51 565.375V566.438H326.351V571.368H325.073V566.438H318.997V565.375H332.51ZM322.018 557.224V559.266H329.456V557.224H330.767V563.582H320.723V557.224H322.018ZM322.018 562.52H329.456V560.328H322.018V562.52ZM341.159 557.622V558.701H335.664V560.627H340.877V561.656H335.664V563.698C338.536 563.698 340.188 563.624 342.122 563.267L342.271 564.346C340.229 564.694 338.536 564.761 335.481 564.744H334.369V557.622H341.159ZM345.21 556.609V560.544H347.434V561.656H345.21V565.558H343.915V556.609H345.21ZM345.21 566.288V571.368H343.915V567.351H335.548V566.288H345.21ZM360.25 563.715V564.794H350.056V557.987H360.1V559.066H351.351V563.715H360.25ZM361.844 568.264V569.359H348.33V568.264H361.844ZM375.174 556.626V564.728H373.879V556.626H375.174ZM370.476 557.34V561.324H365.03V563.333C367.67 563.316 369.646 563.267 372.036 562.868L372.186 563.947C369.712 564.346 367.687 564.412 364.964 564.429H363.769V560.295H369.181V558.419H363.735V557.34H370.476ZM366.89 565.475V567.234H373.879V565.475H375.174V571.169H365.578V565.475H366.89ZM366.89 570.106H373.879V568.28H366.89V570.106ZM389.816 556.609V571.368H388.521V556.609H389.816ZM379.888 558.07V566.438C382.137 566.429 384.47 566.247 386.944 565.724L387.126 566.836C384.503 567.384 382.162 567.566 379.805 567.566H378.61V558.07H379.888ZM403.727 556.609V562.453H406.201V563.549H403.727V571.401H402.432V556.609H403.727ZM399.842 558.054V559.133H394.247V566.604C396.92 566.604 398.813 566.479 401.004 566.072L401.17 567.201C398.863 567.616 396.92 567.699 394.115 567.699H392.953V558.054H399.842Z" fill="#AEADB2"/>
<rect x="926" y="718.023" width="148" height="48" rx="24" fill="#C7C6CB"/>
<path d="M985.943 742.352V743.742H980.49V746.336H978.771V743.742H973.037V742.352H985.943ZM984.287 735.93V741.039H974.677V735.93H984.287ZM976.365 737.289V739.68H982.568V737.289H976.365ZM984.521 747.727V749.133H974.599V745.039H976.334V747.727H984.521ZM991.299 736.273C993.533 736.258 995.174 737.68 995.189 739.68C995.174 741.695 993.533 743.102 991.299 743.102C989.08 743.102 987.424 741.695 987.424 739.68C987.424 737.68 989.08 736.258 991.299 736.273ZM991.299 737.773C990.064 737.773 989.142 738.508 989.142 739.68C989.142 740.867 990.064 741.586 991.299 741.586C992.549 741.586 993.486 740.867 993.486 739.68C993.486 738.508 992.549 737.773 991.299 737.773ZM998.486 735.289V749.43H996.752V735.289H998.486ZM986.783 745.055C989.33 745.055 992.861 745.023 995.908 744.586L996.049 745.852C992.877 746.461 989.486 746.477 987.002 746.477L986.783 745.055ZM1011.45 735.289V740.914H1013.62V742.352H1011.45V749.414H1009.73V735.289H1011.45ZM1008.64 737.461V738.852H1000.31V737.461H1003.65V735.492H1005.39V737.461H1008.64ZM1004.53 739.773C1006.56 739.773 1008.08 741.148 1008.08 743.102C1008.08 745.055 1006.56 746.414 1004.53 746.414C1002.47 746.414 1000.95 745.055 1000.97 743.102C1000.95 741.148 1002.47 739.773 1004.53 739.773ZM1004.53 741.195C1003.42 741.195 1002.62 741.945 1002.62 743.102C1002.62 744.258 1003.42 744.992 1004.53 744.977C1005.61 744.992 1006.4 744.258 1006.42 743.102C1006.4 741.945 1005.61 741.195 1004.53 741.195ZM1025.85 735.289V749.414H1024.1V735.289H1025.85ZM1021.64 736.789C1021.64 740.992 1020.01 744.57 1015.06 746.914L1014.15 745.523C1017.85 743.766 1019.56 741.375 1019.87 738.164H1014.87V736.789H1021.64Z" fill="white"/>
<defs>
<clipPath id="clip0_805_997">
<rect width="20" height="20" fill="white" transform="translate(1038 439.023)"/>
</clipPath>
</defs>
</svg>
